<?xml version="1.0" encoding="utf-8" standalone="no"?>
<!DOCTYPE svg PUBLIC "-//W3C//DTD SVG 1.1//EN"
  "http://www.w3.org/Graphics/SVG/1.1/DTD/svg11.dtd">
<!-- Created with matplotlib (https://matplotlib.org/) -->
<svg height="329.4pt" version="1.1" viewBox="0 0 936 329.4" width="936pt" xmlns="http://www.w3.org/2000/svg" xmlns:xlink="http://www.w3.org/1999/xlink">
 <defs>
  <style type="text/css">
*{stroke-linecap:butt;stroke-linejoin:round;}
  </style>
 </defs>
 <g id="figure_1">
  <g id="patch_1">
   <path d="M 0 329.4 
L 936 329.4 
L 936 0 
L 0 0 
z
" style="fill:#ffffff;"/>
  </g>
  <g id="axes_1">
   <g id="patch_2">
    <path d="M 55.425 288.7875 
L 306.135877 288.7875 
L 306.135877 28.05 
L 55.425 28.05 
z
" style="fill:#eeeeee;"/>
   </g>
   <g id="matplotlib.axis_1">
    <g id="xtick_1">
     <g id="line2d_1">
      <path clip-path="url(#p013e3097c7)" d="M 55.425 288.7875 
L 55.425 28.05 
" style="fill:none;stroke:#b2b2b2;stroke-dasharray:1.85,0.8;stroke-dashoffset:0;stroke-width:0.5;"/>
     </g>
     <g id="line2d_2">
      <defs>
       <path d="M 0 0 
L 0 -3.5 
" id="m9eb9d35d82" style="stroke:#000000;stroke-width:0.8;"/>
      </defs>
      <g>
       <use style="fill-opacity:0;stroke:#000000;stroke-width:0.8;" x="55.425" xlink:href="#m9eb9d35d82" y="288.7875"/>
      </g>
     </g>
     <g id="text_1">
      <!-- 0 -->
      <defs>
       <path d="M 31.78125 66.40625 
Q 24.171875 66.40625 20.328125 58.90625 
Q 16.5 51.421875 16.5 36.375 
Q 16.5 21.390625 20.328125 13.890625 
Q 24.171875 6.390625 31.78125 6.390625 
Q 39.453125 6.390625 43.28125 13.890625 
Q 47.125 21.390625 47.125 36.375 
Q 47.125 51.421875 43.28125 58.90625 
Q 39.453125 66.40625 31.78125 66.40625 
z
M 31.78125 74.21875 
Q 44.046875 74.21875 50.515625 64.515625 
Q 56.984375 54.828125 56.984375 36.375 
Q 56.984375 17.96875 50.515625 8.265625 
Q 44.046875 -1.421875 31.78125 -1.421875 
Q 19.53125 -1.421875 13.0625 8.265625 
Q 6.59375 17.96875 6.59375 36.375 
Q 6.59375 54.828125 13.0625 64.515625 
Q 19.53125 74.21875 31.78125 74.21875 
z
" id="DejaVuSans-48"/>
      </defs>
      <g transform="translate(52.24375 299.885938)scale(0.1 -0.1)">
       <use xlink:href="#DejaVuSans-48"/>
      </g>
     </g>
    </g>
    <g id="xtick_2">
     <g id="line2d_3">
      <path clip-path="url(#p013e3097c7)" d="M 95.53874 288.7875 
L 95.53874 28.05 
" style="fill:none;stroke:#b2b2b2;stroke-dasharray:1.85,0.8;stroke-dashoffset:0;stroke-width:0.5;"/>
     </g>
     <g id="line2d_4">
      <g>
       <use style="fill-opacity:0;stroke:#000000;stroke-width:0.8;" x="95.53874" xlink:href="#m9eb9d35d82" y="288.7875"/>
      </g>
     </g>
     <g id="text_2">
      <!-- 2 -->
      <defs>
       <path d="M 19.1875 8.296875 
L 53.609375 8.296875 
L 53.609375 0 
L 7.328125 0 
L 7.328125 8.296875 
Q 12.9375 14.109375 22.625 23.890625 
Q 32.328125 33.6875 34.8125 36.53125 
Q 39.546875 41.84375 41.421875 45.53125 
Q 43.3125 49.21875 43.3125 52.78125 
Q 43.3125 58.59375 39.234375 62.25 
Q 35.15625 65.921875 28.609375 65.921875 
Q 23.96875 65.921875 18.8125 64.3125 
Q 13.671875 62.703125 7.8125 59.421875 
L 7.8125 69.390625 
Q 13.765625 71.78125 18.9375 73 
Q 24.125 74.21875 28.421875 74.21875 
Q 39.75 74.21875 46.484375 68.546875 
Q 53.21875 62.890625 53.21875 53.421875 
Q 53.21875 48.921875 51.53125 44.890625 
Q 49.859375 40.875 45.40625 35.40625 
Q 44.1875 33.984375 37.640625 27.21875 
Q 31.109375 20.453125 19.1875 8.296875 
z
" id="DejaVuSans-50"/>
      </defs>
      <g transform="translate(92.35749 299.885938)scale(0.1 -0.1)">
       <use xlink:href="#DejaVuSans-50"/>
      </g>
     </g>
    </g>
    <g id="xtick_3">
     <g id="line2d_5">
      <path clip-path="url(#p013e3097c7)" d="M 135.652481 288.7875 
L 135.652481 28.05 
" style="fill:none;stroke:#b2b2b2;stroke-dasharray:1.85,0.8;stroke-dashoffset:0;stroke-width:0.5;"/>
     </g>
     <g id="line2d_6">
      <g>
       <use style="fill-opacity:0;stroke:#000000;stroke-width:0.8;" x="135.652481" xlink:href="#m9eb9d35d82" y="288.7875"/>
      </g>
     </g>
     <g id="text_3">
      <!-- 4 -->
      <defs>
       <path d="M 37.796875 64.3125 
L 12.890625 25.390625 
L 37.796875 25.390625 
z
M 35.203125 72.90625 
L 47.609375 72.90625 
L 47.609375 25.390625 
L 58.015625 25.390625 
L 58.015625 17.1875 
L 47.609375 17.1875 
L 47.609375 0 
L 37.796875 0 
L 37.796875 17.1875 
L 4.890625 17.1875 
L 4.890625 26.703125 
z
" id="DejaVuSans-52"/>
      </defs>
      <g transform="translate(132.471231 299.885938)scale(0.1 -0.1)">
       <use xlink:href="#DejaVuSans-52"/>
      </g>
     </g>
    </g>
    <g id="xtick_4">
     <g id="line2d_7">
      <path clip-path="url(#p013e3097c7)" d="M 175.766221 288.7875 
L 175.766221 28.05 
" style="fill:none;stroke:#b2b2b2;stroke-dasharray:1.85,0.8;stroke-dashoffset:0;stroke-width:0.5;"/>
     </g>
     <g id="line2d_8">
      <g>
       <use style="fill-opacity:0;stroke:#000000;stroke-width:0.8;" x="175.766221" xlink:href="#m9eb9d35d82" y="288.7875"/>
      </g>
     </g>
     <g id="text_4">
      <!-- 6 -->
      <defs>
       <path d="M 33.015625 40.375 
Q 26.375 40.375 22.484375 35.828125 
Q 18.609375 31.296875 18.609375 23.390625 
Q 18.609375 15.53125 22.484375 10.953125 
Q 26.375 6.390625 33.015625 6.390625 
Q 39.65625 6.390625 43.53125 10.953125 
Q 47.40625 15.53125 47.40625 23.390625 
Q 47.40625 31.296875 43.53125 35.828125 
Q 39.65625 40.375 33.015625 40.375 
z
M 52.59375 71.296875 
L 52.59375 62.3125 
Q 48.875 64.0625 45.09375 64.984375 
Q 41.3125 65.921875 37.59375 65.921875 
Q 27.828125 65.921875 22.671875 59.328125 
Q 17.53125 52.734375 16.796875 39.40625 
Q 19.671875 43.65625 24.015625 45.921875 
Q 28.375 48.1875 33.59375 48.1875 
Q 44.578125 48.1875 50.953125 41.515625 
Q 57.328125 34.859375 57.328125 23.390625 
Q 57.328125 12.15625 50.6875 5.359375 
Q 44.046875 -1.421875 33.015625 -1.421875 
Q 20.359375 -1.421875 13.671875 8.265625 
Q 6.984375 17.96875 6.984375 36.375 
Q 6.984375 53.65625 15.1875 63.9375 
Q 23.390625 74.21875 37.203125 74.21875 
Q 40.921875 74.21875 44.703125 73.484375 
Q 48.484375 72.75 52.59375 71.296875 
z
" id="DejaVuSans-54"/>
      </defs>
      <g transform="translate(172.584971 299.885938)scale(0.1 -0.1)">
       <use xlink:href="#DejaVuSans-54"/>
      </g>
     </g>
    </g>
    <g id="xtick_5">
     <g id="line2d_9">
      <path clip-path="url(#p013e3097c7)" d="M 215.879961 288.7875 
L 215.879961 28.05 
" style="fill:none;stroke:#b2b2b2;stroke-dasharray:1.85,0.8;stroke-dashoffset:0;stroke-width:0.5;"/>
     </g>
     <g id="line2d_10">
      <g>
       <use style="fill-opacity:0;stroke:#000000;stroke-width:0.8;" x="215.879961" xlink:href="#m9eb9d35d82" y="288.7875"/>
      </g>
     </g>
     <g id="text_5">
      <!-- 8 -->
      <defs>
       <path d="M 31.78125 34.625 
Q 24.75 34.625 20.71875 30.859375 
Q 16.703125 27.09375 16.703125 20.515625 
Q 16.703125 13.921875 20.71875 10.15625 
Q 24.75 6.390625 31.78125 6.390625 
Q 38.8125 6.390625 42.859375 10.171875 
Q 46.921875 13.96875 46.921875 20.515625 
Q 46.921875 27.09375 42.890625 30.859375 
Q 38.875 34.625 31.78125 34.625 
z
M 21.921875 38.8125 
Q 15.578125 40.375 12.03125 44.71875 
Q 8.5 49.078125 8.5 55.328125 
Q 8.5 64.0625 14.71875 69.140625 
Q 20.953125 74.21875 31.78125 74.21875 
Q 42.671875 74.21875 48.875 69.140625 
Q 55.078125 64.0625 55.078125 55.328125 
Q 55.078125 49.078125 51.53125 44.71875 
Q 48 40.375 41.703125 38.8125 
Q 48.828125 37.15625 52.796875 32.3125 
Q 56.78125 27.484375 56.78125 20.515625 
Q 56.78125 9.90625 50.3125 4.234375 
Q 43.84375 -1.421875 31.78125 -1.421875 
Q 19.734375 -1.421875 13.25 4.234375 
Q 6.78125 9.90625 6.78125 20.515625 
Q 6.78125 27.484375 10.78125 32.3125 
Q 14.796875 37.15625 21.921875 38.8125 
z
M 18.3125 54.390625 
Q 18.3125 48.734375 21.84375 45.5625 
Q 25.390625 42.390625 31.78125 42.390625 
Q 38.140625 42.390625 41.71875 45.5625 
Q 45.3125 48.734375 45.3125 54.390625 
Q 45.3125 60.0625 41.71875 63.234375 
Q 38.140625 66.40625 31.78125 66.40625 
Q 25.390625 66.40625 21.84375 63.234375 
Q 18.3125 60.0625 18.3125 54.390625 
z
" id="DejaVuSans-56"/>
      </defs>
      <g transform="translate(212.698711 299.885938)scale(0.1 -0.1)">
       <use xlink:href="#DejaVuSans-56"/>
      </g>
     </g>
    </g>
    <g id="xtick_6">
     <g id="line2d_11">
      <path clip-path="url(#p013e3097c7)" d="M 255.993702 288.7875 
L 255.993702 28.05 
" style="fill:none;stroke:#b2b2b2;stroke-dasharray:1.85,0.8;stroke-dashoffset:0;stroke-width:0.5;"/>
     </g>
     <g id="line2d_12">
      <g>
       <use style="fill-opacity:0;stroke:#000000;stroke-width:0.8;" x="255.993702" xlink:href="#m9eb9d35d82" y="288.7875"/>
      </g>
     </g>
     <g id="text_6">
      <!-- 10 -->
      <defs>
       <path d="M 12.40625 8.296875 
L 28.515625 8.296875 
L 28.515625 63.921875 
L 10.984375 60.40625 
L 10.984375 69.390625 
L 28.421875 72.90625 
L 38.28125 72.90625 
L 38.28125 8.296875 
L 54.390625 8.296875 
L 54.390625 0 
L 12.40625 0 
z
" id="DejaVuSans-49"/>
      </defs>
      <g transform="translate(249.631202 299.885938)scale(0.1 -0.1)">
       <use xlink:href="#DejaVuSans-49"/>
       <use x="63.623047" xlink:href="#DejaVuSans-48"/>
      </g>
     </g>
    </g>
    <g id="xtick_7">
     <g id="line2d_13">
      <path clip-path="url(#p013e3097c7)" d="M 296.107442 288.7875 
L 296.107442 28.05 
" style="fill:none;stroke:#b2b2b2;stroke-dasharray:1.85,0.8;stroke-dashoffset:0;stroke-width:0.5;"/>
     </g>
     <g id="line2d_14">
      <g>
       <use style="fill-opacity:0;stroke:#000000;stroke-width:0.8;" x="296.107442" xlink:href="#m9eb9d35d82" y="288.7875"/>
      </g>
     </g>
     <g id="text_7">
      <!-- 12 -->
      <g transform="translate(289.744942 299.885938)scale(0.1 -0.1)">
       <use xlink:href="#DejaVuSans-49"/>
       <use x="63.623047" xlink:href="#DejaVuSans-50"/>
      </g>
     </g>
    </g>
    <g id="text_8">
     <!-- Time (ns) -->
     <defs>
      <path d="M -0.296875 72.90625 
L 61.375 72.90625 
L 61.375 64.59375 
L 35.5 64.59375 
L 35.5 0 
L 25.59375 0 
L 25.59375 64.59375 
L -0.296875 64.59375 
z
" id="DejaVuSans-84"/>
      <path d="M 9.421875 54.6875 
L 18.40625 54.6875 
L 18.40625 0 
L 9.421875 0 
z
M 9.421875 75.984375 
L 18.40625 75.984375 
L 18.40625 64.59375 
L 9.421875 64.59375 
z
" id="DejaVuSans-105"/>
      <path d="M 52 44.1875 
Q 55.375 50.25 60.0625 53.125 
Q 64.75 56 71.09375 56 
Q 79.640625 56 84.28125 50.015625 
Q 88.921875 44.046875 88.921875 33.015625 
L 88.921875 0 
L 79.890625 0 
L 79.890625 32.71875 
Q 79.890625 40.578125 77.09375 44.375 
Q 74.3125 48.1875 68.609375 48.1875 
Q 61.625 48.1875 57.5625 43.546875 
Q 53.515625 38.921875 53.515625 30.90625 
L 53.515625 0 
L 44.484375 0 
L 44.484375 32.71875 
Q 44.484375 40.625 41.703125 44.40625 
Q 38.921875 48.1875 33.109375 48.1875 
Q 26.21875 48.1875 22.15625 43.53125 
Q 18.109375 38.875 18.109375 30.90625 
L 18.109375 0 
L 9.078125 0 
L 9.078125 54.6875 
L 18.109375 54.6875 
L 18.109375 46.1875 
Q 21.1875 51.21875 25.484375 53.609375 
Q 29.78125 56 35.6875 56 
Q 41.65625 56 45.828125 52.96875 
Q 50 49.953125 52 44.1875 
z
" id="DejaVuSans-109"/>
      <path d="M 56.203125 29.59375 
L 56.203125 25.203125 
L 14.890625 25.203125 
Q 15.484375 15.921875 20.484375 11.0625 
Q 25.484375 6.203125 34.421875 6.203125 
Q 39.59375 6.203125 44.453125 7.46875 
Q 49.3125 8.734375 54.109375 11.28125 
L 54.109375 2.78125 
Q 49.265625 0.734375 44.1875 -0.34375 
Q 39.109375 -1.421875 33.890625 -1.421875 
Q 20.796875 -1.421875 13.15625 6.1875 
Q 5.515625 13.8125 5.515625 26.8125 
Q 5.515625 40.234375 12.765625 48.109375 
Q 20.015625 56 32.328125 56 
Q 43.359375 56 49.78125 48.890625 
Q 56.203125 41.796875 56.203125 29.59375 
z
M 47.21875 32.234375 
Q 47.125 39.59375 43.09375 43.984375 
Q 39.0625 48.390625 32.421875 48.390625 
Q 24.90625 48.390625 20.390625 44.140625 
Q 15.875 39.890625 15.1875 32.171875 
z
" id="DejaVuSans-101"/>
      <path id="DejaVuSans-32"/>
      <path d="M 31 75.875 
Q 24.46875 64.65625 21.28125 53.65625 
Q 18.109375 42.671875 18.109375 31.390625 
Q 18.109375 20.125 21.3125 9.0625 
Q 24.515625 -2 31 -13.1875 
L 23.1875 -13.1875 
Q 15.875 -1.703125 12.234375 9.375 
Q 8.59375 20.453125 8.59375 31.390625 
Q 8.59375 42.28125 12.203125 53.3125 
Q 15.828125 64.359375 23.1875 75.875 
z
" id="DejaVuSans-40"/>
      <path d="M 54.890625 33.015625 
L 54.890625 0 
L 45.90625 0 
L 45.90625 32.71875 
Q 45.90625 40.484375 42.875 44.328125 
Q 39.84375 48.1875 33.796875 48.1875 
Q 26.515625 48.1875 22.3125 43.546875 
Q 18.109375 38.921875 18.109375 30.90625 
L 18.109375 0 
L 9.078125 0 
L 9.078125 54.6875 
L 18.109375 54.6875 
L 18.109375 46.1875 
Q 21.34375 51.125 25.703125 53.5625 
Q 30.078125 56 35.796875 56 
Q 45.21875 56 50.046875 50.171875 
Q 54.890625 44.34375 54.890625 33.015625 
z
" id="DejaVuSans-110"/>
      <path d="M 44.28125 53.078125 
L 44.28125 44.578125 
Q 40.484375 46.53125 36.375 47.5 
Q 32.28125 48.484375 27.875 48.484375 
Q 21.1875 48.484375 17.84375 46.4375 
Q 14.5 44.390625 14.5 40.28125 
Q 14.5 37.15625 16.890625 35.375 
Q 19.28125 33.59375 26.515625 31.984375 
L 29.59375 31.296875 
Q 39.15625 29.25 43.1875 25.515625 
Q 47.21875 21.78125 47.21875 15.09375 
Q 47.21875 7.46875 41.1875 3.015625 
Q 35.15625 -1.421875 24.609375 -1.421875 
Q 20.21875 -1.421875 15.453125 -0.5625 
Q 10.6875 0.296875 5.421875 2 
L 5.421875 11.28125 
Q 10.40625 8.6875 15.234375 7.390625 
Q 20.0625 6.109375 24.8125 6.109375 
Q 31.15625 6.109375 34.5625 8.28125 
Q 37.984375 10.453125 37.984375 14.40625 
Q 37.984375 18.0625 35.515625 20.015625 
Q 33.0625 21.96875 24.703125 23.78125 
L 21.578125 24.515625 
Q 13.234375 26.265625 9.515625 29.90625 
Q 5.8125 33.546875 5.8125 39.890625 
Q 5.8125 47.609375 11.28125 51.796875 
Q 16.75 56 26.8125 56 
Q 31.78125 56 36.171875 55.265625 
Q 40.578125 54.546875 44.28125 53.078125 
z
" id="DejaVuSans-115"/>
      <path d="M 8.015625 75.875 
L 15.828125 75.875 
Q 23.140625 64.359375 26.78125 53.3125 
Q 30.421875 42.28125 30.421875 31.390625 
Q 30.421875 20.453125 26.78125 9.375 
Q 23.140625 -1.703125 15.828125 -13.1875 
L 8.015625 -13.1875 
Q 14.5 -2 17.703125 9.0625 
Q 20.90625 20.125 20.90625 31.390625 
Q 20.90625 42.671875 17.703125 53.65625 
Q 14.5 64.65625 8.015625 75.875 
z
" id="DejaVuSans-41"/>
     </defs>
     <g transform="translate(152.398564 315.08375)scale(0.12 -0.12)">
      <use xlink:href="#DejaVuSans-84"/>
      <use x="61.037109" xlink:href="#DejaVuSans-105"/>
      <use x="88.820312" xlink:href="#DejaVuSans-109"/>
      <use x="186.232422" xlink:href="#DejaVuSans-101"/>
      <use x="247.755859" xlink:href="#DejaVuSans-32"/>
      <use x="279.542969" xlink:href="#DejaVuSans-40"/>
      <use x="318.556641" xlink:href="#DejaVuSans-110"/>
      <use x="381.935547" xlink:href="#DejaVuSans-115"/>
      <use x="434.035156" xlink:href="#DejaVuSans-41"/>
     </g>
    </g>
   </g>
   <g id="matplotlib.axis_2">
    <g id="ytick_1">
     <g id="line2d_15">
      <path clip-path="url(#p013e3097c7)" d="M 55.425 276.935795 
L 306.135877 276.935795 
" style="fill:none;stroke:#b2b2b2;stroke-dasharray:1.85,0.8;stroke-dashoffset:0;stroke-width:0.5;"/>
     </g>
     <g id="line2d_16">
      <defs>
       <path d="M 0 0 
L 3.5 0 
" id="m310d43df09" style="stroke:#000000;stroke-width:0.8;"/>
      </defs>
      <g>
       <use style="fill-opacity:0;stroke:#000000;stroke-width:0.8;" x="55.425" xlink:href="#m310d43df09" y="276.935795"/>
      </g>
     </g>
     <g id="text_9">
      <!-- 0 -->
      <g transform="translate(45.5625 280.735014)scale(0.1 -0.1)">
       <use xlink:href="#DejaVuSans-48"/>
      </g>
     </g>
    </g>
    <g id="ytick_2">
     <g id="line2d_17">
      <path clip-path="url(#p013e3097c7)" d="M 55.425 221.432958 
L 306.135877 221.432958 
" style="fill:none;stroke:#b2b2b2;stroke-dasharray:1.85,0.8;stroke-dashoffset:0;stroke-width:0.5;"/>
     </g>
     <g id="line2d_18">
      <g>
       <use style="fill-opacity:0;stroke:#000000;stroke-width:0.8;" x="55.425" xlink:href="#m310d43df09" y="221.432958"/>
      </g>
     </g>
     <g id="text_10">
      <!-- 2000 -->
      <g transform="translate(26.475 225.232177)scale(0.1 -0.1)">
       <use xlink:href="#DejaVuSans-50"/>
       <use x="63.623047" xlink:href="#DejaVuSans-48"/>
       <use x="127.246094" xlink:href="#DejaVuSans-48"/>
       <use x="190.869141" xlink:href="#DejaVuSans-48"/>
      </g>
     </g>
    </g>
    <g id="ytick_3">
     <g id="line2d_19">
      <path clip-path="url(#p013e3097c7)" d="M 55.425 165.930121 
L 306.135877 165.930121 
" style="fill:none;stroke:#b2b2b2;stroke-dasharray:1.85,0.8;stroke-dashoffset:0;stroke-width:0.5;"/>
     </g>
     <g id="line2d_20">
      <g>
       <use style="fill-opacity:0;stroke:#000000;stroke-width:0.8;" x="55.425" xlink:href="#m310d43df09" y="165.930121"/>
      </g>
     </g>
     <g id="text_11">
      <!-- 4000 -->
      <g transform="translate(26.475 169.729339)scale(0.1 -0.1)">
       <use xlink:href="#DejaVuSans-52"/>
       <use x="63.623047" xlink:href="#DejaVuSans-48"/>
       <use x="127.246094" xlink:href="#DejaVuSans-48"/>
       <use x="190.869141" xlink:href="#DejaVuSans-48"/>
      </g>
     </g>
    </g>
    <g id="ytick_4">
     <g id="line2d_21">
      <path clip-path="url(#p013e3097c7)" d="M 55.425 110.427283 
L 306.135877 110.427283 
" style="fill:none;stroke:#b2b2b2;stroke-dasharray:1.85,0.8;stroke-dashoffset:0;stroke-width:0.5;"/>
     </g>
     <g id="line2d_22">
      <g>
       <use style="fill-opacity:0;stroke:#000000;stroke-width:0.8;" x="55.425" xlink:href="#m310d43df09" y="110.427283"/>
      </g>
     </g>
     <g id="text_12">
      <!-- 6000 -->
      <g transform="translate(26.475 114.226502)scale(0.1 -0.1)">
       <use xlink:href="#DejaVuSans-54"/>
       <use x="63.623047" xlink:href="#DejaVuSans-48"/>
       <use x="127.246094" xlink:href="#DejaVuSans-48"/>
       <use x="190.869141" xlink:href="#DejaVuSans-48"/>
      </g>
     </g>
    </g>
    <g id="ytick_5">
     <g id="line2d_23">
      <path clip-path="url(#p013e3097c7)" d="M 55.425 54.924446 
L 306.135877 54.924446 
" style="fill:none;stroke:#b2b2b2;stroke-dasharray:1.85,0.8;stroke-dashoffset:0;stroke-width:0.5;"/>
     </g>
     <g id="line2d_24">
      <g>
       <use style="fill-opacity:0;stroke:#000000;stroke-width:0.8;" x="55.425" xlink:href="#m310d43df09" y="54.924446"/>
      </g>
     </g>
     <g id="text_13">
      <!-- 8000 -->
      <g transform="translate(26.475 58.723665)scale(0.1 -0.1)">
       <use xlink:href="#DejaVuSans-56"/>
       <use x="63.623047" xlink:href="#DejaVuSans-48"/>
       <use x="127.246094" xlink:href="#DejaVuSans-48"/>
       <use x="190.869141" xlink:href="#DejaVuSans-48"/>
      </g>
     </g>
    </g>
    <g id="text_14">
     <!-- Counts -->
     <defs>
      <path d="M 64.40625 67.28125 
L 64.40625 56.890625 
Q 59.421875 61.53125 53.78125 63.8125 
Q 48.140625 66.109375 41.796875 66.109375 
Q 29.296875 66.109375 22.65625 58.46875 
Q 16.015625 50.828125 16.015625 36.375 
Q 16.015625 21.96875 22.65625 14.328125 
Q 29.296875 6.6875 41.796875 6.6875 
Q 48.140625 6.6875 53.78125 8.984375 
Q 59.421875 11.28125 64.40625 15.921875 
L 64.40625 5.609375 
Q 59.234375 2.09375 53.4375 0.328125 
Q 47.65625 -1.421875 41.21875 -1.421875 
Q 24.65625 -1.421875 15.125 8.703125 
Q 5.609375 18.84375 5.609375 36.375 
Q 5.609375 53.953125 15.125 64.078125 
Q 24.65625 74.21875 41.21875 74.21875 
Q 47.75 74.21875 53.53125 72.484375 
Q 59.328125 70.75 64.40625 67.28125 
z
" id="DejaVuSans-67"/>
      <path d="M 30.609375 48.390625 
Q 23.390625 48.390625 19.1875 42.75 
Q 14.984375 37.109375 14.984375 27.296875 
Q 14.984375 17.484375 19.15625 11.84375 
Q 23.34375 6.203125 30.609375 6.203125 
Q 37.796875 6.203125 41.984375 11.859375 
Q 46.1875 17.53125 46.1875 27.296875 
Q 46.1875 37.015625 41.984375 42.703125 
Q 37.796875 48.390625 30.609375 48.390625 
z
M 30.609375 56 
Q 42.328125 56 49.015625 48.375 
Q 55.71875 40.765625 55.71875 27.296875 
Q 55.71875 13.875 49.015625 6.21875 
Q 42.328125 -1.421875 30.609375 -1.421875 
Q 18.84375 -1.421875 12.171875 6.21875 
Q 5.515625 13.875 5.515625 27.296875 
Q 5.515625 40.765625 12.171875 48.375 
Q 18.84375 56 30.609375 56 
z
" id="DejaVuSans-111"/>
      <path d="M 8.5 21.578125 
L 8.5 54.6875 
L 17.484375 54.6875 
L 17.484375 21.921875 
Q 17.484375 14.15625 20.5 10.265625 
Q 23.53125 6.390625 29.59375 6.390625 
Q 36.859375 6.390625 41.078125 11.03125 
Q 45.3125 15.671875 45.3125 23.6875 
L 45.3125 54.6875 
L 54.296875 54.6875 
L 54.296875 0 
L 45.3125 0 
L 45.3125 8.40625 
Q 42.046875 3.421875 37.71875 1 
Q 33.40625 -1.421875 27.6875 -1.421875 
Q 18.265625 -1.421875 13.375 4.4375 
Q 8.5 10.296875 8.5 21.578125 
z
M 31.109375 56 
z
" id="DejaVuSans-117"/>
      <path d="M 18.3125 70.21875 
L 18.3125 54.6875 
L 36.8125 54.6875 
L 36.8125 47.703125 
L 18.3125 47.703125 
L 18.3125 18.015625 
Q 18.3125 11.328125 20.140625 9.421875 
Q 21.96875 7.515625 27.59375 7.515625 
L 36.8125 7.515625 
L 36.8125 0 
L 27.59375 0 
Q 17.1875 0 13.234375 3.875 
Q 9.28125 7.765625 9.28125 18.015625 
L 9.28125 47.703125 
L 2.6875 47.703125 
L 2.6875 54.6875 
L 9.28125 54.6875 
L 9.28125 70.21875 
z
" id="DejaVuSans-116"/>
     </defs>
     <g transform="translate(19.979375 179.3625)rotate(-90)scale(0.12 -0.12)">
      <use xlink:href="#DejaVuSans-67"/>
      <use x="69.824219" xlink:href="#DejaVuSans-111"/>
      <use x="131.005859" xlink:href="#DejaVuSans-117"/>
      <use x="194.384766" xlink:href="#DejaVuSans-110"/>
      <use x="257.763672" xlink:href="#DejaVuSans-116"/>
      <use x="296.972656" xlink:href="#DejaVuSans-115"/>
     </g>
    </g>
   </g>
   <g id="line2d_25">
    <path clip-path="url(#p013e3097c7)" d="M 55.425 276.935795 
L 64.701302 276.935795 
L 64.952013 137.229294 
L 65.453435 224.976558 
L 65.954857 257.611266 
L 66.456279 269.748672 
L 66.9577 274.262781 
L 67.459122 275.941656 
L 67.960544 276.566058 
L 68.461966 276.798284 
L 69.464809 276.916775 
L 73.726894 276.935791 
L 305.885166 276.935795 
L 305.885166 276.935795 
" style="fill:none;stroke:#e24a33;stroke-linecap:square;stroke-width:2;"/>
   </g>
   <g id="line2d_26">
    <path clip-path="url(#p013e3097c7)" d="M 55.425 273.248994 
L 64.952013 273.386634 
L 65.453435 217.857985 
L 65.704146 205.882103 
L 65.954857 199.369413 
L 66.205568 196.193191 
L 66.456279 195.028029 
L 66.706989 195.057591 
L 66.9577 195.783146 
L 67.459122 198.231195 
L 69.71552 210.626125 
L 70.969074 216.171507 
L 72.222629 220.859481 
L 73.726894 225.605871 
L 75.231159 229.607033 
L 76.735425 233.02626 
L 78.490401 236.436503 
L 80.245377 239.352842 
L 82.000353 241.87562 
L 84.00604 244.372018 
L 86.011727 246.535249 
L 88.268125 248.64807 
L 90.775234 250.674831 
L 93.533053 252.592368 
L 96.541584 254.387568 
L 99.800825 256.054951 
L 103.310778 257.59453 
L 107.322152 259.097078 
L 111.584236 260.456753 
L 116.598454 261.812382 
L 122.114093 263.066932 
L 128.381865 264.261307 
L 135.652481 265.412133 
L 143.92594 266.490989 
L 153.452953 267.507162 
L 164.734942 268.480989 
L 178.022619 269.397727 
L 193.817404 270.258172 
L 212.871431 271.066232 
L 236.187542 271.823143 
L 265.019293 272.526166 
L 301.12166 273.173797 
L 305.885166 273.245306 
L 305.885166 273.245306 
" style="fill:none;stroke:#348abd;stroke-linecap:square;stroke-width:2;"/>
   </g>
   <g id="line2d_27">
    <path clip-path="url(#p013e3097c7)" d="M 55.425 273.248994 
L 64.952013 273.386634 
L 65.453435 217.857985 
L 65.704146 205.882103 
L 65.954857 199.369413 
L 66.205568 196.193191 
L 66.456279 195.028029 
L 66.706989 195.057591 
L 66.9577 195.783146 
L 67.459122 198.231195 
L 69.71552 210.626125 
L 70.969074 216.171507 
L 72.222629 220.859481 
L 73.726894 225.605871 
L 75.231159 229.607033 
L 76.735425 233.02626 
L 78.490401 236.436503 
L 80.245377 239.352842 
L 82.000353 241.87562 
L 84.00604 244.372018 
L 86.011727 246.535249 
L 88.268125 248.64807 
L 90.775234 250.674831 
L 93.533053 252.592368 
L 96.541584 254.387568 
L 99.800825 256.054951 
L 103.310778 257.59453 
L 107.322152 259.097078 
L 111.584236 260.456753 
L 116.598454 261.812382 
L 122.114093 263.066932 
L 128.381865 264.261307 
L 135.652481 265.412133 
L 143.92594 266.490989 
L 153.452953 267.507162 
L 164.734942 268.480989 
L 178.022619 269.397727 
L 193.817404 270.258172 
L 212.871431 271.066232 
L 236.187542 271.823143 
L 265.019293 272.526166 
L 301.12166 273.173797 
L 305.885166 273.245306 
L 305.885166 273.245306 
" style="fill:none;stroke:#988ed5;stroke-linecap:square;stroke-width:2;"/>
   </g>
   <g id="line2d_28">
    <path clip-path="url(#p013e3097c7)" d="M 55.425 276.935777 
L 64.701302 276.935785 
L 64.952013 137.229285 
L 65.202724 122.332371 
L 65.453435 114.400568 
L 65.704146 110.69728 
L 65.954857 109.553913 
L 66.205568 109.953188 
L 66.706989 113.141571 
L 67.709833 122.606139 
L 69.966231 144.037383 
L 71.721207 158.74198 
L 73.476183 171.8213 
L 75.231159 183.453317 
L 76.986135 193.798131 
L 78.991822 204.226596 
L 80.997509 213.346955 
L 83.003196 221.323292 
L 85.008884 228.299108 
L 87.014571 234.399905 
L 89.020258 239.735442 
L 91.025945 244.401709 
L 93.031632 248.482658 
L 95.037319 252.051709 
L 97.043006 255.173072 
L 99.048693 257.902904 
L 101.05438 260.290315 
L 103.310778 262.620121 
L 105.567175 264.623833 
L 107.823573 266.347092 
L 110.330682 267.980453 
L 112.837791 269.361859 
L 115.595611 270.636601 
L 118.604141 271.783837 
L 121.863382 272.792141 
L 125.624046 273.712926 
L 129.886131 274.5117 
L 134.649637 275.172583 
L 140.415987 275.736419 
L 147.435892 276.185511 
L 156.461484 276.52532 
L 168.997027 276.758178 
L 189.555319 276.890833 
L 241.452471 276.934394 
L 305.885166 276.935777 
L 305.885166 276.935777 
" style="fill:none;stroke:#8eba42;stroke-linecap:square;stroke-width:2;"/>
   </g>
   <g id="line2d_29">
    <path clip-path="url(#p013e3097c7)" d="M 55.425 151.859668 
L 64.701302 154.663769 
L 64.952013 154.627611 
L 65.704146 148.220671 
L 68.211255 125.73509 
L 69.966231 112.135238 
L 71.721207 100.278375 
L 73.476183 89.980416 
L 75.231159 81.072913 
L 76.986135 73.403994 
L 78.741112 66.837054 
L 80.245377 61.992003 
L 81.749642 57.796464 
L 83.253907 54.186955 
L 84.758173 51.105778 
L 86.262438 48.500532 
L 87.766703 46.323666 
L 89.270968 44.53206 
L 90.775234 43.086636 
L 92.279499 41.952005 
L 93.783764 41.096129 
L 95.288029 40.490029 
L 96.792295 40.107496 
L 98.547271 39.912302 
L 100.302247 39.955554 
L 102.057223 40.207329 
L 104.06291 40.716487 
L 106.319308 41.530284 
L 108.826417 42.683913 
L 111.584236 44.198983 
L 114.843478 46.249325 
L 118.854852 49.057175 
L 123.869069 52.859296 
L 131.390396 58.876824 
L 149.190868 73.197051 
L 157.715038 79.716792 
L 165.737786 85.567073 
L 173.509823 90.958163 
L 181.28186 96.080303 
L 189.304608 101.096356 
L 197.327357 105.85151 
L 205.600815 110.499184 
L 214.124985 115.034409 
L 222.899866 119.454047 
L 232.176168 123.872505 
L 241.703182 128.16024 
L 251.480906 132.318366 
L 261.760052 136.44644 
L 272.289909 140.437837 
L 283.321187 144.383077 
L 294.853888 148.270918 
L 305.885166 151.782094 
L 305.885166 151.782094 
" style="fill:none;stroke:#fbc15e;stroke-linecap:square;stroke-width:2;"/>
   </g>
   <g id="line2d_30">
    <path clip-path="url(#p013e3097c7)" d="M 55.425 151.859668 
L 64.701302 154.663769 
L 64.952013 154.627611 
L 65.704146 148.220671 
L 68.211255 125.73509 
L 69.966231 112.135238 
L 71.721207 100.278375 
L 73.476183 89.980416 
L 75.231159 81.072913 
L 76.986135 73.403994 
L 78.741112 66.837054 
L 80.245377 61.992003 
L 81.749642 57.796464 
L 83.253907 54.186955 
L 84.758173 51.105778 
L 86.262438 48.500532 
L 87.766703 46.323666 
L 89.270968 44.53206 
L 90.775234 43.086636 
L 92.279499 41.952005 
L 93.783764 41.096129 
L 95.288029 40.490029 
L 96.792295 40.107496 
L 98.547271 39.912302 
L 100.302247 39.955554 
L 102.057223 40.207329 
L 104.06291 40.716487 
L 106.319308 41.530284 
L 108.826417 42.683913 
L 111.584236 44.198983 
L 114.843478 46.249325 
L 118.854852 49.057175 
L 123.869069 52.859296 
L 131.390396 58.876824 
L 149.190868 73.197051 
L 157.715038 79.716792 
L 165.737786 85.567073 
L 173.509823 90.958163 
L 181.28186 96.080303 
L 189.304608 101.096356 
L 197.327357 105.85151 
L 205.600815 110.499184 
L 214.124985 115.034409 
L 222.899866 119.454047 
L 232.176168 123.872505 
L 241.703182 128.16024 
L 251.480906 132.318366 
L 261.760052 136.44644 
L 272.289909 140.437837 
L 283.321187 144.383077 
L 294.853888 148.270918 
L 305.885166 151.782094 
L 305.885166 151.782094 
" style="fill:none;stroke:#777777;stroke-linecap:square;stroke-width:2;"/>
   </g>
   <g id="patch_3">
    <path d="M 55.425 288.7875 
L 55.425 28.05 
" style="fill:none;stroke:#bcbcbc;stroke-linecap:square;stroke-linejoin:miter;stroke-width:0.8;"/>
   </g>
   <g id="patch_4">
    <path d="M 306.135877 288.7875 
L 306.135877 28.05 
" style="fill:none;stroke:#bcbcbc;stroke-linecap:square;stroke-linejoin:miter;stroke-width:0.8;"/>
   </g>
   <g id="patch_5">
    <path d="M 55.425 288.7875 
L 306.135877 288.7875 
" style="fill:none;stroke:#bcbcbc;stroke-linecap:square;stroke-linejoin:miter;stroke-width:0.8;"/>
   </g>
   <g id="patch_6">
    <path d="M 55.425 28.05 
L 306.135877 28.05 
" style="fill:none;stroke:#bcbcbc;stroke-linecap:square;stroke-linejoin:miter;stroke-width:0.8;"/>
   </g>
   <g id="text_15">
    <!-- linear -->
    <defs>
     <path d="M 9.421875 75.984375 
L 18.40625 75.984375 
L 18.40625 0 
L 9.421875 0 
z
" id="DejaVuSans-108"/>
     <path d="M 34.28125 27.484375 
Q 23.390625 27.484375 19.1875 25 
Q 14.984375 22.515625 14.984375 16.5 
Q 14.984375 11.71875 18.140625 8.90625 
Q 21.296875 6.109375 26.703125 6.109375 
Q 34.1875 6.109375 38.703125 11.40625 
Q 43.21875 16.703125 43.21875 25.484375 
L 43.21875 27.484375 
z
M 52.203125 31.203125 
L 52.203125 0 
L 43.21875 0 
L 43.21875 8.296875 
Q 40.140625 3.328125 35.546875 0.953125 
Q 30.953125 -1.421875 24.3125 -1.421875 
Q 15.921875 -1.421875 10.953125 3.296875 
Q 6 8.015625 6 15.921875 
Q 6 25.140625 12.171875 29.828125 
Q 18.359375 34.515625 30.609375 34.515625 
L 43.21875 34.515625 
L 43.21875 35.40625 
Q 43.21875 41.609375 39.140625 45 
Q 35.0625 48.390625 27.6875 48.390625 
Q 23 48.390625 18.546875 47.265625 
Q 14.109375 46.140625 10.015625 43.890625 
L 10.015625 52.203125 
Q 14.9375 54.109375 19.578125 55.046875 
Q 24.21875 56 28.609375 56 
Q 40.484375 56 46.34375 49.84375 
Q 52.203125 43.703125 52.203125 31.203125 
z
" id="DejaVuSans-97"/>
     <path d="M 41.109375 46.296875 
Q 39.59375 47.171875 37.8125 47.578125 
Q 36.03125 48 33.890625 48 
Q 26.265625 48 22.1875 43.046875 
Q 18.109375 38.09375 18.109375 28.8125 
L 18.109375 0 
L 9.078125 0 
L 9.078125 54.6875 
L 18.109375 54.6875 
L 18.109375 46.1875 
Q 20.953125 51.171875 25.484375 53.578125 
Q 30.03125 56 36.53125 56 
Q 37.453125 56 38.578125 55.875 
Q 39.703125 55.765625 41.0625 55.515625 
z
" id="DejaVuSans-114"/>
    </defs>
    <g transform="translate(160.414564 22.05)scale(0.144 -0.144)">
     <use xlink:href="#DejaVuSans-108"/>
     <use x="27.783203" xlink:href="#DejaVuSans-105"/>
     <use x="55.566406" xlink:href="#DejaVuSans-110"/>
     <use x="118.945312" xlink:href="#DejaVuSans-101"/>
     <use x="180.46875" xlink:href="#DejaVuSans-97"/>
     <use x="241.748047" xlink:href="#DejaVuSans-114"/>
    </g>
   </g>
   <g id="legend_1">
    <g id="patch_7">
     <path d="M 264.775877 104.905 
L 300.535877 104.905 
Q 302.135877 104.905 302.135877 103.305 
L 302.135877 33.65 
Q 302.135877 32.05 300.535877 32.05 
L 264.775877 32.05 
Q 263.175877 32.05 263.175877 33.65 
L 263.175877 103.305 
Q 263.175877 104.905 264.775877 104.905 
z
" style="fill:#eeeeee;opacity:0.8;stroke:#cccccc;stroke-linejoin:miter;stroke-width:0.5;"/>
    </g>
    <g id="line2d_31">
     <path d="M 266.375877 38.52875 
L 282.375877 38.52875 
" style="fill:none;stroke:#e24a33;stroke-linecap:square;stroke-width:2;"/>
    </g>
    <g id="line2d_32"/>
    <g id="text_16">
     <!-- 1x -->
     <defs>
      <path d="M 54.890625 54.6875 
L 35.109375 28.078125 
L 55.90625 0 
L 45.3125 0 
L 29.390625 21.484375 
L 13.484375 0 
L 2.875 0 
L 24.125 28.609375 
L 4.6875 54.6875 
L 15.28125 54.6875 
L 29.78125 35.203125 
L 44.28125 54.6875 
z
" id="DejaVuSans-120"/>
     </defs>
     <g transform="translate(288.775877 41.32875)scale(0.08 -0.08)">
      <use xlink:href="#DejaVuSans-49"/>
      <use x="63.623047" xlink:href="#DejaVuSans-120"/>
     </g>
    </g>
    <g id="line2d_33">
     <path d="M 266.375877 50.27125 
L 282.375877 50.27125 
" style="fill:none;stroke:#348abd;stroke-linecap:square;stroke-width:2;"/>
    </g>
    <g id="line2d_34"/>
    <g id="text_17">
     <!-- 1e -->
     <g transform="translate(288.775877 53.07125)scale(0.08 -0.08)">
      <use xlink:href="#DejaVuSans-49"/>
      <use x="63.623047" xlink:href="#DejaVuSans-101"/>
     </g>
    </g>
    <g id="line2d_35">
     <path d="M 266.375877 62.01375 
L 282.375877 62.01375 
" style="fill:none;stroke:#988ed5;stroke-linecap:square;stroke-width:2;"/>
    </g>
    <g id="line2d_36"/>
    <g id="text_18">
     <!-- 1h -->
     <defs>
      <path d="M 54.890625 33.015625 
L 54.890625 0 
L 45.90625 0 
L 45.90625 32.71875 
Q 45.90625 40.484375 42.875 44.328125 
Q 39.84375 48.1875 33.796875 48.1875 
Q 26.515625 48.1875 22.3125 43.546875 
Q 18.109375 38.921875 18.109375 30.90625 
L 18.109375 0 
L 9.078125 0 
L 9.078125 75.984375 
L 18.109375 75.984375 
L 18.109375 46.1875 
Q 21.34375 51.125 25.703125 53.5625 
Q 30.078125 56 35.796875 56 
Q 45.21875 56 50.046875 50.171875 
Q 54.890625 44.34375 54.890625 33.015625 
z
" id="DejaVuSans-104"/>
     </defs>
     <g transform="translate(288.775877 64.81375)scale(0.08 -0.08)">
      <use xlink:href="#DejaVuSans-49"/>
      <use x="63.623047" xlink:href="#DejaVuSans-104"/>
     </g>
    </g>
    <g id="line2d_37">
     <path d="M 266.375877 73.75625 
L 282.375877 73.75625 
" style="fill:none;stroke:#8eba42;stroke-linecap:square;stroke-width:2;"/>
    </g>
    <g id="line2d_38"/>
    <g id="text_19">
     <!-- 2x -->
     <g transform="translate(288.775877 76.55625)scale(0.08 -0.08)">
      <use xlink:href="#DejaVuSans-50"/>
      <use x="63.623047" xlink:href="#DejaVuSans-120"/>
     </g>
    </g>
    <g id="line2d_39">
     <path d="M 266.375877 85.49875 
L 282.375877 85.49875 
" style="fill:none;stroke:#fbc15e;stroke-linecap:square;stroke-width:2;"/>
    </g>
    <g id="line2d_40"/>
    <g id="text_20">
     <!-- 2e -->
     <g transform="translate(288.775877 88.29875)scale(0.08 -0.08)">
      <use xlink:href="#DejaVuSans-50"/>
      <use x="63.623047" xlink:href="#DejaVuSans-101"/>
     </g>
    </g>
    <g id="line2d_41">
     <path d="M 266.375877 97.24125 
L 282.375877 97.24125 
" style="fill:none;stroke:#777777;stroke-linecap:square;stroke-width:2;"/>
    </g>
    <g id="line2d_42"/>
    <g id="text_21">
     <!-- 2h -->
     <g transform="translate(288.775877 100.04125)scale(0.08 -0.08)">
      <use xlink:href="#DejaVuSans-50"/>
      <use x="63.623047" xlink:href="#DejaVuSans-104"/>
     </g>
    </g>
   </g>
  </g>
  <g id="axes_2">
   <g id="patch_8">
    <path d="M 364.957061 288.7875 
L 615.667939 288.7875 
L 615.667939 28.05 
L 364.957061 28.05 
z
" style="fill:#eeeeee;"/>
   </g>
   <g id="matplotlib.axis_3">
    <g id="xtick_8">
     <g id="line2d_43">
      <path clip-path="url(#p147f4d0aa1)" d="M 364.957061 288.7875 
L 364.957061 28.05 
" style="fill:none;stroke:#b2b2b2;stroke-dasharray:1.85,0.8;stroke-dashoffset:0;stroke-width:0.5;"/>
     </g>
     <g id="line2d_44">
      <g>
       <use style="fill-opacity:0;stroke:#000000;stroke-width:0.8;" x="364.957061" xlink:href="#m9eb9d35d82" y="288.7875"/>
      </g>
     </g>
     <g id="text_22">
      <!-- 0 -->
      <g transform="translate(361.775811 299.885938)scale(0.1 -0.1)">
       <use xlink:href="#DejaVuSans-48"/>
      </g>
     </g>
    </g>
    <g id="xtick_9">
     <g id="line2d_45">
      <path clip-path="url(#p147f4d0aa1)" d="M 405.070802 288.7875 
L 405.070802 28.05 
" style="fill:none;stroke:#b2b2b2;stroke-dasharray:1.85,0.8;stroke-dashoffset:0;stroke-width:0.5;"/>
     </g>
     <g id="line2d_46">
      <g>
       <use style="fill-opacity:0;stroke:#000000;stroke-width:0.8;" x="405.070802" xlink:href="#m9eb9d35d82" y="288.7875"/>
      </g>
     </g>
     <g id="text_23">
      <!-- 2 -->
      <g transform="translate(401.889552 299.885938)scale(0.1 -0.1)">
       <use xlink:href="#DejaVuSans-50"/>
      </g>
     </g>
    </g>
    <g id="xtick_10">
     <g id="line2d_47">
      <path clip-path="url(#p147f4d0aa1)" d="M 445.184542 288.7875 
L 445.184542 28.05 
" style="fill:none;stroke:#b2b2b2;stroke-dasharray:1.85,0.8;stroke-dashoffset:0;stroke-width:0.5;"/>
     </g>
     <g id="line2d_48">
      <g>
       <use style="fill-opacity:0;stroke:#000000;stroke-width:0.8;" x="445.184542" xlink:href="#m9eb9d35d82" y="288.7875"/>
      </g>
     </g>
     <g id="text_24">
      <!-- 4 -->
      <g transform="translate(442.003292 299.885938)scale(0.1 -0.1)">
       <use xlink:href="#DejaVuSans-52"/>
      </g>
     </g>
    </g>
    <g id="xtick_11">
     <g id="line2d_49">
      <path clip-path="url(#p147f4d0aa1)" d="M 485.298282 288.7875 
L 485.298282 28.05 
" style="fill:none;stroke:#b2b2b2;stroke-dasharray:1.85,0.8;stroke-dashoffset:0;stroke-width:0.5;"/>
     </g>
     <g id="line2d_50">
      <g>
       <use style="fill-opacity:0;stroke:#000000;stroke-width:0.8;" x="485.298282" xlink:href="#m9eb9d35d82" y="288.7875"/>
      </g>
     </g>
     <g id="text_25">
      <!-- 6 -->
      <g transform="translate(482.117032 299.885938)scale(0.1 -0.1)">
       <use xlink:href="#DejaVuSans-54"/>
      </g>
     </g>
    </g>
    <g id="xtick_12">
     <g id="line2d_51">
      <path clip-path="url(#p147f4d0aa1)" d="M 525.412023 288.7875 
L 525.412023 28.05 
" style="fill:none;stroke:#b2b2b2;stroke-dasharray:1.85,0.8;stroke-dashoffset:0;stroke-width:0.5;"/>
     </g>
     <g id="line2d_52">
      <g>
       <use style="fill-opacity:0;stroke:#000000;stroke-width:0.8;" x="525.412023" xlink:href="#m9eb9d35d82" y="288.7875"/>
      </g>
     </g>
     <g id="text_26">
      <!-- 8 -->
      <g transform="translate(522.230773 299.885938)scale(0.1 -0.1)">
       <use xlink:href="#DejaVuSans-56"/>
      </g>
     </g>
    </g>
    <g id="xtick_13">
     <g id="line2d_53">
      <path clip-path="url(#p147f4d0aa1)" d="M 565.525763 288.7875 
L 565.525763 28.05 
" style="fill:none;stroke:#b2b2b2;stroke-dasharray:1.85,0.8;stroke-dashoffset:0;stroke-width:0.5;"/>
     </g>
     <g id="line2d_54">
      <g>
       <use style="fill-opacity:0;stroke:#000000;stroke-width:0.8;" x="565.525763" xlink:href="#m9eb9d35d82" y="288.7875"/>
      </g>
     </g>
     <g id="text_27">
      <!-- 10 -->
      <g transform="translate(559.163263 299.885938)scale(0.1 -0.1)">
       <use xlink:href="#DejaVuSans-49"/>
       <use x="63.623047" xlink:href="#DejaVuSans-48"/>
      </g>
     </g>
    </g>
    <g id="xtick_14">
     <g id="line2d_55">
      <path clip-path="url(#p147f4d0aa1)" d="M 605.639504 288.7875 
L 605.639504 28.05 
" style="fill:none;stroke:#b2b2b2;stroke-dasharray:1.85,0.8;stroke-dashoffset:0;stroke-width:0.5;"/>
     </g>
     <g id="line2d_56">
      <g>
       <use style="fill-opacity:0;stroke:#000000;stroke-width:0.8;" x="605.639504" xlink:href="#m9eb9d35d82" y="288.7875"/>
      </g>
     </g>
     <g id="text_28">
      <!-- 12 -->
      <g transform="translate(599.277004 299.885938)scale(0.1 -0.1)">
       <use xlink:href="#DejaVuSans-49"/>
       <use x="63.623047" xlink:href="#DejaVuSans-50"/>
      </g>
     </g>
    </g>
    <g id="text_29">
     <!-- Time (ns) -->
     <g transform="translate(461.930625 315.08375)scale(0.12 -0.12)">
      <use xlink:href="#DejaVuSans-84"/>
      <use x="61.037109" xlink:href="#DejaVuSans-105"/>
      <use x="88.820312" xlink:href="#DejaVuSans-109"/>
      <use x="186.232422" xlink:href="#DejaVuSans-101"/>
      <use x="247.755859" xlink:href="#DejaVuSans-32"/>
      <use x="279.542969" xlink:href="#DejaVuSans-40"/>
      <use x="318.556641" xlink:href="#DejaVuSans-110"/>
      <use x="381.935547" xlink:href="#DejaVuSans-115"/>
      <use x="434.035156" xlink:href="#DejaVuSans-41"/>
     </g>
    </g>
   </g>
   <g id="matplotlib.axis_4">
    <g id="ytick_6">
     <g id="line2d_57">
      <path clip-path="url(#p147f4d0aa1)" d="M 364.957061 259.433207 
L 615.667939 259.433207 
" style="fill:none;stroke:#b2b2b2;stroke-dasharray:1.85,0.8;stroke-dashoffset:0;stroke-width:0.5;"/>
     </g>
     <g id="line2d_58">
      <g>
       <use style="fill-opacity:0;stroke:#000000;stroke-width:0.8;" x="364.957061" xlink:href="#m310d43df09" y="259.433207"/>
      </g>
     </g>
     <g id="text_30">
      <!-- $\mathdefault{10^{-195}}$ -->
      <defs>
       <path d="M 4.890625 31.390625 
L 31.203125 31.390625 
L 31.203125 23.390625 
L 4.890625 23.390625 
z
" id="DejaVuSans-45"/>
       <path d="M 10.984375 1.515625 
L 10.984375 10.5 
Q 14.703125 8.734375 18.5 7.8125 
Q 22.3125 6.890625 25.984375 6.890625 
Q 35.75 6.890625 40.890625 13.453125 
Q 46.046875 20.015625 46.78125 33.40625 
Q 43.953125 29.203125 39.59375 26.953125 
Q 35.25 24.703125 29.984375 24.703125 
Q 19.046875 24.703125 12.671875 31.3125 
Q 6.296875 37.9375 6.296875 49.421875 
Q 6.296875 60.640625 12.9375 67.421875 
Q 19.578125 74.21875 30.609375 74.21875 
Q 43.265625 74.21875 49.921875 64.515625 
Q 56.59375 54.828125 56.59375 36.375 
Q 56.59375 19.140625 48.40625 8.859375 
Q 40.234375 -1.421875 26.421875 -1.421875 
Q 22.703125 -1.421875 18.890625 -0.6875 
Q 15.09375 0.046875 10.984375 1.515625 
z
M 30.609375 32.421875 
Q 37.25 32.421875 41.125 36.953125 
Q 45.015625 41.5 45.015625 49.421875 
Q 45.015625 57.28125 41.125 61.84375 
Q 37.25 66.40625 30.609375 66.40625 
Q 23.96875 66.40625 20.09375 61.84375 
Q 16.21875 57.28125 16.21875 49.421875 
Q 16.21875 41.5 20.09375 36.953125 
Q 23.96875 32.421875 30.609375 32.421875 
z
" id="DejaVuSans-57"/>
       <path d="M 10.796875 72.90625 
L 49.515625 72.90625 
L 49.515625 64.59375 
L 19.828125 64.59375 
L 19.828125 46.734375 
Q 21.96875 47.46875 24.109375 47.828125 
Q 26.265625 48.1875 28.421875 48.1875 
Q 40.625 48.1875 47.75 41.5 
Q 54.890625 34.8125 54.890625 23.390625 
Q 54.890625 11.625 47.5625 5.09375 
Q 40.234375 -1.421875 26.90625 -1.421875 
Q 22.3125 -1.421875 17.546875 -0.640625 
Q 12.796875 0.140625 7.71875 1.703125 
L 7.71875 11.625 
Q 12.109375 9.234375 16.796875 8.0625 
Q 21.484375 6.890625 26.703125 6.890625 
Q 35.15625 6.890625 40.078125 11.328125 
Q 45.015625 15.765625 45.015625 23.390625 
Q 45.015625 31 40.078125 35.4375 
Q 35.15625 39.890625 26.703125 39.890625 
Q 22.75 39.890625 18.8125 39.015625 
Q 14.890625 38.140625 10.796875 36.28125 
z
" id="DejaVuSans-53"/>
      </defs>
      <g transform="translate(332.457061 263.232426)scale(0.1 -0.1)">
       <use transform="translate(0 0.765625)" xlink:href="#DejaVuSans-49"/>
       <use transform="translate(63.623047 0.765625)" xlink:href="#DejaVuSans-48"/>
       <use transform="translate(128.203125 39.046875)scale(0.7)" xlink:href="#DejaVuSans-45"/>
       <use transform="translate(153.461914 39.046875)scale(0.7)" xlink:href="#DejaVuSans-49"/>
       <use transform="translate(197.998047 39.046875)scale(0.7)" xlink:href="#DejaVuSans-57"/>
       <use transform="translate(242.53418 39.046875)scale(0.7)" xlink:href="#DejaVuSans-53"/>
      </g>
     </g>
    </g>
    <g id="ytick_7">
     <g id="line2d_59">
      <path clip-path="url(#p147f4d0aa1)" d="M 364.957061 229.637273 
L 615.667939 229.637273 
" style="fill:none;stroke:#b2b2b2;stroke-dasharray:1.85,0.8;stroke-dashoffset:0;stroke-width:0.5;"/>
     </g>
     <g id="line2d_60">
      <g>
       <use style="fill-opacity:0;stroke:#000000;stroke-width:0.8;" x="364.957061" xlink:href="#m310d43df09" y="229.637273"/>
      </g>
     </g>
     <g id="text_31">
      <!-- $\mathdefault{10^{-168}}$ -->
      <g transform="translate(332.457061 233.436492)scale(0.1 -0.1)">
       <use transform="translate(0 0.765625)" xlink:href="#DejaVuSans-49"/>
       <use transform="translate(63.623047 0.765625)" xlink:href="#DejaVuSans-48"/>
       <use transform="translate(128.203125 39.046875)scale(0.7)" xlink:href="#DejaVuSans-45"/>
       <use transform="translate(153.461914 39.046875)scale(0.7)" xlink:href="#DejaVuSans-49"/>
       <use transform="translate(197.998047 39.046875)scale(0.7)" xlink:href="#DejaVuSans-54"/>
       <use transform="translate(242.53418 39.046875)scale(0.7)" xlink:href="#DejaVuSans-56"/>
      </g>
     </g>
    </g>
    <g id="ytick_8">
     <g id="line2d_61">
      <path clip-path="url(#p147f4d0aa1)" d="M 364.957061 199.841339 
L 615.667939 199.841339 
" style="fill:none;stroke:#b2b2b2;stroke-dasharray:1.85,0.8;stroke-dashoffset:0;stroke-width:0.5;"/>
     </g>
     <g id="line2d_62">
      <g>
       <use style="fill-opacity:0;stroke:#000000;stroke-width:0.8;" x="364.957061" xlink:href="#m310d43df09" y="199.841339"/>
      </g>
     </g>
     <g id="text_32">
      <!-- $\mathdefault{10^{-141}}$ -->
      <g transform="translate(332.457061 203.640558)scale(0.1 -0.1)">
       <use transform="translate(0 0.684375)" xlink:href="#DejaVuSans-49"/>
       <use transform="translate(63.623047 0.684375)" xlink:href="#DejaVuSans-48"/>
       <use transform="translate(128.203125 38.965625)scale(0.7)" xlink:href="#DejaVuSans-45"/>
       <use transform="translate(153.461914 38.965625)scale(0.7)" xlink:href="#DejaVuSans-49"/>
       <use transform="translate(197.998047 38.965625)scale(0.7)" xlink:href="#DejaVuSans-52"/>
       <use transform="translate(242.53418 38.965625)scale(0.7)" xlink:href="#DejaVuSans-49"/>
      </g>
     </g>
    </g>
    <g id="ytick_9">
     <g id="line2d_63">
      <path clip-path="url(#p147f4d0aa1)" d="M 364.957061 170.045406 
L 615.667939 170.045406 
" style="fill:none;stroke:#b2b2b2;stroke-dasharray:1.85,0.8;stroke-dashoffset:0;stroke-width:0.5;"/>
     </g>
     <g id="line2d_64">
      <g>
       <use style="fill-opacity:0;stroke:#000000;stroke-width:0.8;" x="364.957061" xlink:href="#m310d43df09" y="170.045406"/>
      </g>
     </g>
     <g id="text_33">
      <!-- $\mathdefault{10^{-114}}$ -->
      <g transform="translate(332.457061 173.844624)scale(0.1 -0.1)">
       <use transform="translate(0 0.684375)" xlink:href="#DejaVuSans-49"/>
       <use transform="translate(63.623047 0.684375)" xlink:href="#DejaVuSans-48"/>
       <use transform="translate(128.203125 38.965625)scale(0.7)" xlink:href="#DejaVuSans-45"/>
       <use transform="translate(153.461914 38.965625)scale(0.7)" xlink:href="#DejaVuSans-49"/>
       <use transform="translate(197.998047 38.965625)scale(0.7)" xlink:href="#DejaVuSans-49"/>
       <use transform="translate(242.53418 38.965625)scale(0.7)" xlink:href="#DejaVuSans-52"/>
      </g>
     </g>
    </g>
    <g id="ytick_10">
     <g id="line2d_65">
      <path clip-path="url(#p147f4d0aa1)" d="M 364.957061 140.249472 
L 615.667939 140.249472 
" style="fill:none;stroke:#b2b2b2;stroke-dasharray:1.85,0.8;stroke-dashoffset:0;stroke-width:0.5;"/>
     </g>
     <g id="line2d_66">
      <g>
       <use style="fill-opacity:0;stroke:#000000;stroke-width:0.8;" x="364.957061" xlink:href="#m310d43df09" y="140.249472"/>
      </g>
     </g>
     <g id="text_34">
      <!-- $\mathdefault{10^{-87}}$ -->
      <defs>
       <path d="M 8.203125 72.90625 
L 55.078125 72.90625 
L 55.078125 68.703125 
L 28.609375 0 
L 18.3125 0 
L 43.21875 64.59375 
L 8.203125 64.59375 
z
" id="DejaVuSans-55"/>
      </defs>
      <g transform="translate(336.857061 144.048691)scale(0.1 -0.1)">
       <use transform="translate(0 0.765625)" xlink:href="#DejaVuSans-49"/>
       <use transform="translate(63.623047 0.765625)" xlink:href="#DejaVuSans-48"/>
       <use transform="translate(128.203125 39.046875)scale(0.7)" xlink:href="#DejaVuSans-45"/>
       <use transform="translate(153.461914 39.046875)scale(0.7)" xlink:href="#DejaVuSans-56"/>
       <use transform="translate(197.998047 39.046875)scale(0.7)" xlink:href="#DejaVuSans-55"/>
      </g>
     </g>
    </g>
    <g id="ytick_11">
     <g id="line2d_67">
      <path clip-path="url(#p147f4d0aa1)" d="M 364.957061 110.453538 
L 615.667939 110.453538 
" style="fill:none;stroke:#b2b2b2;stroke-dasharray:1.85,0.8;stroke-dashoffset:0;stroke-width:0.5;"/>
     </g>
     <g id="line2d_68">
      <g>
       <use style="fill-opacity:0;stroke:#000000;stroke-width:0.8;" x="364.957061" xlink:href="#m310d43df09" y="110.453538"/>
      </g>
     </g>
     <g id="text_35">
      <!-- $\mathdefault{10^{-60}}$ -->
      <g transform="translate(336.857061 114.252757)scale(0.1 -0.1)">
       <use transform="translate(0 0.765625)" xlink:href="#DejaVuSans-49"/>
       <use transform="translate(63.623047 0.765625)" xlink:href="#DejaVuSans-48"/>
       <use transform="translate(128.203125 39.046875)scale(0.7)" xlink:href="#DejaVuSans-45"/>
       <use transform="translate(153.461914 39.046875)scale(0.7)" xlink:href="#DejaVuSans-54"/>
       <use transform="translate(197.998047 39.046875)scale(0.7)" xlink:href="#DejaVuSans-48"/>
      </g>
     </g>
    </g>
    <g id="ytick_12">
     <g id="line2d_69">
      <path clip-path="url(#p147f4d0aa1)" d="M 364.957061 80.657604 
L 615.667939 80.657604 
" style="fill:none;stroke:#b2b2b2;stroke-dasharray:1.85,0.8;stroke-dashoffset:0;stroke-width:0.5;"/>
     </g>
     <g id="line2d_70">
      <g>
       <use style="fill-opacity:0;stroke:#000000;stroke-width:0.8;" x="364.957061" xlink:href="#m310d43df09" y="80.657604"/>
      </g>
     </g>
     <g id="text_36">
      <!-- $\mathdefault{10^{-33}}$ -->
      <defs>
       <path d="M 40.578125 39.3125 
Q 47.65625 37.796875 51.625 33 
Q 55.609375 28.21875 55.609375 21.1875 
Q 55.609375 10.40625 48.1875 4.484375 
Q 40.765625 -1.421875 27.09375 -1.421875 
Q 22.515625 -1.421875 17.65625 -0.515625 
Q 12.796875 0.390625 7.625 2.203125 
L 7.625 11.71875 
Q 11.71875 9.328125 16.59375 8.109375 
Q 21.484375 6.890625 26.8125 6.890625 
Q 36.078125 6.890625 40.9375 10.546875 
Q 45.796875 14.203125 45.796875 21.1875 
Q 45.796875 27.640625 41.28125 31.265625 
Q 36.765625 34.90625 28.71875 34.90625 
L 20.21875 34.90625 
L 20.21875 43.015625 
L 29.109375 43.015625 
Q 36.375 43.015625 40.234375 45.921875 
Q 44.09375 48.828125 44.09375 54.296875 
Q 44.09375 59.90625 40.109375 62.90625 
Q 36.140625 65.921875 28.71875 65.921875 
Q 24.65625 65.921875 20.015625 65.03125 
Q 15.375 64.15625 9.8125 62.3125 
L 9.8125 71.09375 
Q 15.4375 72.65625 20.34375 73.4375 
Q 25.25 74.21875 29.59375 74.21875 
Q 40.828125 74.21875 47.359375 69.109375 
Q 53.90625 64.015625 53.90625 55.328125 
Q 53.90625 49.265625 50.4375 45.09375 
Q 46.96875 40.921875 40.578125 39.3125 
z
" id="DejaVuSans-51"/>
      </defs>
      <g transform="translate(336.857061 84.456823)scale(0.1 -0.1)">
       <use transform="translate(0 0.765625)" xlink:href="#DejaVuSans-49"/>
       <use transform="translate(63.623047 0.765625)" xlink:href="#DejaVuSans-48"/>
       <use transform="translate(128.203125 39.046875)scale(0.7)" xlink:href="#DejaVuSans-45"/>
       <use transform="translate(153.461914 39.046875)scale(0.7)" xlink:href="#DejaVuSans-51"/>
       <use transform="translate(197.998047 39.046875)scale(0.7)" xlink:href="#DejaVuSans-51"/>
      </g>
     </g>
    </g>
    <g id="ytick_13">
     <g id="line2d_71">
      <path clip-path="url(#p147f4d0aa1)" d="M 364.957061 50.86167 
L 615.667939 50.86167 
" style="fill:none;stroke:#b2b2b2;stroke-dasharray:1.85,0.8;stroke-dashoffset:0;stroke-width:0.5;"/>
     </g>
     <g id="line2d_72">
      <g>
       <use style="fill-opacity:0;stroke:#000000;stroke-width:0.8;" x="364.957061" xlink:href="#m310d43df09" y="50.86167"/>
      </g>
     </g>
     <g id="text_37">
      <!-- $\mathdefault{10^{-6}}$ -->
      <g transform="translate(341.357061 54.660889)scale(0.1 -0.1)">
       <use transform="translate(0 0.765625)" xlink:href="#DejaVuSans-49"/>
       <use transform="translate(63.623047 0.765625)" xlink:href="#DejaVuSans-48"/>
       <use transform="translate(128.203125 39.046875)scale(0.7)" xlink:href="#DejaVuSans-45"/>
       <use transform="translate(153.461914 39.046875)scale(0.7)" xlink:href="#DejaVuSans-54"/>
      </g>
     </g>
    </g>
    <g id="text_38">
     <!-- Counts -->
     <g transform="translate(325.961436 179.3625)rotate(-90)scale(0.12 -0.12)">
      <use xlink:href="#DejaVuSans-67"/>
      <use x="69.824219" xlink:href="#DejaVuSans-111"/>
      <use x="131.005859" xlink:href="#DejaVuSans-117"/>
      <use x="194.384766" xlink:href="#DejaVuSans-110"/>
      <use x="257.763672" xlink:href="#DejaVuSans-116"/>
      <use x="296.972656" xlink:href="#DejaVuSans-115"/>
     </g>
    </g>
   </g>
   <g id="line2d_73">
    <path clip-path="url(#p147f4d0aa1)" d="M 364.957061 268.166139 
L 374.233364 276.935795 
L 374.484075 40.155074 
L 615.417228 267.929121 
L 615.417228 267.929121 
" style="fill:none;stroke:#e24a33;stroke-linecap:square;stroke-width:2;"/>
   </g>
   <g id="line2d_74">
    <path clip-path="url(#p147f4d0aa1)" d="M 364.957061 41.897106 
L 374.484075 41.915341 
L 374.734786 40.775447 
L 375.236207 40.47911 
L 376.239051 40.411152 
L 383.760377 40.648273 
L 399.304452 40.942216 
L 428.136202 41.236141 
L 481.286908 41.529172 
L 579.314861 41.822068 
L 615.417228 41.896627 
L 615.417228 41.896627 
" style="fill:none;stroke:#348abd;stroke-linecap:square;stroke-width:2;"/>
   </g>
   <g id="line2d_75">
    <path clip-path="url(#p147f4d0aa1)" d="M 364.957061 41.897106 
L 374.484075 41.915341 
L 374.734786 40.775447 
L 375.236207 40.47911 
L 376.239051 40.411152 
L 383.760377 40.648273 
L 399.304452 40.942216 
L 428.136202 41.236141 
L 481.286908 41.529172 
L 579.314861 41.822068 
L 615.417228 41.896627 
L 615.417228 41.896627 
" style="fill:none;stroke:#988ed5;stroke-linecap:square;stroke-width:2;"/>
   </g>
   <g id="line2d_76">
    <path clip-path="url(#p147f4d0aa1)" d="M 364.957061 47.742813 
L 374.233364 48.039905 
L 374.484075 40.155074 
L 375.486918 40.068454 
L 379.999714 40.195071 
L 615.417228 47.734783 
L 615.417228 47.734783 
" style="fill:none;stroke:#8eba42;stroke-linecap:square;stroke-width:2;"/>
   </g>
   <g id="line2d_77">
    <path clip-path="url(#p147f4d0aa1)" d="M 364.957061 40.208091 
L 377.743316 40.117181 
L 388.022462 39.961518 
L 409.332887 39.901743 
L 485.298282 40.021883 
L 615.417228 40.207794 
L 615.417228 40.207794 
" style="fill:none;stroke:#fbc15e;stroke-linecap:square;stroke-width:2;"/>
   </g>
   <g id="line2d_78">
    <path clip-path="url(#p147f4d0aa1)" d="M 364.957061 40.208091 
L 377.743316 40.117181 
L 388.022462 39.961518 
L 409.332887 39.901743 
L 485.298282 40.021883 
L 615.417228 40.207794 
L 615.417228 40.207794 
" style="fill:none;stroke:#777777;stroke-linecap:square;stroke-width:2;"/>
   </g>
   <g id="patch_9">
    <path d="M 364.957061 288.7875 
L 364.957061 28.05 
" style="fill:none;stroke:#bcbcbc;stroke-linecap:square;stroke-linejoin:miter;stroke-width:0.8;"/>
   </g>
   <g id="patch_10">
    <path d="M 615.667939 288.7875 
L 615.667939 28.05 
" style="fill:none;stroke:#bcbcbc;stroke-linecap:square;stroke-linejoin:miter;stroke-width:0.8;"/>
   </g>
   <g id="patch_11">
    <path d="M 364.957061 288.7875 
L 615.667939 288.7875 
" style="fill:none;stroke:#bcbcbc;stroke-linecap:square;stroke-linejoin:miter;stroke-width:0.8;"/>
   </g>
   <g id="patch_12">
    <path d="M 364.957061 28.05 
L 615.667939 28.05 
" style="fill:none;stroke:#bcbcbc;stroke-linecap:square;stroke-linejoin:miter;stroke-width:0.8;"/>
   </g>
   <g id="text_39">
    <!-- log-linear -->
    <defs>
     <path d="M 45.40625 27.984375 
Q 45.40625 37.75 41.375 43.109375 
Q 37.359375 48.484375 30.078125 48.484375 
Q 22.859375 48.484375 18.828125 43.109375 
Q 14.796875 37.75 14.796875 27.984375 
Q 14.796875 18.265625 18.828125 12.890625 
Q 22.859375 7.515625 30.078125 7.515625 
Q 37.359375 7.515625 41.375 12.890625 
Q 45.40625 18.265625 45.40625 27.984375 
z
M 54.390625 6.78125 
Q 54.390625 -7.171875 48.1875 -13.984375 
Q 42 -20.796875 29.203125 -20.796875 
Q 24.46875 -20.796875 20.265625 -20.09375 
Q 16.0625 -19.390625 12.109375 -17.921875 
L 12.109375 -9.1875 
Q 16.0625 -11.328125 19.921875 -12.34375 
Q 23.78125 -13.375 27.78125 -13.375 
Q 36.625 -13.375 41.015625 -8.765625 
Q 45.40625 -4.15625 45.40625 5.171875 
L 45.40625 9.625 
Q 42.625 4.78125 38.28125 2.390625 
Q 33.9375 0 27.875 0 
Q 17.828125 0 11.671875 7.65625 
Q 5.515625 15.328125 5.515625 27.984375 
Q 5.515625 40.671875 11.671875 48.328125 
Q 17.828125 56 27.875 56 
Q 33.9375 56 38.28125 53.609375 
Q 42.625 51.21875 45.40625 46.390625 
L 45.40625 54.6875 
L 54.390625 54.6875 
z
" id="DejaVuSans-103"/>
    </defs>
    <g transform="translate(456.372375 22.05)scale(0.144 -0.144)">
     <use xlink:href="#DejaVuSans-108"/>
     <use x="27.783203" xlink:href="#DejaVuSans-111"/>
     <use x="88.964844" xlink:href="#DejaVuSans-103"/>
     <use x="152.441406" xlink:href="#DejaVuSans-45"/>
     <use x="188.525391" xlink:href="#DejaVuSans-108"/>
     <use x="216.308594" xlink:href="#DejaVuSans-105"/>
     <use x="244.091797" xlink:href="#DejaVuSans-110"/>
     <use x="307.470703" xlink:href="#DejaVuSans-101"/>
     <use x="368.994141" xlink:href="#DejaVuSans-97"/>
     <use x="430.273438" xlink:href="#DejaVuSans-114"/>
    </g>
   </g>
  </g>
  <g id="axes_3">
   <g id="patch_13">
    <path d="M 674.489123 288.7875 
L 925.2 288.7875 
L 925.2 28.05 
L 674.489123 28.05 
z
" style="fill:#eeeeee;"/>
   </g>
   <g id="matplotlib.axis_5">
    <g id="xtick_15">
     <g id="line2d_79">
      <path clip-path="url(#p2abb4c310f)" d="M 674.489123 288.7875 
L 674.489123 28.05 
" style="fill:none;stroke:#b2b2b2;stroke-dasharray:1.85,0.8;stroke-dashoffset:0;stroke-width:0.5;"/>
     </g>
     <g id="line2d_80">
      <g>
       <use style="fill-opacity:0;stroke:#000000;stroke-width:0.8;" x="674.489123" xlink:href="#m9eb9d35d82" y="288.7875"/>
      </g>
     </g>
     <g id="text_40">
      <!-- $\mathdefault{10^{-1}}$ -->
      <g transform="translate(664.439123 299.885938)scale(0.1 -0.1)">
       <use transform="translate(0 0.684375)" xlink:href="#DejaVuSans-49"/>
       <use transform="translate(63.623047 0.684375)" xlink:href="#DejaVuSans-48"/>
       <use transform="translate(128.203125 38.965625)scale(0.7)" xlink:href="#DejaVuSans-45"/>
       <use transform="translate(153.461914 38.965625)scale(0.7)" xlink:href="#DejaVuSans-49"/>
      </g>
     </g>
    </g>
    <g id="xtick_16">
     <g id="line2d_81">
      <path clip-path="url(#p2abb4c310f)" d="M 794.051181 288.7875 
L 794.051181 28.05 
" style="fill:none;stroke:#b2b2b2;stroke-dasharray:1.85,0.8;stroke-dashoffset:0;stroke-width:0.5;"/>
     </g>
     <g id="line2d_82">
      <g>
       <use style="fill-opacity:0;stroke:#000000;stroke-width:0.8;" x="794.051181" xlink:href="#m9eb9d35d82" y="288.7875"/>
      </g>
     </g>
     <g id="text_41">
      <!-- $\mathdefault{10^{0}}$ -->
      <g transform="translate(785.251181 299.885938)scale(0.1 -0.1)">
       <use transform="translate(0 0.765625)" xlink:href="#DejaVuSans-49"/>
       <use transform="translate(63.623047 0.765625)" xlink:href="#DejaVuSans-48"/>
       <use transform="translate(128.203125 39.046875)scale(0.7)" xlink:href="#DejaVuSans-48"/>
      </g>
     </g>
    </g>
    <g id="xtick_17">
     <g id="line2d_83">
      <path clip-path="url(#p2abb4c310f)" d="M 913.613239 288.7875 
L 913.613239 28.05 
" style="fill:none;stroke:#b2b2b2;stroke-dasharray:1.85,0.8;stroke-dashoffset:0;stroke-width:0.5;"/>
     </g>
     <g id="line2d_84">
      <g>
       <use style="fill-opacity:0;stroke:#000000;stroke-width:0.8;" x="913.613239" xlink:href="#m9eb9d35d82" y="288.7875"/>
      </g>
     </g>
     <g id="text_42">
      <!-- $\mathdefault{10^{1}}$ -->
      <g transform="translate(904.813239 299.885938)scale(0.1 -0.1)">
       <use transform="translate(0 0.684375)" xlink:href="#DejaVuSans-49"/>
       <use transform="translate(63.623047 0.684375)" xlink:href="#DejaVuSans-48"/>
       <use transform="translate(128.203125 38.965625)scale(0.7)" xlink:href="#DejaVuSans-49"/>
      </g>
     </g>
    </g>
    <g id="xtick_18">
     <g id="line2d_85">
      <defs>
       <path d="M 0 0 
L 0 -2 
" id="m260962cdfe" style="stroke:#000000;stroke-width:0.6;"/>
      </defs>
      <g>
       <use style="fill-opacity:0;stroke:#000000;stroke-width:0.6;" x="710.480889" xlink:href="#m260962cdfe" y="288.7875"/>
      </g>
     </g>
    </g>
    <g id="xtick_19">
     <g id="line2d_86">
      <g>
       <use style="fill-opacity:0;stroke:#000000;stroke-width:0.6;" x="731.534722" xlink:href="#m260962cdfe" y="288.7875"/>
      </g>
     </g>
    </g>
    <g id="xtick_20">
     <g id="line2d_87">
      <g>
       <use style="fill-opacity:0;stroke:#000000;stroke-width:0.6;" x="746.472655" xlink:href="#m260962cdfe" y="288.7875"/>
      </g>
     </g>
    </g>
    <g id="xtick_21">
     <g id="line2d_88">
      <g>
       <use style="fill-opacity:0;stroke:#000000;stroke-width:0.6;" x="758.059415" xlink:href="#m260962cdfe" y="288.7875"/>
      </g>
     </g>
    </g>
    <g id="xtick_22">
     <g id="line2d_89">
      <g>
       <use style="fill-opacity:0;stroke:#000000;stroke-width:0.6;" x="767.526488" xlink:href="#m260962cdfe" y="288.7875"/>
      </g>
     </g>
    </g>
    <g id="xtick_23">
     <g id="line2d_90">
      <g>
       <use style="fill-opacity:0;stroke:#000000;stroke-width:0.6;" x="775.530784" xlink:href="#m260962cdfe" y="288.7875"/>
      </g>
     </g>
    </g>
    <g id="xtick_24">
     <g id="line2d_91">
      <g>
       <use style="fill-opacity:0;stroke:#000000;stroke-width:0.6;" x="782.46442" xlink:href="#m260962cdfe" y="288.7875"/>
      </g>
     </g>
    </g>
    <g id="xtick_25">
     <g id="line2d_92">
      <g>
       <use style="fill-opacity:0;stroke:#000000;stroke-width:0.6;" x="788.580321" xlink:href="#m260962cdfe" y="288.7875"/>
      </g>
     </g>
    </g>
    <g id="xtick_26">
     <g id="line2d_93">
      <g>
       <use style="fill-opacity:0;stroke:#000000;stroke-width:0.6;" x="830.042947" xlink:href="#m260962cdfe" y="288.7875"/>
      </g>
     </g>
    </g>
    <g id="xtick_27">
     <g id="line2d_94">
      <g>
       <use style="fill-opacity:0;stroke:#000000;stroke-width:0.6;" x="851.09678" xlink:href="#m260962cdfe" y="288.7875"/>
      </g>
     </g>
    </g>
    <g id="xtick_28">
     <g id="line2d_95">
      <g>
       <use style="fill-opacity:0;stroke:#000000;stroke-width:0.6;" x="866.034713" xlink:href="#m260962cdfe" y="288.7875"/>
      </g>
     </g>
    </g>
    <g id="xtick_29">
     <g id="line2d_96">
      <g>
       <use style="fill-opacity:0;stroke:#000000;stroke-width:0.6;" x="877.621473" xlink:href="#m260962cdfe" y="288.7875"/>
      </g>
     </g>
    </g>
    <g id="xtick_30">
     <g id="line2d_97">
      <g>
       <use style="fill-opacity:0;stroke:#000000;stroke-width:0.6;" x="887.088546" xlink:href="#m260962cdfe" y="288.7875"/>
      </g>
     </g>
    </g>
    <g id="xtick_31">
     <g id="line2d_98">
      <g>
       <use style="fill-opacity:0;stroke:#000000;stroke-width:0.6;" x="895.092842" xlink:href="#m260962cdfe" y="288.7875"/>
      </g>
     </g>
    </g>
    <g id="xtick_32">
     <g id="line2d_99">
      <g>
       <use style="fill-opacity:0;stroke:#000000;stroke-width:0.6;" x="902.026479" xlink:href="#m260962cdfe" y="288.7875"/>
      </g>
     </g>
    </g>
    <g id="xtick_33">
     <g id="line2d_100">
      <g>
       <use style="fill-opacity:0;stroke:#000000;stroke-width:0.6;" x="908.14238" xlink:href="#m260962cdfe" y="288.7875"/>
      </g>
     </g>
    </g>
    <g id="text_43">
     <!-- Time (ns) -->
     <g transform="translate(771.462686 315.08375)scale(0.12 -0.12)">
      <use xlink:href="#DejaVuSans-84"/>
      <use x="61.037109" xlink:href="#DejaVuSans-105"/>
      <use x="88.820312" xlink:href="#DejaVuSans-109"/>
      <use x="186.232422" xlink:href="#DejaVuSans-101"/>
      <use x="247.755859" xlink:href="#DejaVuSans-32"/>
      <use x="279.542969" xlink:href="#DejaVuSans-40"/>
      <use x="318.556641" xlink:href="#DejaVuSans-110"/>
      <use x="381.935547" xlink:href="#DejaVuSans-115"/>
      <use x="434.035156" xlink:href="#DejaVuSans-41"/>
     </g>
    </g>
   </g>
   <g id="matplotlib.axis_6">
    <g id="ytick_14">
     <g id="line2d_101">
      <path clip-path="url(#p2abb4c310f)" d="M 674.489123 259.433207 
L 925.2 259.433207 
" style="fill:none;stroke:#b2b2b2;stroke-dasharray:1.85,0.8;stroke-dashoffset:0;stroke-width:0.5;"/>
     </g>
     <g id="line2d_102">
      <g>
       <use style="fill-opacity:0;stroke:#000000;stroke-width:0.8;" x="674.489123" xlink:href="#m310d43df09" y="259.433207"/>
      </g>
     </g>
     <g id="text_44">
      <!-- $\mathdefault{10^{-195}}$ -->
      <g transform="translate(641.989123 263.232426)scale(0.1 -0.1)">
       <use transform="translate(0 0.765625)" xlink:href="#DejaVuSans-49"/>
       <use transform="translate(63.623047 0.765625)" xlink:href="#DejaVuSans-48"/>
       <use transform="translate(128.203125 39.046875)scale(0.7)" xlink:href="#DejaVuSans-45"/>
       <use transform="translate(153.461914 39.046875)scale(0.7)" xlink:href="#DejaVuSans-49"/>
       <use transform="translate(197.998047 39.046875)scale(0.7)" xlink:href="#DejaVuSans-57"/>
       <use transform="translate(242.53418 39.046875)scale(0.7)" xlink:href="#DejaVuSans-53"/>
      </g>
     </g>
    </g>
    <g id="ytick_15">
     <g id="line2d_103">
      <path clip-path="url(#p2abb4c310f)" d="M 674.489123 229.637273 
L 925.2 229.637273 
" style="fill:none;stroke:#b2b2b2;stroke-dasharray:1.85,0.8;stroke-dashoffset:0;stroke-width:0.5;"/>
     </g>
     <g id="line2d_104">
      <g>
       <use style="fill-opacity:0;stroke:#000000;stroke-width:0.8;" x="674.489123" xlink:href="#m310d43df09" y="229.637273"/>
      </g>
     </g>
     <g id="text_45">
      <!-- $\mathdefault{10^{-168}}$ -->
      <g transform="translate(641.989123 233.436492)scale(0.1 -0.1)">
       <use transform="translate(0 0.765625)" xlink:href="#DejaVuSans-49"/>
       <use transform="translate(63.623047 0.765625)" xlink:href="#DejaVuSans-48"/>
       <use transform="translate(128.203125 39.046875)scale(0.7)" xlink:href="#DejaVuSans-45"/>
       <use transform="translate(153.461914 39.046875)scale(0.7)" xlink:href="#DejaVuSans-49"/>
       <use transform="translate(197.998047 39.046875)scale(0.7)" xlink:href="#DejaVuSans-54"/>
       <use transform="translate(242.53418 39.046875)scale(0.7)" xlink:href="#DejaVuSans-56"/>
      </g>
     </g>
    </g>
    <g id="ytick_16">
     <g id="line2d_105">
      <path clip-path="url(#p2abb4c310f)" d="M 674.489123 199.841339 
L 925.2 199.841339 
" style="fill:none;stroke:#b2b2b2;stroke-dasharray:1.85,0.8;stroke-dashoffset:0;stroke-width:0.5;"/>
     </g>
     <g id="line2d_106">
      <g>
       <use style="fill-opacity:0;stroke:#000000;stroke-width:0.8;" x="674.489123" xlink:href="#m310d43df09" y="199.841339"/>
      </g>
     </g>
     <g id="text_46">
      <!-- $\mathdefault{10^{-141}}$ -->
      <g transform="translate(641.989123 203.640558)scale(0.1 -0.1)">
       <use transform="translate(0 0.684375)" xlink:href="#DejaVuSans-49"/>
       <use transform="translate(63.623047 0.684375)" xlink:href="#DejaVuSans-48"/>
       <use transform="translate(128.203125 38.965625)scale(0.7)" xlink:href="#DejaVuSans-45"/>
       <use transform="translate(153.461914 38.965625)scale(0.7)" xlink:href="#DejaVuSans-49"/>
       <use transform="translate(197.998047 38.965625)scale(0.7)" xlink:href="#DejaVuSans-52"/>
       <use transform="translate(242.53418 38.965625)scale(0.7)" xlink:href="#DejaVuSans-49"/>
      </g>
     </g>
    </g>
    <g id="ytick_17">
     <g id="line2d_107">
      <path clip-path="url(#p2abb4c310f)" d="M 674.489123 170.045406 
L 925.2 170.045406 
" style="fill:none;stroke:#b2b2b2;stroke-dasharray:1.85,0.8;stroke-dashoffset:0;stroke-width:0.5;"/>
     </g>
     <g id="line2d_108">
      <g>
       <use style="fill-opacity:0;stroke:#000000;stroke-width:0.8;" x="674.489123" xlink:href="#m310d43df09" y="170.045406"/>
      </g>
     </g>
     <g id="text_47">
      <!-- $\mathdefault{10^{-114}}$ -->
      <g transform="translate(641.989123 173.844624)scale(0.1 -0.1)">
       <use transform="translate(0 0.684375)" xlink:href="#DejaVuSans-49"/>
       <use transform="translate(63.623047 0.684375)" xlink:href="#DejaVuSans-48"/>
       <use transform="translate(128.203125 38.965625)scale(0.7)" xlink:href="#DejaVuSans-45"/>
       <use transform="translate(153.461914 38.965625)scale(0.7)" xlink:href="#DejaVuSans-49"/>
       <use transform="translate(197.998047 38.965625)scale(0.7)" xlink:href="#DejaVuSans-49"/>
       <use transform="translate(242.53418 38.965625)scale(0.7)" xlink:href="#DejaVuSans-52"/>
      </g>
     </g>
    </g>
    <g id="ytick_18">
     <g id="line2d_109">
      <path clip-path="url(#p2abb4c310f)" d="M 674.489123 140.249472 
L 925.2 140.249472 
" style="fill:none;stroke:#b2b2b2;stroke-dasharray:1.85,0.8;stroke-dashoffset:0;stroke-width:0.5;"/>
     </g>
     <g id="line2d_110">
      <g>
       <use style="fill-opacity:0;stroke:#000000;stroke-width:0.8;" x="674.489123" xlink:href="#m310d43df09" y="140.249472"/>
      </g>
     </g>
     <g id="text_48">
      <!-- $\mathdefault{10^{-87}}$ -->
      <g transform="translate(646.389123 144.048691)scale(0.1 -0.1)">
       <use transform="translate(0 0.765625)" xlink:href="#DejaVuSans-49"/>
       <use transform="translate(63.623047 0.765625)" xlink:href="#DejaVuSans-48"/>
       <use transform="translate(128.203125 39.046875)scale(0.7)" xlink:href="#DejaVuSans-45"/>
       <use transform="translate(153.461914 39.046875)scale(0.7)" xlink:href="#DejaVuSans-56"/>
       <use transform="translate(197.998047 39.046875)scale(0.7)" xlink:href="#DejaVuSans-55"/>
      </g>
     </g>
    </g>
    <g id="ytick_19">
     <g id="line2d_111">
      <path clip-path="url(#p2abb4c310f)" d="M 674.489123 110.453538 
L 925.2 110.453538 
" style="fill:none;stroke:#b2b2b2;stroke-dasharray:1.85,0.8;stroke-dashoffset:0;stroke-width:0.5;"/>
     </g>
     <g id="line2d_112">
      <g>
       <use style="fill-opacity:0;stroke:#000000;stroke-width:0.8;" x="674.489123" xlink:href="#m310d43df09" y="110.453538"/>
      </g>
     </g>
     <g id="text_49">
      <!-- $\mathdefault{10^{-60}}$ -->
      <g transform="translate(646.389123 114.252757)scale(0.1 -0.1)">
       <use transform="translate(0 0.765625)" xlink:href="#DejaVuSans-49"/>
       <use transform="translate(63.623047 0.765625)" xlink:href="#DejaVuSans-48"/>
       <use transform="translate(128.203125 39.046875)scale(0.7)" xlink:href="#DejaVuSans-45"/>
       <use transform="translate(153.461914 39.046875)scale(0.7)" xlink:href="#DejaVuSans-54"/>
       <use transform="translate(197.998047 39.046875)scale(0.7)" xlink:href="#DejaVuSans-48"/>
      </g>
     </g>
    </g>
    <g id="ytick_20">
     <g id="line2d_113">
      <path clip-path="url(#p2abb4c310f)" d="M 674.489123 80.657604 
L 925.2 80.657604 
" style="fill:none;stroke:#b2b2b2;stroke-dasharray:1.85,0.8;stroke-dashoffset:0;stroke-width:0.5;"/>
     </g>
     <g id="line2d_114">
      <g>
       <use style="fill-opacity:0;stroke:#000000;stroke-width:0.8;" x="674.489123" xlink:href="#m310d43df09" y="80.657604"/>
      </g>
     </g>
     <g id="text_50">
      <!-- $\mathdefault{10^{-33}}$ -->
      <g transform="translate(646.389123 84.456823)scale(0.1 -0.1)">
       <use transform="translate(0 0.765625)" xlink:href="#DejaVuSans-49"/>
       <use transform="translate(63.623047 0.765625)" xlink:href="#DejaVuSans-48"/>
       <use transform="translate(128.203125 39.046875)scale(0.7)" xlink:href="#DejaVuSans-45"/>
       <use transform="translate(153.461914 39.046875)scale(0.7)" xlink:href="#DejaVuSans-51"/>
       <use transform="translate(197.998047 39.046875)scale(0.7)" xlink:href="#DejaVuSans-51"/>
      </g>
     </g>
    </g>
    <g id="ytick_21">
     <g id="line2d_115">
      <path clip-path="url(#p2abb4c310f)" d="M 674.489123 50.86167 
L 925.2 50.86167 
" style="fill:none;stroke:#b2b2b2;stroke-dasharray:1.85,0.8;stroke-dashoffset:0;stroke-width:0.5;"/>
     </g>
     <g id="line2d_116">
      <g>
       <use style="fill-opacity:0;stroke:#000000;stroke-width:0.8;" x="674.489123" xlink:href="#m310d43df09" y="50.86167"/>
      </g>
     </g>
     <g id="text_51">
      <!-- $\mathdefault{10^{-6}}$ -->
      <g transform="translate(650.889123 54.660889)scale(0.1 -0.1)">
       <use transform="translate(0 0.765625)" xlink:href="#DejaVuSans-49"/>
       <use transform="translate(63.623047 0.765625)" xlink:href="#DejaVuSans-48"/>
       <use transform="translate(128.203125 39.046875)scale(0.7)" xlink:href="#DejaVuSans-45"/>
       <use transform="translate(153.461914 39.046875)scale(0.7)" xlink:href="#DejaVuSans-54"/>
      </g>
     </g>
    </g>
    <g id="text_52">
     <!-- Counts -->
     <g transform="translate(635.493498 179.3625)rotate(-90)scale(0.12 -0.12)">
      <use xlink:href="#DejaVuSans-67"/>
      <use x="69.824219" xlink:href="#DejaVuSans-111"/>
      <use x="131.005859" xlink:href="#DejaVuSans-117"/>
      <use x="194.384766" xlink:href="#DejaVuSans-110"/>
      <use x="257.763672" xlink:href="#DejaVuSans-116"/>
      <use x="296.972656" xlink:href="#DejaVuSans-115"/>
     </g>
    </g>
   </g>
   <g id="line2d_117">
    <path clip-path="url(#p2abb4c310f)" d="M -1 268.40203 
L 566.513825 268.403157 
L 623.559424 268.877192 
L 650.084118 269.351228 
L 674.489123 270.062281 
L 691.024878 270.773334 
L 707.129717 271.721405 
L 719.404238 272.669476 
L 731.534722 273.854565 
L 741.36114 275.039654 
L 751.125779 276.46176 
L 754.011251 276.935795 
L 755.396004 40.155074 
L 763.00841 41.57718 
L 770.67443 43.236305 
L 777.352906 44.895429 
L 784.062243 46.791571 
L 790.003017 48.687713 
L 795.962752 50.820872 
L 801.869698 53.19105 
L 807.172787 55.561227 
L 812.441603 58.168422 
L 817.224702 60.775617 
L 821.984534 63.61983 
L 826.691775 66.701061 
L 831.007528 69.782291 
L 835.286136 73.10054 
L 839.51002 76.655806 
L 843.666249 80.44809 
L 847.745608 84.477391 
L 851.741821 88.74371 
L 855.650905 93.247048 
L 859.470652 97.987402 
L 863.200213 102.964775 
L 866.999294 108.416183 
L 870.687837 114.104609 
L 874.270302 120.030052 
L 877.880452 126.429531 
L 881.49735 133.303045 
L 885.103904 140.650595 
L 888.686369 148.472181 
L 892.233855 156.767802 
L 895.737883 165.537458 
L 899.191979 174.78115 
L 902.67152 184.735895 
L 906.157738 195.401693 
L 909.635197 206.778545 
L 913.091374 218.866449 
L 916.516251 231.665407 
L 919.959407 245.412436 
L 923.350054 259.870518 
L 925.148049 267.929121 
L 925.148049 267.929121 
" style="fill:none;stroke:#e24a33;stroke-linecap:square;stroke-width:2;"/>
   </g>
   <g id="line2d_118">
    <path clip-path="url(#p2abb4c310f)" d="M -1 41.897583 
L 755.396004 41.915341 
L 756.744784 40.775447 
L 758.059415 40.567574 
L 761.814676 40.417845 
L 771.682717 40.466796 
L 925.148049 41.896627 
L 925.148049 41.896627 
" style="fill:none;stroke:#348abd;stroke-linecap:square;stroke-width:2;"/>
   </g>
   <g id="line2d_119">
    <path clip-path="url(#p2abb4c310f)" d="M -1 41.897583 
L 755.396004 41.915341 
L 756.744784 40.775447 
L 758.059415 40.567574 
L 761.814676 40.417845 
L 771.682717 40.466796 
L 925.148049 41.896627 
L 925.148049 41.896627 
" style="fill:none;stroke:#988ed5;stroke-linecap:square;stroke-width:2;"/>
   </g>
   <g id="line2d_120">
    <path clip-path="url(#p2abb4c310f)" d="M -1 47.750804 
L 703.547252 47.855226 
L 754.011251 48.039905 
L 755.396004 40.155074 
L 760.592851 40.068454 
L 779.113249 40.195071 
L 811.05685 40.604573 
L 834.991942 41.126492 
L 854.244722 41.760824 
L 870.539267 42.515598 
L 884.538881 43.382786 
L 896.825361 44.362387 
L 907.78053 45.454401 
L 917.729511 46.666858 
L 925.148049 47.734783 
L 925.148049 47.734783 
" style="fill:none;stroke:#8eba42;stroke-linecap:square;stroke-width:2;"/>
   </g>
   <g id="line2d_121">
    <path clip-path="url(#p2abb4c310f)" d="M -1 40.208387 
L 773.642389 40.098366 
L 821.984534 39.910091 
L 869.029709 39.958093 
L 925.148049 40.207794 
L 925.148049 40.207794 
" style="fill:none;stroke:#fbc15e;stroke-linecap:square;stroke-width:2;"/>
   </g>
   <g id="line2d_122">
    <path clip-path="url(#p2abb4c310f)" d="M -1 40.208387 
L 773.642389 40.098366 
L 821.984534 39.910091 
L 869.029709 39.958093 
L 925.148049 40.207794 
L 925.148049 40.207794 
" style="fill:none;stroke:#777777;stroke-linecap:square;stroke-width:2;"/>
   </g>
   <g id="patch_14">
    <path d="M 674.489123 288.7875 
L 674.489123 28.05 
" style="fill:none;stroke:#bcbcbc;stroke-linecap:square;stroke-linejoin:miter;stroke-width:0.8;"/>
   </g>
   <g id="patch_15">
    <path d="M 925.2 288.7875 
L 925.2 28.05 
" style="fill:none;stroke:#bcbcbc;stroke-linecap:square;stroke-linejoin:miter;stroke-width:0.8;"/>
   </g>
   <g id="patch_16">
    <path d="M 674.489123 288.7875 
L 925.2 288.7875 
" style="fill:none;stroke:#bcbcbc;stroke-linecap:square;stroke-linejoin:miter;stroke-width:0.8;"/>
   </g>
   <g id="patch_17">
    <path d="M 674.489123 28.05 
L 925.2 28.05 
" style="fill:none;stroke:#bcbcbc;stroke-linecap:square;stroke-linejoin:miter;stroke-width:0.8;"/>
   </g>
   <g id="text_53">
    <!-- log-log -->
    <g transform="translate(775.293686 22.05)scale(0.144 -0.144)">
     <use xlink:href="#DejaVuSans-108"/>
     <use x="27.783203" xlink:href="#DejaVuSans-111"/>
     <use x="88.964844" xlink:href="#DejaVuSans-103"/>
     <use x="152.441406" xlink:href="#DejaVuSans-45"/>
     <use x="188.525391" xlink:href="#DejaVuSans-108"/>
     <use x="216.308594" xlink:href="#DejaVuSans-111"/>
     <use x="277.490234" xlink:href="#DejaVuSans-103"/>
    </g>
   </g>
  </g>
 </g>
 <defs>
  <clipPath id="p013e3097c7">
   <rect height="260.7375" width="250.710877" x="55.425" y="28.05"/>
  </clipPath>
  <clipPath id="p147f4d0aa1">
   <rect height="260.7375" width="250.710877" x="364.957061" y="28.05"/>
  </clipPath>
  <clipPath id="p2abb4c310f">
   <rect height="260.7375" width="250.710877" x="674.489123" y="28.05"/>
  </clipPath>
 </defs>
</svg>
