<?xml version="1.0" encoding="utf-8" standalone="no"?>
<!DOCTYPE svg PUBLIC "-//W3C//DTD SVG 1.1//EN"
  "http://www.w3.org/Graphics/SVG/1.1/DTD/svg11.dtd">
<!-- Created with matplotlib (https://matplotlib.org/) -->
<svg height="329.4pt" version="1.1" viewBox="0 0 936 329.4" width="936pt" xmlns="http://www.w3.org/2000/svg" xmlns:xlink="http://www.w3.org/1999/xlink">
 <defs>
  <style type="text/css">
*{stroke-linecap:butt;stroke-linejoin:round;}
  </style>
 </defs>
 <g id="figure_1">
  <g id="patch_1">
   <path d="M 0 329.4 
L 936 329.4 
L 936 0 
L 0 0 
z
" style="fill:#ffffff;"/>
  </g>
  <g id="axes_1">
   <g id="patch_2">
    <path d="M 61.8 288.7875 
L 310.448377 288.7875 
L 310.448377 28.05 
L 61.8 28.05 
z
" style="fill:#eeeeee;"/>
   </g>
   <g id="matplotlib.axis_1">
    <g id="xtick_1">
     <g id="line2d_1">
      <path clip-path="url(#p251a8b9bdd)" d="M 61.8 288.7875 
L 61.8 28.05 
" style="fill:none;stroke:#b2b2b2;stroke-dasharray:1.85,0.8;stroke-dashoffset:0;stroke-width:0.5;"/>
     </g>
     <g id="line2d_2">
      <defs>
       <path d="M 0 0 
L 0 -3.5 
" id="mdad7bc64ba" style="stroke:#000000;stroke-width:0.8;"/>
      </defs>
      <g>
       <use style="fill-opacity:0;stroke:#000000;stroke-width:0.8;" x="61.8" xlink:href="#mdad7bc64ba" y="288.7875"/>
      </g>
     </g>
     <g id="text_1">
      <!-- 0 -->
      <defs>
       <path d="M 31.78125 66.40625 
Q 24.171875 66.40625 20.328125 58.90625 
Q 16.5 51.421875 16.5 36.375 
Q 16.5 21.390625 20.328125 13.890625 
Q 24.171875 6.390625 31.78125 6.390625 
Q 39.453125 6.390625 43.28125 13.890625 
Q 47.125 21.390625 47.125 36.375 
Q 47.125 51.421875 43.28125 58.90625 
Q 39.453125 66.40625 31.78125 66.40625 
z
M 31.78125 74.21875 
Q 44.046875 74.21875 50.515625 64.515625 
Q 56.984375 54.828125 56.984375 36.375 
Q 56.984375 17.96875 50.515625 8.265625 
Q 44.046875 -1.421875 31.78125 -1.421875 
Q 19.53125 -1.421875 13.0625 8.265625 
Q 6.59375 17.96875 6.59375 36.375 
Q 6.59375 54.828125 13.0625 64.515625 
Q 19.53125 74.21875 31.78125 74.21875 
z
" id="DejaVuSans-48"/>
      </defs>
      <g transform="translate(58.61875 299.885938)scale(0.1 -0.1)">
       <use xlink:href="#DejaVuSans-48"/>
      </g>
     </g>
    </g>
    <g id="xtick_2">
     <g id="line2d_3">
      <path clip-path="url(#p251a8b9bdd)" d="M 101.58374 288.7875 
L 101.58374 28.05 
" style="fill:none;stroke:#b2b2b2;stroke-dasharray:1.85,0.8;stroke-dashoffset:0;stroke-width:0.5;"/>
     </g>
     <g id="line2d_4">
      <g>
       <use style="fill-opacity:0;stroke:#000000;stroke-width:0.8;" x="101.58374" xlink:href="#mdad7bc64ba" y="288.7875"/>
      </g>
     </g>
     <g id="text_2">
      <!-- 2 -->
      <defs>
       <path d="M 19.1875 8.296875 
L 53.609375 8.296875 
L 53.609375 0 
L 7.328125 0 
L 7.328125 8.296875 
Q 12.9375 14.109375 22.625 23.890625 
Q 32.328125 33.6875 34.8125 36.53125 
Q 39.546875 41.84375 41.421875 45.53125 
Q 43.3125 49.21875 43.3125 52.78125 
Q 43.3125 58.59375 39.234375 62.25 
Q 35.15625 65.921875 28.609375 65.921875 
Q 23.96875 65.921875 18.8125 64.3125 
Q 13.671875 62.703125 7.8125 59.421875 
L 7.8125 69.390625 
Q 13.765625 71.78125 18.9375 73 
Q 24.125 74.21875 28.421875 74.21875 
Q 39.75 74.21875 46.484375 68.546875 
Q 53.21875 62.890625 53.21875 53.421875 
Q 53.21875 48.921875 51.53125 44.890625 
Q 49.859375 40.875 45.40625 35.40625 
Q 44.1875 33.984375 37.640625 27.21875 
Q 31.109375 20.453125 19.1875 8.296875 
z
" id="DejaVuSans-50"/>
      </defs>
      <g transform="translate(98.40249 299.885938)scale(0.1 -0.1)">
       <use xlink:href="#DejaVuSans-50"/>
      </g>
     </g>
    </g>
    <g id="xtick_3">
     <g id="line2d_5">
      <path clip-path="url(#p251a8b9bdd)" d="M 141.367481 288.7875 
L 141.367481 28.05 
" style="fill:none;stroke:#b2b2b2;stroke-dasharray:1.85,0.8;stroke-dashoffset:0;stroke-width:0.5;"/>
     </g>
     <g id="line2d_6">
      <g>
       <use style="fill-opacity:0;stroke:#000000;stroke-width:0.8;" x="141.367481" xlink:href="#mdad7bc64ba" y="288.7875"/>
      </g>
     </g>
     <g id="text_3">
      <!-- 4 -->
      <defs>
       <path d="M 37.796875 64.3125 
L 12.890625 25.390625 
L 37.796875 25.390625 
z
M 35.203125 72.90625 
L 47.609375 72.90625 
L 47.609375 25.390625 
L 58.015625 25.390625 
L 58.015625 17.1875 
L 47.609375 17.1875 
L 47.609375 0 
L 37.796875 0 
L 37.796875 17.1875 
L 4.890625 17.1875 
L 4.890625 26.703125 
z
" id="DejaVuSans-52"/>
      </defs>
      <g transform="translate(138.186231 299.885938)scale(0.1 -0.1)">
       <use xlink:href="#DejaVuSans-52"/>
      </g>
     </g>
    </g>
    <g id="xtick_4">
     <g id="line2d_7">
      <path clip-path="url(#p251a8b9bdd)" d="M 181.151221 288.7875 
L 181.151221 28.05 
" style="fill:none;stroke:#b2b2b2;stroke-dasharray:1.85,0.8;stroke-dashoffset:0;stroke-width:0.5;"/>
     </g>
     <g id="line2d_8">
      <g>
       <use style="fill-opacity:0;stroke:#000000;stroke-width:0.8;" x="181.151221" xlink:href="#mdad7bc64ba" y="288.7875"/>
      </g>
     </g>
     <g id="text_4">
      <!-- 6 -->
      <defs>
       <path d="M 33.015625 40.375 
Q 26.375 40.375 22.484375 35.828125 
Q 18.609375 31.296875 18.609375 23.390625 
Q 18.609375 15.53125 22.484375 10.953125 
Q 26.375 6.390625 33.015625 6.390625 
Q 39.65625 6.390625 43.53125 10.953125 
Q 47.40625 15.53125 47.40625 23.390625 
Q 47.40625 31.296875 43.53125 35.828125 
Q 39.65625 40.375 33.015625 40.375 
z
M 52.59375 71.296875 
L 52.59375 62.3125 
Q 48.875 64.0625 45.09375 64.984375 
Q 41.3125 65.921875 37.59375 65.921875 
Q 27.828125 65.921875 22.671875 59.328125 
Q 17.53125 52.734375 16.796875 39.40625 
Q 19.671875 43.65625 24.015625 45.921875 
Q 28.375 48.1875 33.59375 48.1875 
Q 44.578125 48.1875 50.953125 41.515625 
Q 57.328125 34.859375 57.328125 23.390625 
Q 57.328125 12.15625 50.6875 5.359375 
Q 44.046875 -1.421875 33.015625 -1.421875 
Q 20.359375 -1.421875 13.671875 8.265625 
Q 6.984375 17.96875 6.984375 36.375 
Q 6.984375 53.65625 15.1875 63.9375 
Q 23.390625 74.21875 37.203125 74.21875 
Q 40.921875 74.21875 44.703125 73.484375 
Q 48.484375 72.75 52.59375 71.296875 
z
" id="DejaVuSans-54"/>
      </defs>
      <g transform="translate(177.969971 299.885938)scale(0.1 -0.1)">
       <use xlink:href="#DejaVuSans-54"/>
      </g>
     </g>
    </g>
    <g id="xtick_5">
     <g id="line2d_9">
      <path clip-path="url(#p251a8b9bdd)" d="M 220.934961 288.7875 
L 220.934961 28.05 
" style="fill:none;stroke:#b2b2b2;stroke-dasharray:1.85,0.8;stroke-dashoffset:0;stroke-width:0.5;"/>
     </g>
     <g id="line2d_10">
      <g>
       <use style="fill-opacity:0;stroke:#000000;stroke-width:0.8;" x="220.934961" xlink:href="#mdad7bc64ba" y="288.7875"/>
      </g>
     </g>
     <g id="text_5">
      <!-- 8 -->
      <defs>
       <path d="M 31.78125 34.625 
Q 24.75 34.625 20.71875 30.859375 
Q 16.703125 27.09375 16.703125 20.515625 
Q 16.703125 13.921875 20.71875 10.15625 
Q 24.75 6.390625 31.78125 6.390625 
Q 38.8125 6.390625 42.859375 10.171875 
Q 46.921875 13.96875 46.921875 20.515625 
Q 46.921875 27.09375 42.890625 30.859375 
Q 38.875 34.625 31.78125 34.625 
z
M 21.921875 38.8125 
Q 15.578125 40.375 12.03125 44.71875 
Q 8.5 49.078125 8.5 55.328125 
Q 8.5 64.0625 14.71875 69.140625 
Q 20.953125 74.21875 31.78125 74.21875 
Q 42.671875 74.21875 48.875 69.140625 
Q 55.078125 64.0625 55.078125 55.328125 
Q 55.078125 49.078125 51.53125 44.71875 
Q 48 40.375 41.703125 38.8125 
Q 48.828125 37.15625 52.796875 32.3125 
Q 56.78125 27.484375 56.78125 20.515625 
Q 56.78125 9.90625 50.3125 4.234375 
Q 43.84375 -1.421875 31.78125 -1.421875 
Q 19.734375 -1.421875 13.25 4.234375 
Q 6.78125 9.90625 6.78125 20.515625 
Q 6.78125 27.484375 10.78125 32.3125 
Q 14.796875 37.15625 21.921875 38.8125 
z
M 18.3125 54.390625 
Q 18.3125 48.734375 21.84375 45.5625 
Q 25.390625 42.390625 31.78125 42.390625 
Q 38.140625 42.390625 41.71875 45.5625 
Q 45.3125 48.734375 45.3125 54.390625 
Q 45.3125 60.0625 41.71875 63.234375 
Q 38.140625 66.40625 31.78125 66.40625 
Q 25.390625 66.40625 21.84375 63.234375 
Q 18.3125 60.0625 18.3125 54.390625 
z
" id="DejaVuSans-56"/>
      </defs>
      <g transform="translate(217.753711 299.885938)scale(0.1 -0.1)">
       <use xlink:href="#DejaVuSans-56"/>
      </g>
     </g>
    </g>
    <g id="xtick_6">
     <g id="line2d_11">
      <path clip-path="url(#p251a8b9bdd)" d="M 260.718702 288.7875 
L 260.718702 28.05 
" style="fill:none;stroke:#b2b2b2;stroke-dasharray:1.85,0.8;stroke-dashoffset:0;stroke-width:0.5;"/>
     </g>
     <g id="line2d_12">
      <g>
       <use style="fill-opacity:0;stroke:#000000;stroke-width:0.8;" x="260.718702" xlink:href="#mdad7bc64ba" y="288.7875"/>
      </g>
     </g>
     <g id="text_6">
      <!-- 10 -->
      <defs>
       <path d="M 12.40625 8.296875 
L 28.515625 8.296875 
L 28.515625 63.921875 
L 10.984375 60.40625 
L 10.984375 69.390625 
L 28.421875 72.90625 
L 38.28125 72.90625 
L 38.28125 8.296875 
L 54.390625 8.296875 
L 54.390625 0 
L 12.40625 0 
z
" id="DejaVuSans-49"/>
      </defs>
      <g transform="translate(254.356202 299.885938)scale(0.1 -0.1)">
       <use xlink:href="#DejaVuSans-49"/>
       <use x="63.623047" xlink:href="#DejaVuSans-48"/>
      </g>
     </g>
    </g>
    <g id="xtick_7">
     <g id="line2d_13">
      <path clip-path="url(#p251a8b9bdd)" d="M 300.502442 288.7875 
L 300.502442 28.05 
" style="fill:none;stroke:#b2b2b2;stroke-dasharray:1.85,0.8;stroke-dashoffset:0;stroke-width:0.5;"/>
     </g>
     <g id="line2d_14">
      <g>
       <use style="fill-opacity:0;stroke:#000000;stroke-width:0.8;" x="300.502442" xlink:href="#mdad7bc64ba" y="288.7875"/>
      </g>
     </g>
     <g id="text_7">
      <!-- 12 -->
      <g transform="translate(294.139942 299.885938)scale(0.1 -0.1)">
       <use xlink:href="#DejaVuSans-49"/>
       <use x="63.623047" xlink:href="#DejaVuSans-50"/>
      </g>
     </g>
    </g>
    <g id="text_8">
     <!-- Time (ns) -->
     <defs>
      <path d="M -0.296875 72.90625 
L 61.375 72.90625 
L 61.375 64.59375 
L 35.5 64.59375 
L 35.5 0 
L 25.59375 0 
L 25.59375 64.59375 
L -0.296875 64.59375 
z
" id="DejaVuSans-84"/>
      <path d="M 9.421875 54.6875 
L 18.40625 54.6875 
L 18.40625 0 
L 9.421875 0 
z
M 9.421875 75.984375 
L 18.40625 75.984375 
L 18.40625 64.59375 
L 9.421875 64.59375 
z
" id="DejaVuSans-105"/>
      <path d="M 52 44.1875 
Q 55.375 50.25 60.0625 53.125 
Q 64.75 56 71.09375 56 
Q 79.640625 56 84.28125 50.015625 
Q 88.921875 44.046875 88.921875 33.015625 
L 88.921875 0 
L 79.890625 0 
L 79.890625 32.71875 
Q 79.890625 40.578125 77.09375 44.375 
Q 74.3125 48.1875 68.609375 48.1875 
Q 61.625 48.1875 57.5625 43.546875 
Q 53.515625 38.921875 53.515625 30.90625 
L 53.515625 0 
L 44.484375 0 
L 44.484375 32.71875 
Q 44.484375 40.625 41.703125 44.40625 
Q 38.921875 48.1875 33.109375 48.1875 
Q 26.21875 48.1875 22.15625 43.53125 
Q 18.109375 38.875 18.109375 30.90625 
L 18.109375 0 
L 9.078125 0 
L 9.078125 54.6875 
L 18.109375 54.6875 
L 18.109375 46.1875 
Q 21.1875 51.21875 25.484375 53.609375 
Q 29.78125 56 35.6875 56 
Q 41.65625 56 45.828125 52.96875 
Q 50 49.953125 52 44.1875 
z
" id="DejaVuSans-109"/>
      <path d="M 56.203125 29.59375 
L 56.203125 25.203125 
L 14.890625 25.203125 
Q 15.484375 15.921875 20.484375 11.0625 
Q 25.484375 6.203125 34.421875 6.203125 
Q 39.59375 6.203125 44.453125 7.46875 
Q 49.3125 8.734375 54.109375 11.28125 
L 54.109375 2.78125 
Q 49.265625 0.734375 44.1875 -0.34375 
Q 39.109375 -1.421875 33.890625 -1.421875 
Q 20.796875 -1.421875 13.15625 6.1875 
Q 5.515625 13.8125 5.515625 26.8125 
Q 5.515625 40.234375 12.765625 48.109375 
Q 20.015625 56 32.328125 56 
Q 43.359375 56 49.78125 48.890625 
Q 56.203125 41.796875 56.203125 29.59375 
z
M 47.21875 32.234375 
Q 47.125 39.59375 43.09375 43.984375 
Q 39.0625 48.390625 32.421875 48.390625 
Q 24.90625 48.390625 20.390625 44.140625 
Q 15.875 39.890625 15.1875 32.171875 
z
" id="DejaVuSans-101"/>
      <path id="DejaVuSans-32"/>
      <path d="M 31 75.875 
Q 24.46875 64.65625 21.28125 53.65625 
Q 18.109375 42.671875 18.109375 31.390625 
Q 18.109375 20.125 21.3125 9.0625 
Q 24.515625 -2 31 -13.1875 
L 23.1875 -13.1875 
Q 15.875 -1.703125 12.234375 9.375 
Q 8.59375 20.453125 8.59375 31.390625 
Q 8.59375 42.28125 12.203125 53.3125 
Q 15.828125 64.359375 23.1875 75.875 
z
" id="DejaVuSans-40"/>
      <path d="M 54.890625 33.015625 
L 54.890625 0 
L 45.90625 0 
L 45.90625 32.71875 
Q 45.90625 40.484375 42.875 44.328125 
Q 39.84375 48.1875 33.796875 48.1875 
Q 26.515625 48.1875 22.3125 43.546875 
Q 18.109375 38.921875 18.109375 30.90625 
L 18.109375 0 
L 9.078125 0 
L 9.078125 54.6875 
L 18.109375 54.6875 
L 18.109375 46.1875 
Q 21.34375 51.125 25.703125 53.5625 
Q 30.078125 56 35.796875 56 
Q 45.21875 56 50.046875 50.171875 
Q 54.890625 44.34375 54.890625 33.015625 
z
" id="DejaVuSans-110"/>
      <path d="M 44.28125 53.078125 
L 44.28125 44.578125 
Q 40.484375 46.53125 36.375 47.5 
Q 32.28125 48.484375 27.875 48.484375 
Q 21.1875 48.484375 17.84375 46.4375 
Q 14.5 44.390625 14.5 40.28125 
Q 14.5 37.15625 16.890625 35.375 
Q 19.28125 33.59375 26.515625 31.984375 
L 29.59375 31.296875 
Q 39.15625 29.25 43.1875 25.515625 
Q 47.21875 21.78125 47.21875 15.09375 
Q 47.21875 7.46875 41.1875 3.015625 
Q 35.15625 -1.421875 24.609375 -1.421875 
Q 20.21875 -1.421875 15.453125 -0.5625 
Q 10.6875 0.296875 5.421875 2 
L 5.421875 11.28125 
Q 10.40625 8.6875 15.234375 7.390625 
Q 20.0625 6.109375 24.8125 6.109375 
Q 31.15625 6.109375 34.5625 8.28125 
Q 37.984375 10.453125 37.984375 14.40625 
Q 37.984375 18.0625 35.515625 20.015625 
Q 33.0625 21.96875 24.703125 23.78125 
L 21.578125 24.515625 
Q 13.234375 26.265625 9.515625 29.90625 
Q 5.8125 33.546875 5.8125 39.890625 
Q 5.8125 47.609375 11.28125 51.796875 
Q 16.75 56 26.8125 56 
Q 31.78125 56 36.171875 55.265625 
Q 40.578125 54.546875 44.28125 53.078125 
z
" id="DejaVuSans-115"/>
      <path d="M 8.015625 75.875 
L 15.828125 75.875 
Q 23.140625 64.359375 26.78125 53.3125 
Q 30.421875 42.28125 30.421875 31.390625 
Q 30.421875 20.453125 26.78125 9.375 
Q 23.140625 -1.703125 15.828125 -13.1875 
L 8.015625 -13.1875 
Q 14.5 -2 17.703125 9.0625 
Q 20.90625 20.125 20.90625 31.390625 
Q 20.90625 42.671875 17.703125 53.65625 
Q 14.5 64.65625 8.015625 75.875 
z
" id="DejaVuSans-41"/>
     </defs>
     <g transform="translate(157.742314 315.08375)scale(0.12 -0.12)">
      <use xlink:href="#DejaVuSans-84"/>
      <use x="61.037109" xlink:href="#DejaVuSans-105"/>
      <use x="88.820312" xlink:href="#DejaVuSans-109"/>
      <use x="186.232422" xlink:href="#DejaVuSans-101"/>
      <use x="247.755859" xlink:href="#DejaVuSans-32"/>
      <use x="279.542969" xlink:href="#DejaVuSans-40"/>
      <use x="318.556641" xlink:href="#DejaVuSans-110"/>
      <use x="381.935547" xlink:href="#DejaVuSans-115"/>
      <use x="434.035156" xlink:href="#DejaVuSans-41"/>
     </g>
    </g>
   </g>
   <g id="matplotlib.axis_2">
    <g id="ytick_1">
     <g id="line2d_15">
      <path clip-path="url(#p251a8b9bdd)" d="M 61.8 276.935795 
L 310.448377 276.935795 
" style="fill:none;stroke:#b2b2b2;stroke-dasharray:1.85,0.8;stroke-dashoffset:0;stroke-width:0.5;"/>
     </g>
     <g id="line2d_16">
      <defs>
       <path d="M 0 0 
L 3.5 0 
" id="m0ecae97f50" style="stroke:#000000;stroke-width:0.8;"/>
      </defs>
      <g>
       <use style="fill-opacity:0;stroke:#000000;stroke-width:0.8;" x="61.8" xlink:href="#m0ecae97f50" y="276.935795"/>
      </g>
     </g>
     <g id="text_9">
      <!-- 0 -->
      <g transform="translate(51.9375 280.735014)scale(0.1 -0.1)">
       <use xlink:href="#DejaVuSans-48"/>
      </g>
     </g>
    </g>
    <g id="ytick_2">
     <g id="line2d_17">
      <path clip-path="url(#p251a8b9bdd)" d="M 61.8 232.134395 
L 310.448377 232.134395 
" style="fill:none;stroke:#b2b2b2;stroke-dasharray:1.85,0.8;stroke-dashoffset:0;stroke-width:0.5;"/>
     </g>
     <g id="line2d_18">
      <g>
       <use style="fill-opacity:0;stroke:#000000;stroke-width:0.8;" x="61.8" xlink:href="#m0ecae97f50" y="232.134395"/>
      </g>
     </g>
     <g id="text_10">
      <!-- 2000 -->
      <g transform="translate(32.85 235.933614)scale(0.1 -0.1)">
       <use xlink:href="#DejaVuSans-50"/>
       <use x="63.623047" xlink:href="#DejaVuSans-48"/>
       <use x="127.246094" xlink:href="#DejaVuSans-48"/>
       <use x="190.869141" xlink:href="#DejaVuSans-48"/>
      </g>
     </g>
    </g>
    <g id="ytick_3">
     <g id="line2d_19">
      <path clip-path="url(#p251a8b9bdd)" d="M 61.8 187.332995 
L 310.448377 187.332995 
" style="fill:none;stroke:#b2b2b2;stroke-dasharray:1.85,0.8;stroke-dashoffset:0;stroke-width:0.5;"/>
     </g>
     <g id="line2d_20">
      <g>
       <use style="fill-opacity:0;stroke:#000000;stroke-width:0.8;" x="61.8" xlink:href="#m0ecae97f50" y="187.332995"/>
      </g>
     </g>
     <g id="text_11">
      <!-- 4000 -->
      <g transform="translate(32.85 191.132214)scale(0.1 -0.1)">
       <use xlink:href="#DejaVuSans-52"/>
       <use x="63.623047" xlink:href="#DejaVuSans-48"/>
       <use x="127.246094" xlink:href="#DejaVuSans-48"/>
       <use x="190.869141" xlink:href="#DejaVuSans-48"/>
      </g>
     </g>
    </g>
    <g id="ytick_4">
     <g id="line2d_21">
      <path clip-path="url(#p251a8b9bdd)" d="M 61.8 142.531596 
L 310.448377 142.531596 
" style="fill:none;stroke:#b2b2b2;stroke-dasharray:1.85,0.8;stroke-dashoffset:0;stroke-width:0.5;"/>
     </g>
     <g id="line2d_22">
      <g>
       <use style="fill-opacity:0;stroke:#000000;stroke-width:0.8;" x="61.8" xlink:href="#m0ecae97f50" y="142.531596"/>
      </g>
     </g>
     <g id="text_12">
      <!-- 6000 -->
      <g transform="translate(32.85 146.330814)scale(0.1 -0.1)">
       <use xlink:href="#DejaVuSans-54"/>
       <use x="63.623047" xlink:href="#DejaVuSans-48"/>
       <use x="127.246094" xlink:href="#DejaVuSans-48"/>
       <use x="190.869141" xlink:href="#DejaVuSans-48"/>
      </g>
     </g>
    </g>
    <g id="ytick_5">
     <g id="line2d_23">
      <path clip-path="url(#p251a8b9bdd)" d="M 61.8 97.730196 
L 310.448377 97.730196 
" style="fill:none;stroke:#b2b2b2;stroke-dasharray:1.85,0.8;stroke-dashoffset:0;stroke-width:0.5;"/>
     </g>
     <g id="line2d_24">
      <g>
       <use style="fill-opacity:0;stroke:#000000;stroke-width:0.8;" x="61.8" xlink:href="#m0ecae97f50" y="97.730196"/>
      </g>
     </g>
     <g id="text_13">
      <!-- 8000 -->
      <g transform="translate(32.85 101.529414)scale(0.1 -0.1)">
       <use xlink:href="#DejaVuSans-56"/>
       <use x="63.623047" xlink:href="#DejaVuSans-48"/>
       <use x="127.246094" xlink:href="#DejaVuSans-48"/>
       <use x="190.869141" xlink:href="#DejaVuSans-48"/>
      </g>
     </g>
    </g>
    <g id="ytick_6">
     <g id="line2d_25">
      <path clip-path="url(#p251a8b9bdd)" d="M 61.8 52.928796 
L 310.448377 52.928796 
" style="fill:none;stroke:#b2b2b2;stroke-dasharray:1.85,0.8;stroke-dashoffset:0;stroke-width:0.5;"/>
     </g>
     <g id="line2d_26">
      <g>
       <use style="fill-opacity:0;stroke:#000000;stroke-width:0.8;" x="61.8" xlink:href="#m0ecae97f50" y="52.928796"/>
      </g>
     </g>
     <g id="text_14">
      <!-- 10000 -->
      <g transform="translate(26.4875 56.728014)scale(0.1 -0.1)">
       <use xlink:href="#DejaVuSans-49"/>
       <use x="63.623047" xlink:href="#DejaVuSans-48"/>
       <use x="127.246094" xlink:href="#DejaVuSans-48"/>
       <use x="190.869141" xlink:href="#DejaVuSans-48"/>
       <use x="254.492188" xlink:href="#DejaVuSans-48"/>
      </g>
     </g>
    </g>
    <g id="text_15">
     <!-- Counts -->
     <defs>
      <path d="M 64.40625 67.28125 
L 64.40625 56.890625 
Q 59.421875 61.53125 53.78125 63.8125 
Q 48.140625 66.109375 41.796875 66.109375 
Q 29.296875 66.109375 22.65625 58.46875 
Q 16.015625 50.828125 16.015625 36.375 
Q 16.015625 21.96875 22.65625 14.328125 
Q 29.296875 6.6875 41.796875 6.6875 
Q 48.140625 6.6875 53.78125 8.984375 
Q 59.421875 11.28125 64.40625 15.921875 
L 64.40625 5.609375 
Q 59.234375 2.09375 53.4375 0.328125 
Q 47.65625 -1.421875 41.21875 -1.421875 
Q 24.65625 -1.421875 15.125 8.703125 
Q 5.609375 18.84375 5.609375 36.375 
Q 5.609375 53.953125 15.125 64.078125 
Q 24.65625 74.21875 41.21875 74.21875 
Q 47.75 74.21875 53.53125 72.484375 
Q 59.328125 70.75 64.40625 67.28125 
z
" id="DejaVuSans-67"/>
      <path d="M 30.609375 48.390625 
Q 23.390625 48.390625 19.1875 42.75 
Q 14.984375 37.109375 14.984375 27.296875 
Q 14.984375 17.484375 19.15625 11.84375 
Q 23.34375 6.203125 30.609375 6.203125 
Q 37.796875 6.203125 41.984375 11.859375 
Q 46.1875 17.53125 46.1875 27.296875 
Q 46.1875 37.015625 41.984375 42.703125 
Q 37.796875 48.390625 30.609375 48.390625 
z
M 30.609375 56 
Q 42.328125 56 49.015625 48.375 
Q 55.71875 40.765625 55.71875 27.296875 
Q 55.71875 13.875 49.015625 6.21875 
Q 42.328125 -1.421875 30.609375 -1.421875 
Q 18.84375 -1.421875 12.171875 6.21875 
Q 5.515625 13.875 5.515625 27.296875 
Q 5.515625 40.765625 12.171875 48.375 
Q 18.84375 56 30.609375 56 
z
" id="DejaVuSans-111"/>
      <path d="M 8.5 21.578125 
L 8.5 54.6875 
L 17.484375 54.6875 
L 17.484375 21.921875 
Q 17.484375 14.15625 20.5 10.265625 
Q 23.53125 6.390625 29.59375 6.390625 
Q 36.859375 6.390625 41.078125 11.03125 
Q 45.3125 15.671875 45.3125 23.6875 
L 45.3125 54.6875 
L 54.296875 54.6875 
L 54.296875 0 
L 45.3125 0 
L 45.3125 8.40625 
Q 42.046875 3.421875 37.71875 1 
Q 33.40625 -1.421875 27.6875 -1.421875 
Q 18.265625 -1.421875 13.375 4.4375 
Q 8.5 10.296875 8.5 21.578125 
z
M 31.109375 56 
z
" id="DejaVuSans-117"/>
      <path d="M 18.3125 70.21875 
L 18.3125 54.6875 
L 36.8125 54.6875 
L 36.8125 47.703125 
L 18.3125 47.703125 
L 18.3125 18.015625 
Q 18.3125 11.328125 20.140625 9.421875 
Q 21.96875 7.515625 27.59375 7.515625 
L 36.8125 7.515625 
L 36.8125 0 
L 27.59375 0 
Q 17.1875 0 13.234375 3.875 
Q 9.28125 7.765625 9.28125 18.015625 
L 9.28125 47.703125 
L 2.6875 47.703125 
L 2.6875 54.6875 
L 9.28125 54.6875 
L 9.28125 70.21875 
z
" id="DejaVuSans-116"/>
     </defs>
     <g transform="translate(19.991875 179.3625)rotate(-90)scale(0.12 -0.12)">
      <use xlink:href="#DejaVuSans-67"/>
      <use x="69.824219" xlink:href="#DejaVuSans-111"/>
      <use x="131.005859" xlink:href="#DejaVuSans-117"/>
      <use x="194.384766" xlink:href="#DejaVuSans-110"/>
      <use x="257.763672" xlink:href="#DejaVuSans-116"/>
      <use x="296.972656" xlink:href="#DejaVuSans-115"/>
     </g>
    </g>
   </g>
   <g id="line2d_27">
    <path clip-path="url(#p251a8b9bdd)" d="M 61.8 276.935795 
L 70.99999 276.935795 
L 71.248638 164.165942 
L 71.745935 234.641494 
L 72.243232 261.07333 
L 72.740529 270.986582 
L 73.237825 274.704545 
L 73.735122 276.098966 
L 74.232419 276.621943 
L 74.978364 276.863708 
L 76.470254 276.931992 
L 95.616179 276.935795 
L 310.199729 276.935795 
L 310.199729 276.935795 
" style="fill:none;stroke:#e24a33;stroke-linecap:square;stroke-width:2;"/>
   </g>
   <g id="line2d_28">
    <path clip-path="url(#p251a8b9bdd)" d="M 61.8 274.029336 
L 71.248638 274.143457 
L 71.745935 229.040729 
L 71.994583 219.261498 
L 72.243232 213.933541 
L 72.49188 211.335287 
L 72.740529 210.388231 
L 72.989177 210.42505 
L 73.237825 211.036357 
L 73.98377 214.276345 
L 75.724309 222.372895 
L 76.967551 227.123987 
L 78.210793 231.114929 
L 79.702683 235.129424 
L 81.194573 238.493167 
L 82.686464 241.353025 
L 84.427002 244.192054 
L 86.167541 246.609459 
L 88.156728 248.967317 
L 90.145915 250.983549 
L 92.38375 252.929151 
L 94.870234 254.773973 
L 97.605366 256.500326 
L 100.589147 258.100045 
L 103.821576 259.571811 
L 107.551301 261.007174 
L 111.529675 262.2973 
L 116.005346 263.519261 
L 121.226962 264.709466 
L 127.194523 265.834516 
L 134.156678 266.910385 
L 142.113426 267.909741 
L 151.562064 268.864803 
L 162.751241 269.763257 
L 176.178254 270.608253 
L 192.340398 271.393916 
L 212.232268 272.128387 
L 236.848458 272.805604 
L 267.929505 273.429171 
L 307.961893 273.999955 
L 310.199729 274.026425 
L 310.199729 274.026425 
" style="fill:none;stroke:#348abd;stroke-linecap:square;stroke-width:2;"/>
   </g>
   <g id="line2d_29">
    <path clip-path="url(#p251a8b9bdd)" d="M 61.8 274.029336 
L 71.248638 274.143457 
L 71.745935 229.040729 
L 71.994583 219.261498 
L 72.243232 213.933541 
L 72.49188 211.335287 
L 72.740529 210.388231 
L 72.989177 210.42505 
L 73.237825 211.036357 
L 73.98377 214.276345 
L 75.724309 222.372895 
L 76.967551 227.123987 
L 78.210793 231.114929 
L 79.702683 235.129424 
L 81.194573 238.493167 
L 82.686464 241.353025 
L 84.427002 244.192054 
L 86.167541 246.609459 
L 88.156728 248.967317 
L 90.145915 250.983549 
L 92.38375 252.929151 
L 94.870234 254.773973 
L 97.605366 256.500326 
L 100.589147 258.100045 
L 103.821576 259.571811 
L 107.551301 261.007174 
L 111.529675 262.2973 
L 116.005346 263.519261 
L 121.226962 264.709466 
L 127.194523 265.834516 
L 134.156678 266.910385 
L 142.113426 267.909741 
L 151.562064 268.864803 
L 162.751241 269.763257 
L 176.178254 270.608253 
L 192.340398 271.393916 
L 212.232268 272.128387 
L 236.848458 272.805604 
L 267.929505 273.429171 
L 307.961893 273.999955 
L 310.199729 274.026425 
L 310.199729 274.026425 
" style="fill:none;stroke:#988ed5;stroke-linecap:square;stroke-width:2;"/>
   </g>
   <g id="line2d_30">
    <path clip-path="url(#p251a8b9bdd)" d="M 61.8 276.935795 
L 70.99999 276.935795 
L 71.248638 164.165942 
L 71.497287 168.556554 
L 72.243232 199.886049 
L 72.989177 228.742224 
L 73.735122 248.034977 
L 74.481067 259.87151 
L 74.978364 264.969011 
L 75.475661 268.555111 
L 75.972958 271.070801 
L 76.470254 272.832927 
L 77.216199 274.536064 
L 77.962145 275.532481 
L 78.70809 276.115227 
L 79.702683 276.534581 
L 80.945925 276.771758 
L 83.18376 276.903004 
L 89.648618 276.935482 
L 310.199729 276.935795 
L 310.199729 276.935795 
" style="fill:none;stroke:#8eba42;stroke-linecap:square;stroke-width:2;"/>
   </g>
   <g id="line2d_31">
    <path clip-path="url(#p251a8b9bdd)" d="M 61.8 176.882524 
L 71.248638 179.209918 
L 72.243232 113.162946 
L 72.989177 81.189883 
L 73.486474 67.22312 
L 73.98377 57.498118 
L 74.481067 50.849103 
L 74.978364 46.391681 
L 75.475661 43.481309 
L 75.972958 41.657426 
L 76.470254 40.594262 
L 76.967551 40.062618 
L 77.464848 39.901705 
L 77.962145 39.998898 
L 78.70809 40.462917 
L 79.702683 41.428755 
L 81.443222 43.532338 
L 92.632399 57.711715 
L 97.854015 63.800087 
L 103.324279 69.825732 
L 108.794543 75.519838 
L 114.513456 81.147158 
L 120.232369 86.468408 
L 126.19993 91.720969 
L 132.416139 96.892765 
L 138.880997 101.973536 
L 145.345855 106.775277 
L 152.059361 111.490333 
L 159.021515 116.111601 
L 166.232318 120.633281 
L 173.69177 125.050761 
L 181.399869 129.360501 
L 189.356618 133.559917 
L 197.810662 137.767505 
L 206.513356 141.848349 
L 215.464697 145.803323 
L 224.913335 149.734219 
L 234.859271 153.6251 
L 245.053854 157.373645 
L 255.745734 161.067676 
L 266.934911 164.696662 
L 278.621385 168.251848 
L 290.805155 171.72611 
L 303.734871 175.178045 
L 310.199729 176.820414 
L 310.199729 176.820414 
" style="fill:none;stroke:#fbc15e;stroke-linecap:square;stroke-width:2;"/>
   </g>
   <g id="line2d_32">
    <path clip-path="url(#p251a8b9bdd)" d="M 61.8 176.882524 
L 71.248638 179.209918 
L 72.243232 113.162946 
L 72.989177 81.189883 
L 73.486474 67.22312 
L 73.98377 57.498118 
L 74.481067 50.849103 
L 74.978364 46.391681 
L 75.475661 43.481309 
L 75.972958 41.657426 
L 76.470254 40.594262 
L 76.967551 40.062618 
L 77.464848 39.901705 
L 77.962145 39.998898 
L 78.70809 40.462917 
L 79.702683 41.428755 
L 81.443222 43.532338 
L 92.632399 57.711715 
L 97.854015 63.800087 
L 103.324279 69.825732 
L 108.794543 75.519838 
L 114.513456 81.147158 
L 120.232369 86.468408 
L 126.19993 91.720969 
L 132.416139 96.892765 
L 138.880997 101.973536 
L 145.345855 106.775277 
L 152.059361 111.490333 
L 159.021515 116.111601 
L 166.232318 120.633281 
L 173.69177 125.050761 
L 181.399869 129.360501 
L 189.356618 133.559917 
L 197.810662 137.767505 
L 206.513356 141.848349 
L 215.464697 145.803323 
L 224.913335 149.734219 
L 234.859271 153.6251 
L 245.053854 157.373645 
L 255.745734 161.067676 
L 266.934911 164.696662 
L 278.621385 168.251848 
L 290.805155 171.72611 
L 303.734871 175.178045 
L 310.199729 176.820414 
L 310.199729 176.820414 
" style="fill:none;stroke:#777777;stroke-linecap:square;stroke-width:2;"/>
   </g>
   <g id="patch_3">
    <path d="M 61.8 288.7875 
L 61.8 28.05 
" style="fill:none;stroke:#bcbcbc;stroke-linecap:square;stroke-linejoin:miter;stroke-width:0.8;"/>
   </g>
   <g id="patch_4">
    <path d="M 310.448377 288.7875 
L 310.448377 28.05 
" style="fill:none;stroke:#bcbcbc;stroke-linecap:square;stroke-linejoin:miter;stroke-width:0.8;"/>
   </g>
   <g id="patch_5">
    <path d="M 61.8 288.7875 
L 310.448377 288.7875 
" style="fill:none;stroke:#bcbcbc;stroke-linecap:square;stroke-linejoin:miter;stroke-width:0.8;"/>
   </g>
   <g id="patch_6">
    <path d="M 61.8 28.05 
L 310.448377 28.05 
" style="fill:none;stroke:#bcbcbc;stroke-linecap:square;stroke-linejoin:miter;stroke-width:0.8;"/>
   </g>
   <g id="text_16">
    <!-- linear -->
    <defs>
     <path d="M 9.421875 75.984375 
L 18.40625 75.984375 
L 18.40625 0 
L 9.421875 0 
z
" id="DejaVuSans-108"/>
     <path d="M 34.28125 27.484375 
Q 23.390625 27.484375 19.1875 25 
Q 14.984375 22.515625 14.984375 16.5 
Q 14.984375 11.71875 18.140625 8.90625 
Q 21.296875 6.109375 26.703125 6.109375 
Q 34.1875 6.109375 38.703125 11.40625 
Q 43.21875 16.703125 43.21875 25.484375 
L 43.21875 27.484375 
z
M 52.203125 31.203125 
L 52.203125 0 
L 43.21875 0 
L 43.21875 8.296875 
Q 40.140625 3.328125 35.546875 0.953125 
Q 30.953125 -1.421875 24.3125 -1.421875 
Q 15.921875 -1.421875 10.953125 3.296875 
Q 6 8.015625 6 15.921875 
Q 6 25.140625 12.171875 29.828125 
Q 18.359375 34.515625 30.609375 34.515625 
L 43.21875 34.515625 
L 43.21875 35.40625 
Q 43.21875 41.609375 39.140625 45 
Q 35.0625 48.390625 27.6875 48.390625 
Q 23 48.390625 18.546875 47.265625 
Q 14.109375 46.140625 10.015625 43.890625 
L 10.015625 52.203125 
Q 14.9375 54.109375 19.578125 55.046875 
Q 24.21875 56 28.609375 56 
Q 40.484375 56 46.34375 49.84375 
Q 52.203125 43.703125 52.203125 31.203125 
z
" id="DejaVuSans-97"/>
     <path d="M 41.109375 46.296875 
Q 39.59375 47.171875 37.8125 47.578125 
Q 36.03125 48 33.890625 48 
Q 26.265625 48 22.1875 43.046875 
Q 18.109375 38.09375 18.109375 28.8125 
L 18.109375 0 
L 9.078125 0 
L 9.078125 54.6875 
L 18.109375 54.6875 
L 18.109375 46.1875 
Q 20.953125 51.171875 25.484375 53.578125 
Q 30.03125 56 36.53125 56 
Q 37.453125 56 38.578125 55.875 
Q 39.703125 55.765625 41.0625 55.515625 
z
" id="DejaVuSans-114"/>
    </defs>
    <g transform="translate(165.758314 22.05)scale(0.144 -0.144)">
     <use xlink:href="#DejaVuSans-108"/>
     <use x="27.783203" xlink:href="#DejaVuSans-105"/>
     <use x="55.566406" xlink:href="#DejaVuSans-110"/>
     <use x="118.945312" xlink:href="#DejaVuSans-101"/>
     <use x="180.46875" xlink:href="#DejaVuSans-97"/>
     <use x="241.748047" xlink:href="#DejaVuSans-114"/>
    </g>
   </g>
   <g id="legend_1">
    <g id="patch_7">
     <path d="M 269.088377 104.905 
L 304.848377 104.905 
Q 306.448377 104.905 306.448377 103.305 
L 306.448377 33.65 
Q 306.448377 32.05 304.848377 32.05 
L 269.088377 32.05 
Q 267.488377 32.05 267.488377 33.65 
L 267.488377 103.305 
Q 267.488377 104.905 269.088377 104.905 
z
" style="fill:#eeeeee;opacity:0.8;stroke:#cccccc;stroke-linejoin:miter;stroke-width:0.5;"/>
    </g>
    <g id="line2d_33">
     <path d="M 270.688377 38.52875 
L 286.688377 38.52875 
" style="fill:none;stroke:#e24a33;stroke-linecap:square;stroke-width:2;"/>
    </g>
    <g id="line2d_34"/>
    <g id="text_17">
     <!-- 1x -->
     <defs>
      <path d="M 54.890625 54.6875 
L 35.109375 28.078125 
L 55.90625 0 
L 45.3125 0 
L 29.390625 21.484375 
L 13.484375 0 
L 2.875 0 
L 24.125 28.609375 
L 4.6875 54.6875 
L 15.28125 54.6875 
L 29.78125 35.203125 
L 44.28125 54.6875 
z
" id="DejaVuSans-120"/>
     </defs>
     <g transform="translate(293.088377 41.32875)scale(0.08 -0.08)">
      <use xlink:href="#DejaVuSans-49"/>
      <use x="63.623047" xlink:href="#DejaVuSans-120"/>
     </g>
    </g>
    <g id="line2d_35">
     <path d="M 270.688377 50.27125 
L 286.688377 50.27125 
" style="fill:none;stroke:#348abd;stroke-linecap:square;stroke-width:2;"/>
    </g>
    <g id="line2d_36"/>
    <g id="text_18">
     <!-- 1e -->
     <g transform="translate(293.088377 53.07125)scale(0.08 -0.08)">
      <use xlink:href="#DejaVuSans-49"/>
      <use x="63.623047" xlink:href="#DejaVuSans-101"/>
     </g>
    </g>
    <g id="line2d_37">
     <path d="M 270.688377 62.01375 
L 286.688377 62.01375 
" style="fill:none;stroke:#988ed5;stroke-linecap:square;stroke-width:2;"/>
    </g>
    <g id="line2d_38"/>
    <g id="text_19">
     <!-- 1h -->
     <defs>
      <path d="M 54.890625 33.015625 
L 54.890625 0 
L 45.90625 0 
L 45.90625 32.71875 
Q 45.90625 40.484375 42.875 44.328125 
Q 39.84375 48.1875 33.796875 48.1875 
Q 26.515625 48.1875 22.3125 43.546875 
Q 18.109375 38.921875 18.109375 30.90625 
L 18.109375 0 
L 9.078125 0 
L 9.078125 75.984375 
L 18.109375 75.984375 
L 18.109375 46.1875 
Q 21.34375 51.125 25.703125 53.5625 
Q 30.078125 56 35.796875 56 
Q 45.21875 56 50.046875 50.171875 
Q 54.890625 44.34375 54.890625 33.015625 
z
" id="DejaVuSans-104"/>
     </defs>
     <g transform="translate(293.088377 64.81375)scale(0.08 -0.08)">
      <use xlink:href="#DejaVuSans-49"/>
      <use x="63.623047" xlink:href="#DejaVuSans-104"/>
     </g>
    </g>
    <g id="line2d_39">
     <path d="M 270.688377 73.75625 
L 286.688377 73.75625 
" style="fill:none;stroke:#8eba42;stroke-linecap:square;stroke-width:2;"/>
    </g>
    <g id="line2d_40"/>
    <g id="text_20">
     <!-- 2x -->
     <g transform="translate(293.088377 76.55625)scale(0.08 -0.08)">
      <use xlink:href="#DejaVuSans-50"/>
      <use x="63.623047" xlink:href="#DejaVuSans-120"/>
     </g>
    </g>
    <g id="line2d_41">
     <path d="M 270.688377 85.49875 
L 286.688377 85.49875 
" style="fill:none;stroke:#fbc15e;stroke-linecap:square;stroke-width:2;"/>
    </g>
    <g id="line2d_42"/>
    <g id="text_21">
     <!-- 2e -->
     <g transform="translate(293.088377 88.29875)scale(0.08 -0.08)">
      <use xlink:href="#DejaVuSans-50"/>
      <use x="63.623047" xlink:href="#DejaVuSans-101"/>
     </g>
    </g>
    <g id="line2d_43">
     <path d="M 270.688377 97.24125 
L 286.688377 97.24125 
" style="fill:none;stroke:#777777;stroke-linecap:square;stroke-width:2;"/>
    </g>
    <g id="line2d_44"/>
    <g id="text_22">
     <!-- 2h -->
     <g transform="translate(293.088377 100.04125)scale(0.08 -0.08)">
      <use xlink:href="#DejaVuSans-50"/>
      <use x="63.623047" xlink:href="#DejaVuSans-104"/>
     </g>
    </g>
   </g>
  </g>
  <g id="axes_2">
   <g id="patch_8">
    <path d="M 369.175811 288.7875 
L 617.824189 288.7875 
L 617.824189 28.05 
L 369.175811 28.05 
z
" style="fill:#eeeeee;"/>
   </g>
   <g id="matplotlib.axis_3">
    <g id="xtick_8">
     <g id="line2d_45">
      <path clip-path="url(#p676639112e)" d="M 369.175811 288.7875 
L 369.175811 28.05 
" style="fill:none;stroke:#b2b2b2;stroke-dasharray:1.85,0.8;stroke-dashoffset:0;stroke-width:0.5;"/>
     </g>
     <g id="line2d_46">
      <g>
       <use style="fill-opacity:0;stroke:#000000;stroke-width:0.8;" x="369.175811" xlink:href="#mdad7bc64ba" y="288.7875"/>
      </g>
     </g>
     <g id="text_23">
      <!-- 0 -->
      <g transform="translate(365.994561 299.885938)scale(0.1 -0.1)">
       <use xlink:href="#DejaVuSans-48"/>
      </g>
     </g>
    </g>
    <g id="xtick_9">
     <g id="line2d_47">
      <path clip-path="url(#p676639112e)" d="M 408.959552 288.7875 
L 408.959552 28.05 
" style="fill:none;stroke:#b2b2b2;stroke-dasharray:1.85,0.8;stroke-dashoffset:0;stroke-width:0.5;"/>
     </g>
     <g id="line2d_48">
      <g>
       <use style="fill-opacity:0;stroke:#000000;stroke-width:0.8;" x="408.959552" xlink:href="#mdad7bc64ba" y="288.7875"/>
      </g>
     </g>
     <g id="text_24">
      <!-- 2 -->
      <g transform="translate(405.778302 299.885938)scale(0.1 -0.1)">
       <use xlink:href="#DejaVuSans-50"/>
      </g>
     </g>
    </g>
    <g id="xtick_10">
     <g id="line2d_49">
      <path clip-path="url(#p676639112e)" d="M 448.743292 288.7875 
L 448.743292 28.05 
" style="fill:none;stroke:#b2b2b2;stroke-dasharray:1.85,0.8;stroke-dashoffset:0;stroke-width:0.5;"/>
     </g>
     <g id="line2d_50">
      <g>
       <use style="fill-opacity:0;stroke:#000000;stroke-width:0.8;" x="448.743292" xlink:href="#mdad7bc64ba" y="288.7875"/>
      </g>
     </g>
     <g id="text_25">
      <!-- 4 -->
      <g transform="translate(445.562042 299.885938)scale(0.1 -0.1)">
       <use xlink:href="#DejaVuSans-52"/>
      </g>
     </g>
    </g>
    <g id="xtick_11">
     <g id="line2d_51">
      <path clip-path="url(#p676639112e)" d="M 488.527032 288.7875 
L 488.527032 28.05 
" style="fill:none;stroke:#b2b2b2;stroke-dasharray:1.85,0.8;stroke-dashoffset:0;stroke-width:0.5;"/>
     </g>
     <g id="line2d_52">
      <g>
       <use style="fill-opacity:0;stroke:#000000;stroke-width:0.8;" x="488.527032" xlink:href="#mdad7bc64ba" y="288.7875"/>
      </g>
     </g>
     <g id="text_26">
      <!-- 6 -->
      <g transform="translate(485.345782 299.885938)scale(0.1 -0.1)">
       <use xlink:href="#DejaVuSans-54"/>
      </g>
     </g>
    </g>
    <g id="xtick_12">
     <g id="line2d_53">
      <path clip-path="url(#p676639112e)" d="M 528.310773 288.7875 
L 528.310773 28.05 
" style="fill:none;stroke:#b2b2b2;stroke-dasharray:1.85,0.8;stroke-dashoffset:0;stroke-width:0.5;"/>
     </g>
     <g id="line2d_54">
      <g>
       <use style="fill-opacity:0;stroke:#000000;stroke-width:0.8;" x="528.310773" xlink:href="#mdad7bc64ba" y="288.7875"/>
      </g>
     </g>
     <g id="text_27">
      <!-- 8 -->
      <g transform="translate(525.129523 299.885938)scale(0.1 -0.1)">
       <use xlink:href="#DejaVuSans-56"/>
      </g>
     </g>
    </g>
    <g id="xtick_13">
     <g id="line2d_55">
      <path clip-path="url(#p676639112e)" d="M 568.094513 288.7875 
L 568.094513 28.05 
" style="fill:none;stroke:#b2b2b2;stroke-dasharray:1.85,0.8;stroke-dashoffset:0;stroke-width:0.5;"/>
     </g>
     <g id="line2d_56">
      <g>
       <use style="fill-opacity:0;stroke:#000000;stroke-width:0.8;" x="568.094513" xlink:href="#mdad7bc64ba" y="288.7875"/>
      </g>
     </g>
     <g id="text_28">
      <!-- 10 -->
      <g transform="translate(561.732013 299.885938)scale(0.1 -0.1)">
       <use xlink:href="#DejaVuSans-49"/>
       <use x="63.623047" xlink:href="#DejaVuSans-48"/>
      </g>
     </g>
    </g>
    <g id="xtick_14">
     <g id="line2d_57">
      <path clip-path="url(#p676639112e)" d="M 607.878254 288.7875 
L 607.878254 28.05 
" style="fill:none;stroke:#b2b2b2;stroke-dasharray:1.85,0.8;stroke-dashoffset:0;stroke-width:0.5;"/>
     </g>
     <g id="line2d_58">
      <g>
       <use style="fill-opacity:0;stroke:#000000;stroke-width:0.8;" x="607.878254" xlink:href="#mdad7bc64ba" y="288.7875"/>
      </g>
     </g>
     <g id="text_29">
      <!-- 12 -->
      <g transform="translate(601.515754 299.885938)scale(0.1 -0.1)">
       <use xlink:href="#DejaVuSans-49"/>
       <use x="63.623047" xlink:href="#DejaVuSans-50"/>
      </g>
     </g>
    </g>
    <g id="text_30">
     <!-- Time (ns) -->
     <g transform="translate(465.118125 315.08375)scale(0.12 -0.12)">
      <use xlink:href="#DejaVuSans-84"/>
      <use x="61.037109" xlink:href="#DejaVuSans-105"/>
      <use x="88.820312" xlink:href="#DejaVuSans-109"/>
      <use x="186.232422" xlink:href="#DejaVuSans-101"/>
      <use x="247.755859" xlink:href="#DejaVuSans-32"/>
      <use x="279.542969" xlink:href="#DejaVuSans-40"/>
      <use x="318.556641" xlink:href="#DejaVuSans-110"/>
      <use x="381.935547" xlink:href="#DejaVuSans-115"/>
      <use x="434.035156" xlink:href="#DejaVuSans-41"/>
     </g>
    </g>
   </g>
   <g id="matplotlib.axis_4">
    <g id="ytick_7">
     <g id="line2d_59">
      <path clip-path="url(#p676639112e)" d="M 369.175811 259.090598 
L 617.824189 259.090598 
" style="fill:none;stroke:#b2b2b2;stroke-dasharray:1.85,0.8;stroke-dashoffset:0;stroke-width:0.5;"/>
     </g>
     <g id="line2d_60">
      <g>
       <use style="fill-opacity:0;stroke:#000000;stroke-width:0.8;" x="369.175811" xlink:href="#m0ecae97f50" y="259.090598"/>
      </g>
     </g>
     <g id="text_31">
      <!-- $\mathdefault{10^{-193}}$ -->
      <defs>
       <path d="M 4.890625 31.390625 
L 31.203125 31.390625 
L 31.203125 23.390625 
L 4.890625 23.390625 
z
" id="DejaVuSans-45"/>
       <path d="M 10.984375 1.515625 
L 10.984375 10.5 
Q 14.703125 8.734375 18.5 7.8125 
Q 22.3125 6.890625 25.984375 6.890625 
Q 35.75 6.890625 40.890625 13.453125 
Q 46.046875 20.015625 46.78125 33.40625 
Q 43.953125 29.203125 39.59375 26.953125 
Q 35.25 24.703125 29.984375 24.703125 
Q 19.046875 24.703125 12.671875 31.3125 
Q 6.296875 37.9375 6.296875 49.421875 
Q 6.296875 60.640625 12.9375 67.421875 
Q 19.578125 74.21875 30.609375 74.21875 
Q 43.265625 74.21875 49.921875 64.515625 
Q 56.59375 54.828125 56.59375 36.375 
Q 56.59375 19.140625 48.40625 8.859375 
Q 40.234375 -1.421875 26.421875 -1.421875 
Q 22.703125 -1.421875 18.890625 -0.6875 
Q 15.09375 0.046875 10.984375 1.515625 
z
M 30.609375 32.421875 
Q 37.25 32.421875 41.125 36.953125 
Q 45.015625 41.5 45.015625 49.421875 
Q 45.015625 57.28125 41.125 61.84375 
Q 37.25 66.40625 30.609375 66.40625 
Q 23.96875 66.40625 20.09375 61.84375 
Q 16.21875 57.28125 16.21875 49.421875 
Q 16.21875 41.5 20.09375 36.953125 
Q 23.96875 32.421875 30.609375 32.421875 
z
" id="DejaVuSans-57"/>
       <path d="M 40.578125 39.3125 
Q 47.65625 37.796875 51.625 33 
Q 55.609375 28.21875 55.609375 21.1875 
Q 55.609375 10.40625 48.1875 4.484375 
Q 40.765625 -1.421875 27.09375 -1.421875 
Q 22.515625 -1.421875 17.65625 -0.515625 
Q 12.796875 0.390625 7.625 2.203125 
L 7.625 11.71875 
Q 11.71875 9.328125 16.59375 8.109375 
Q 21.484375 6.890625 26.8125 6.890625 
Q 36.078125 6.890625 40.9375 10.546875 
Q 45.796875 14.203125 45.796875 21.1875 
Q 45.796875 27.640625 41.28125 31.265625 
Q 36.765625 34.90625 28.71875 34.90625 
L 20.21875 34.90625 
L 20.21875 43.015625 
L 29.109375 43.015625 
Q 36.375 43.015625 40.234375 45.921875 
Q 44.09375 48.828125 44.09375 54.296875 
Q 44.09375 59.90625 40.109375 62.90625 
Q 36.140625 65.921875 28.71875 65.921875 
Q 24.65625 65.921875 20.015625 65.03125 
Q 15.375 64.15625 9.8125 62.3125 
L 9.8125 71.09375 
Q 15.4375 72.65625 20.34375 73.4375 
Q 25.25 74.21875 29.59375 74.21875 
Q 40.828125 74.21875 47.359375 69.109375 
Q 53.90625 64.015625 53.90625 55.328125 
Q 53.90625 49.265625 50.4375 45.09375 
Q 46.96875 40.921875 40.578125 39.3125 
z
" id="DejaVuSans-51"/>
      </defs>
      <g transform="translate(336.675811 262.889817)scale(0.1 -0.1)">
       <use transform="translate(0 0.765625)" xlink:href="#DejaVuSans-49"/>
       <use transform="translate(63.623047 0.765625)" xlink:href="#DejaVuSans-48"/>
       <use transform="translate(128.203125 39.046875)scale(0.7)" xlink:href="#DejaVuSans-45"/>
       <use transform="translate(153.461914 39.046875)scale(0.7)" xlink:href="#DejaVuSans-49"/>
       <use transform="translate(197.998047 39.046875)scale(0.7)" xlink:href="#DejaVuSans-57"/>
       <use transform="translate(242.53418 39.046875)scale(0.7)" xlink:href="#DejaVuSans-51"/>
      </g>
     </g>
    </g>
    <g id="ytick_8">
     <g id="line2d_61">
      <path clip-path="url(#p676639112e)" d="M 369.175811 229.053224 
L 617.824189 229.053224 
" style="fill:none;stroke:#b2b2b2;stroke-dasharray:1.85,0.8;stroke-dashoffset:0;stroke-width:0.5;"/>
     </g>
     <g id="line2d_62">
      <g>
       <use style="fill-opacity:0;stroke:#000000;stroke-width:0.8;" x="369.175811" xlink:href="#m0ecae97f50" y="229.053224"/>
      </g>
     </g>
     <g id="text_32">
      <!-- $\mathdefault{10^{-166}}$ -->
      <g transform="translate(336.675811 232.852442)scale(0.1 -0.1)">
       <use transform="translate(0 0.765625)" xlink:href="#DejaVuSans-49"/>
       <use transform="translate(63.623047 0.765625)" xlink:href="#DejaVuSans-48"/>
       <use transform="translate(128.203125 39.046875)scale(0.7)" xlink:href="#DejaVuSans-45"/>
       <use transform="translate(153.461914 39.046875)scale(0.7)" xlink:href="#DejaVuSans-49"/>
       <use transform="translate(197.998047 39.046875)scale(0.7)" xlink:href="#DejaVuSans-54"/>
       <use transform="translate(242.53418 39.046875)scale(0.7)" xlink:href="#DejaVuSans-54"/>
      </g>
     </g>
    </g>
    <g id="ytick_9">
     <g id="line2d_63">
      <path clip-path="url(#p676639112e)" d="M 369.175811 199.015849 
L 617.824189 199.015849 
" style="fill:none;stroke:#b2b2b2;stroke-dasharray:1.85,0.8;stroke-dashoffset:0;stroke-width:0.5;"/>
     </g>
     <g id="line2d_64">
      <g>
       <use style="fill-opacity:0;stroke:#000000;stroke-width:0.8;" x="369.175811" xlink:href="#m0ecae97f50" y="199.015849"/>
      </g>
     </g>
     <g id="text_33">
      <!-- $\mathdefault{10^{-139}}$ -->
      <g transform="translate(336.675811 202.815068)scale(0.1 -0.1)">
       <use transform="translate(0 0.765625)" xlink:href="#DejaVuSans-49"/>
       <use transform="translate(63.623047 0.765625)" xlink:href="#DejaVuSans-48"/>
       <use transform="translate(128.203125 39.046875)scale(0.7)" xlink:href="#DejaVuSans-45"/>
       <use transform="translate(153.461914 39.046875)scale(0.7)" xlink:href="#DejaVuSans-49"/>
       <use transform="translate(197.998047 39.046875)scale(0.7)" xlink:href="#DejaVuSans-51"/>
       <use transform="translate(242.53418 39.046875)scale(0.7)" xlink:href="#DejaVuSans-57"/>
      </g>
     </g>
    </g>
    <g id="ytick_10">
     <g id="line2d_65">
      <path clip-path="url(#p676639112e)" d="M 369.175811 168.978475 
L 617.824189 168.978475 
" style="fill:none;stroke:#b2b2b2;stroke-dasharray:1.85,0.8;stroke-dashoffset:0;stroke-width:0.5;"/>
     </g>
     <g id="line2d_66">
      <g>
       <use style="fill-opacity:0;stroke:#000000;stroke-width:0.8;" x="369.175811" xlink:href="#m0ecae97f50" y="168.978475"/>
      </g>
     </g>
     <g id="text_34">
      <!-- $\mathdefault{10^{-112}}$ -->
      <g transform="translate(336.675811 172.777694)scale(0.1 -0.1)">
       <use transform="translate(0 0.765625)" xlink:href="#DejaVuSans-49"/>
       <use transform="translate(63.623047 0.765625)" xlink:href="#DejaVuSans-48"/>
       <use transform="translate(128.203125 39.046875)scale(0.7)" xlink:href="#DejaVuSans-45"/>
       <use transform="translate(153.461914 39.046875)scale(0.7)" xlink:href="#DejaVuSans-49"/>
       <use transform="translate(197.998047 39.046875)scale(0.7)" xlink:href="#DejaVuSans-49"/>
       <use transform="translate(242.53418 39.046875)scale(0.7)" xlink:href="#DejaVuSans-50"/>
      </g>
     </g>
    </g>
    <g id="ytick_11">
     <g id="line2d_67">
      <path clip-path="url(#p676639112e)" d="M 369.175811 138.941101 
L 617.824189 138.941101 
" style="fill:none;stroke:#b2b2b2;stroke-dasharray:1.85,0.8;stroke-dashoffset:0;stroke-width:0.5;"/>
     </g>
     <g id="line2d_68">
      <g>
       <use style="fill-opacity:0;stroke:#000000;stroke-width:0.8;" x="369.175811" xlink:href="#m0ecae97f50" y="138.941101"/>
      </g>
     </g>
     <g id="text_35">
      <!-- $\mathdefault{10^{-85}}$ -->
      <defs>
       <path d="M 10.796875 72.90625 
L 49.515625 72.90625 
L 49.515625 64.59375 
L 19.828125 64.59375 
L 19.828125 46.734375 
Q 21.96875 47.46875 24.109375 47.828125 
Q 26.265625 48.1875 28.421875 48.1875 
Q 40.625 48.1875 47.75 41.5 
Q 54.890625 34.8125 54.890625 23.390625 
Q 54.890625 11.625 47.5625 5.09375 
Q 40.234375 -1.421875 26.90625 -1.421875 
Q 22.3125 -1.421875 17.546875 -0.640625 
Q 12.796875 0.140625 7.71875 1.703125 
L 7.71875 11.625 
Q 12.109375 9.234375 16.796875 8.0625 
Q 21.484375 6.890625 26.703125 6.890625 
Q 35.15625 6.890625 40.078125 11.328125 
Q 45.015625 15.765625 45.015625 23.390625 
Q 45.015625 31 40.078125 35.4375 
Q 35.15625 39.890625 26.703125 39.890625 
Q 22.75 39.890625 18.8125 39.015625 
Q 14.890625 38.140625 10.796875 36.28125 
z
" id="DejaVuSans-53"/>
      </defs>
      <g transform="translate(341.075811 142.74032)scale(0.1 -0.1)">
       <use transform="translate(0 0.765625)" xlink:href="#DejaVuSans-49"/>
       <use transform="translate(63.623047 0.765625)" xlink:href="#DejaVuSans-48"/>
       <use transform="translate(128.203125 39.046875)scale(0.7)" xlink:href="#DejaVuSans-45"/>
       <use transform="translate(153.461914 39.046875)scale(0.7)" xlink:href="#DejaVuSans-56"/>
       <use transform="translate(197.998047 39.046875)scale(0.7)" xlink:href="#DejaVuSans-53"/>
      </g>
     </g>
    </g>
    <g id="ytick_12">
     <g id="line2d_69">
      <path clip-path="url(#p676639112e)" d="M 369.175811 108.903727 
L 617.824189 108.903727 
" style="fill:none;stroke:#b2b2b2;stroke-dasharray:1.85,0.8;stroke-dashoffset:0;stroke-width:0.5;"/>
     </g>
     <g id="line2d_70">
      <g>
       <use style="fill-opacity:0;stroke:#000000;stroke-width:0.8;" x="369.175811" xlink:href="#m0ecae97f50" y="108.903727"/>
      </g>
     </g>
     <g id="text_36">
      <!-- $\mathdefault{10^{-58}}$ -->
      <g transform="translate(341.075811 112.702945)scale(0.1 -0.1)">
       <use transform="translate(0 0.765625)" xlink:href="#DejaVuSans-49"/>
       <use transform="translate(63.623047 0.765625)" xlink:href="#DejaVuSans-48"/>
       <use transform="translate(128.203125 39.046875)scale(0.7)" xlink:href="#DejaVuSans-45"/>
       <use transform="translate(153.461914 39.046875)scale(0.7)" xlink:href="#DejaVuSans-53"/>
       <use transform="translate(197.998047 39.046875)scale(0.7)" xlink:href="#DejaVuSans-56"/>
      </g>
     </g>
    </g>
    <g id="ytick_13">
     <g id="line2d_71">
      <path clip-path="url(#p676639112e)" d="M 369.175811 78.866352 
L 617.824189 78.866352 
" style="fill:none;stroke:#b2b2b2;stroke-dasharray:1.85,0.8;stroke-dashoffset:0;stroke-width:0.5;"/>
     </g>
     <g id="line2d_72">
      <g>
       <use style="fill-opacity:0;stroke:#000000;stroke-width:0.8;" x="369.175811" xlink:href="#m0ecae97f50" y="78.866352"/>
      </g>
     </g>
     <g id="text_37">
      <!-- $\mathdefault{10^{-31}}$ -->
      <g transform="translate(341.075811 82.665571)scale(0.1 -0.1)">
       <use transform="translate(0 0.765625)" xlink:href="#DejaVuSans-49"/>
       <use transform="translate(63.623047 0.765625)" xlink:href="#DejaVuSans-48"/>
       <use transform="translate(128.203125 39.046875)scale(0.7)" xlink:href="#DejaVuSans-45"/>
       <use transform="translate(153.461914 39.046875)scale(0.7)" xlink:href="#DejaVuSans-51"/>
       <use transform="translate(197.998047 39.046875)scale(0.7)" xlink:href="#DejaVuSans-49"/>
      </g>
     </g>
    </g>
    <g id="ytick_14">
     <g id="line2d_73">
      <path clip-path="url(#p676639112e)" d="M 369.175811 48.828978 
L 617.824189 48.828978 
" style="fill:none;stroke:#b2b2b2;stroke-dasharray:1.85,0.8;stroke-dashoffset:0;stroke-width:0.5;"/>
     </g>
     <g id="line2d_74">
      <g>
       <use style="fill-opacity:0;stroke:#000000;stroke-width:0.8;" x="369.175811" xlink:href="#m0ecae97f50" y="48.828978"/>
      </g>
     </g>
     <g id="text_38">
      <!-- $\mathdefault{10^{-4}}$ -->
      <g transform="translate(345.575811 52.628197)scale(0.1 -0.1)">
       <use transform="translate(0 0.684375)" xlink:href="#DejaVuSans-49"/>
       <use transform="translate(63.623047 0.684375)" xlink:href="#DejaVuSans-48"/>
       <use transform="translate(128.203125 38.965625)scale(0.7)" xlink:href="#DejaVuSans-45"/>
       <use transform="translate(153.461914 38.965625)scale(0.7)" xlink:href="#DejaVuSans-52"/>
      </g>
     </g>
    </g>
    <g id="text_39">
     <!-- Counts -->
     <g transform="translate(330.180186 179.3625)rotate(-90)scale(0.12 -0.12)">
      <use xlink:href="#DejaVuSans-67"/>
      <use x="69.824219" xlink:href="#DejaVuSans-111"/>
      <use x="131.005859" xlink:href="#DejaVuSans-117"/>
      <use x="194.384766" xlink:href="#DejaVuSans-110"/>
      <use x="257.763672" xlink:href="#DejaVuSans-116"/>
      <use x="296.972656" xlink:href="#DejaVuSans-115"/>
     </g>
    </g>
   </g>
   <g id="line2d_75">
    <path clip-path="url(#p676639112e)" d="M 369.175811 268.170048 
L 378.375801 276.935795 
L 378.62445 40.260615 
L 617.57554 267.933136 
L 617.57554 267.933136 
" style="fill:none;stroke:#e24a33;stroke-linecap:square;stroke-width:2;"/>
   </g>
   <g id="line2d_76">
    <path clip-path="url(#p676639112e)" d="M 369.175811 42.02818 
L 378.62445 42.047533 
L 378.873098 40.885035 
L 379.370395 40.584586 
L 380.364988 40.515712 
L 387.575791 40.753942 
L 402.246046 41.046691 
L 429.348719 41.340142 
L 479.327042 41.634042 
L 571.57559 41.928651 
L 617.57554 42.027696 
L 617.57554 42.027696 
" style="fill:none;stroke:#348abd;stroke-linecap:square;stroke-width:2;"/>
   </g>
   <g id="line2d_77">
    <path clip-path="url(#p676639112e)" d="M 369.175811 42.02818 
L 378.62445 42.047533 
L 378.873098 40.885035 
L 379.370395 40.584586 
L 380.364988 40.515712 
L 387.575791 40.753942 
L 402.246046 41.046691 
L 429.348719 41.340142 
L 479.327042 41.634042 
L 571.57559 41.928651 
L 617.57554 42.027696 
L 617.57554 42.027696 
" style="fill:none;stroke:#988ed5;stroke-linecap:square;stroke-width:2;"/>
   </g>
   <g id="line2d_78">
    <path clip-path="url(#p676639112e)" d="M 369.175811 123.188722 
L 378.375801 126.386503 
L 378.62445 40.260615 
L 379.619043 40.444646 
L 382.354175 41.344426 
L 450.483831 65.023672 
L 617.57554 123.102295 
L 617.57554 123.102295 
" style="fill:none;stroke:#8eba42;stroke-linecap:square;stroke-width:2;"/>
   </g>
   <g id="line2d_79">
    <path clip-path="url(#p676639112e)" d="M 369.175811 40.318423 
L 378.873098 40.246971 
L 380.11634 40.016938 
L 382.354175 39.915118 
L 390.559572 39.913868 
L 541.240488 40.215962 
L 617.57554 40.318123 
L 617.57554 40.318123 
" style="fill:none;stroke:#fbc15e;stroke-linecap:square;stroke-width:2;"/>
   </g>
   <g id="line2d_80">
    <path clip-path="url(#p676639112e)" d="M 369.175811 40.318423 
L 378.873098 40.246971 
L 380.11634 40.016938 
L 382.354175 39.915118 
L 390.559572 39.913868 
L 541.240488 40.215962 
L 617.57554 40.318123 
L 617.57554 40.318123 
" style="fill:none;stroke:#777777;stroke-linecap:square;stroke-width:2;"/>
   </g>
   <g id="patch_9">
    <path d="M 369.175811 288.7875 
L 369.175811 28.05 
" style="fill:none;stroke:#bcbcbc;stroke-linecap:square;stroke-linejoin:miter;stroke-width:0.8;"/>
   </g>
   <g id="patch_10">
    <path d="M 617.824189 288.7875 
L 617.824189 28.05 
" style="fill:none;stroke:#bcbcbc;stroke-linecap:square;stroke-linejoin:miter;stroke-width:0.8;"/>
   </g>
   <g id="patch_11">
    <path d="M 369.175811 288.7875 
L 617.824189 288.7875 
" style="fill:none;stroke:#bcbcbc;stroke-linecap:square;stroke-linejoin:miter;stroke-width:0.8;"/>
   </g>
   <g id="patch_12">
    <path d="M 369.175811 28.05 
L 617.824189 28.05 
" style="fill:none;stroke:#bcbcbc;stroke-linecap:square;stroke-linejoin:miter;stroke-width:0.8;"/>
   </g>
   <g id="text_40">
    <!-- log-linear -->
    <defs>
     <path d="M 45.40625 27.984375 
Q 45.40625 37.75 41.375 43.109375 
Q 37.359375 48.484375 30.078125 48.484375 
Q 22.859375 48.484375 18.828125 43.109375 
Q 14.796875 37.75 14.796875 27.984375 
Q 14.796875 18.265625 18.828125 12.890625 
Q 22.859375 7.515625 30.078125 7.515625 
Q 37.359375 7.515625 41.375 12.890625 
Q 45.40625 18.265625 45.40625 27.984375 
z
M 54.390625 6.78125 
Q 54.390625 -7.171875 48.1875 -13.984375 
Q 42 -20.796875 29.203125 -20.796875 
Q 24.46875 -20.796875 20.265625 -20.09375 
Q 16.0625 -19.390625 12.109375 -17.921875 
L 12.109375 -9.1875 
Q 16.0625 -11.328125 19.921875 -12.34375 
Q 23.78125 -13.375 27.78125 -13.375 
Q 36.625 -13.375 41.015625 -8.765625 
Q 45.40625 -4.15625 45.40625 5.171875 
L 45.40625 9.625 
Q 42.625 4.78125 38.28125 2.390625 
Q 33.9375 0 27.875 0 
Q 17.828125 0 11.671875 7.65625 
Q 5.515625 15.328125 5.515625 27.984375 
Q 5.515625 40.671875 11.671875 48.328125 
Q 17.828125 56 27.875 56 
Q 33.9375 56 38.28125 53.609375 
Q 42.625 51.21875 45.40625 46.390625 
L 45.40625 54.6875 
L 54.390625 54.6875 
z
" id="DejaVuSans-103"/>
    </defs>
    <g transform="translate(459.559875 22.05)scale(0.144 -0.144)">
     <use xlink:href="#DejaVuSans-108"/>
     <use x="27.783203" xlink:href="#DejaVuSans-111"/>
     <use x="88.964844" xlink:href="#DejaVuSans-103"/>
     <use x="152.441406" xlink:href="#DejaVuSans-45"/>
     <use x="188.525391" xlink:href="#DejaVuSans-108"/>
     <use x="216.308594" xlink:href="#DejaVuSans-105"/>
     <use x="244.091797" xlink:href="#DejaVuSans-110"/>
     <use x="307.470703" xlink:href="#DejaVuSans-101"/>
     <use x="368.994141" xlink:href="#DejaVuSans-97"/>
     <use x="430.273438" xlink:href="#DejaVuSans-114"/>
    </g>
   </g>
  </g>
  <g id="axes_3">
   <g id="patch_13">
    <path d="M 676.551623 288.7875 
L 925.2 288.7875 
L 925.2 28.05 
L 676.551623 28.05 
z
" style="fill:#eeeeee;"/>
   </g>
   <g id="matplotlib.axis_5">
    <g id="xtick_15">
     <g id="line2d_81">
      <path clip-path="url(#p6065c579d1)" d="M 676.551623 288.7875 
L 676.551623 28.05 
" style="fill:none;stroke:#b2b2b2;stroke-dasharray:1.85,0.8;stroke-dashoffset:0;stroke-width:0.5;"/>
     </g>
     <g id="line2d_82">
      <g>
       <use style="fill-opacity:0;stroke:#000000;stroke-width:0.8;" x="676.551623" xlink:href="#mdad7bc64ba" y="288.7875"/>
      </g>
     </g>
     <g id="text_41">
      <!-- $\mathdefault{10^{-1}}$ -->
      <g transform="translate(666.501623 299.885938)scale(0.1 -0.1)">
       <use transform="translate(0 0.684375)" xlink:href="#DejaVuSans-49"/>
       <use transform="translate(63.623047 0.684375)" xlink:href="#DejaVuSans-48"/>
       <use transform="translate(128.203125 38.965625)scale(0.7)" xlink:href="#DejaVuSans-45"/>
       <use transform="translate(153.461914 38.965625)scale(0.7)" xlink:href="#DejaVuSans-49"/>
      </g>
     </g>
    </g>
    <g id="xtick_16">
     <g id="line2d_83">
      <path clip-path="url(#p6065c579d1)" d="M 795.130091 288.7875 
L 795.130091 28.05 
" style="fill:none;stroke:#b2b2b2;stroke-dasharray:1.85,0.8;stroke-dashoffset:0;stroke-width:0.5;"/>
     </g>
     <g id="line2d_84">
      <g>
       <use style="fill-opacity:0;stroke:#000000;stroke-width:0.8;" x="795.130091" xlink:href="#mdad7bc64ba" y="288.7875"/>
      </g>
     </g>
     <g id="text_42">
      <!-- $\mathdefault{10^{0}}$ -->
      <g transform="translate(786.330091 299.885938)scale(0.1 -0.1)">
       <use transform="translate(0 0.765625)" xlink:href="#DejaVuSans-49"/>
       <use transform="translate(63.623047 0.765625)" xlink:href="#DejaVuSans-48"/>
       <use transform="translate(128.203125 39.046875)scale(0.7)" xlink:href="#DejaVuSans-48"/>
      </g>
     </g>
    </g>
    <g id="xtick_17">
     <g id="line2d_85">
      <path clip-path="url(#p6065c579d1)" d="M 913.708559 288.7875 
L 913.708559 28.05 
" style="fill:none;stroke:#b2b2b2;stroke-dasharray:1.85,0.8;stroke-dashoffset:0;stroke-width:0.5;"/>
     </g>
     <g id="line2d_86">
      <g>
       <use style="fill-opacity:0;stroke:#000000;stroke-width:0.8;" x="913.708559" xlink:href="#mdad7bc64ba" y="288.7875"/>
      </g>
     </g>
     <g id="text_43">
      <!-- $\mathdefault{10^{1}}$ -->
      <g transform="translate(904.908559 299.885938)scale(0.1 -0.1)">
       <use transform="translate(0 0.684375)" xlink:href="#DejaVuSans-49"/>
       <use transform="translate(63.623047 0.684375)" xlink:href="#DejaVuSans-48"/>
       <use transform="translate(128.203125 38.965625)scale(0.7)" xlink:href="#DejaVuSans-49"/>
      </g>
     </g>
    </g>
    <g id="xtick_18">
     <g id="line2d_87">
      <defs>
       <path d="M 0 0 
L 0 -2 
" id="m47802521c6" style="stroke:#000000;stroke-width:0.6;"/>
      </defs>
      <g>
       <use style="fill-opacity:0;stroke:#000000;stroke-width:0.6;" x="712.247299" xlink:href="#m47802521c6" y="288.7875"/>
      </g>
     </g>
    </g>
    <g id="xtick_19">
     <g id="line2d_88">
      <g>
       <use style="fill-opacity:0;stroke:#000000;stroke-width:0.6;" x="733.12793" xlink:href="#m47802521c6" y="288.7875"/>
      </g>
     </g>
    </g>
    <g id="xtick_20">
     <g id="line2d_89">
      <g>
       <use style="fill-opacity:0;stroke:#000000;stroke-width:0.6;" x="747.942974" xlink:href="#m47802521c6" y="288.7875"/>
      </g>
     </g>
    </g>
    <g id="xtick_21">
     <g id="line2d_90">
      <g>
       <use style="fill-opacity:0;stroke:#000000;stroke-width:0.6;" x="759.434415" xlink:href="#m47802521c6" y="288.7875"/>
      </g>
     </g>
    </g>
    <g id="xtick_22">
     <g id="line2d_91">
      <g>
       <use style="fill-opacity:0;stroke:#000000;stroke-width:0.6;" x="768.823606" xlink:href="#m47802521c6" y="288.7875"/>
      </g>
     </g>
    </g>
    <g id="xtick_23">
     <g id="line2d_92">
      <g>
       <use style="fill-opacity:0;stroke:#000000;stroke-width:0.6;" x="776.762054" xlink:href="#m47802521c6" y="288.7875"/>
      </g>
     </g>
    </g>
    <g id="xtick_24">
     <g id="line2d_93">
      <g>
       <use style="fill-opacity:0;stroke:#000000;stroke-width:0.6;" x="783.63865" xlink:href="#m47802521c6" y="288.7875"/>
      </g>
     </g>
    </g>
    <g id="xtick_25">
     <g id="line2d_94">
      <g>
       <use style="fill-opacity:0;stroke:#000000;stroke-width:0.6;" x="789.704238" xlink:href="#m47802521c6" y="288.7875"/>
      </g>
     </g>
    </g>
    <g id="xtick_26">
     <g id="line2d_95">
      <g>
       <use style="fill-opacity:0;stroke:#000000;stroke-width:0.6;" x="830.825767" xlink:href="#m47802521c6" y="288.7875"/>
      </g>
     </g>
    </g>
    <g id="xtick_27">
     <g id="line2d_96">
      <g>
       <use style="fill-opacity:0;stroke:#000000;stroke-width:0.6;" x="851.706398" xlink:href="#m47802521c6" y="288.7875"/>
      </g>
     </g>
    </g>
    <g id="xtick_28">
     <g id="line2d_97">
      <g>
       <use style="fill-opacity:0;stroke:#000000;stroke-width:0.6;" x="866.521442" xlink:href="#m47802521c6" y="288.7875"/>
      </g>
     </g>
    </g>
    <g id="xtick_29">
     <g id="line2d_98">
      <g>
       <use style="fill-opacity:0;stroke:#000000;stroke-width:0.6;" x="878.012883" xlink:href="#m47802521c6" y="288.7875"/>
      </g>
     </g>
    </g>
    <g id="xtick_30">
     <g id="line2d_99">
      <g>
       <use style="fill-opacity:0;stroke:#000000;stroke-width:0.6;" x="887.402074" xlink:href="#m47802521c6" y="288.7875"/>
      </g>
     </g>
    </g>
    <g id="xtick_31">
     <g id="line2d_100">
      <g>
       <use style="fill-opacity:0;stroke:#000000;stroke-width:0.6;" x="895.340522" xlink:href="#m47802521c6" y="288.7875"/>
      </g>
     </g>
    </g>
    <g id="xtick_32">
     <g id="line2d_101">
      <g>
       <use style="fill-opacity:0;stroke:#000000;stroke-width:0.6;" x="902.217118" xlink:href="#m47802521c6" y="288.7875"/>
      </g>
     </g>
    </g>
    <g id="xtick_33">
     <g id="line2d_102">
      <g>
       <use style="fill-opacity:0;stroke:#000000;stroke-width:0.6;" x="908.282706" xlink:href="#m47802521c6" y="288.7875"/>
      </g>
     </g>
    </g>
    <g id="text_44">
     <!-- Time (ns) -->
     <g transform="translate(772.493936 315.08375)scale(0.12 -0.12)">
      <use xlink:href="#DejaVuSans-84"/>
      <use x="61.037109" xlink:href="#DejaVuSans-105"/>
      <use x="88.820312" xlink:href="#DejaVuSans-109"/>
      <use x="186.232422" xlink:href="#DejaVuSans-101"/>
      <use x="247.755859" xlink:href="#DejaVuSans-32"/>
      <use x="279.542969" xlink:href="#DejaVuSans-40"/>
      <use x="318.556641" xlink:href="#DejaVuSans-110"/>
      <use x="381.935547" xlink:href="#DejaVuSans-115"/>
      <use x="434.035156" xlink:href="#DejaVuSans-41"/>
     </g>
    </g>
   </g>
   <g id="matplotlib.axis_6">
    <g id="ytick_15">
     <g id="line2d_103">
      <path clip-path="url(#p6065c579d1)" d="M 676.551623 259.090598 
L 925.2 259.090598 
" style="fill:none;stroke:#b2b2b2;stroke-dasharray:1.85,0.8;stroke-dashoffset:0;stroke-width:0.5;"/>
     </g>
     <g id="line2d_104">
      <g>
       <use style="fill-opacity:0;stroke:#000000;stroke-width:0.8;" x="676.551623" xlink:href="#m0ecae97f50" y="259.090598"/>
      </g>
     </g>
     <g id="text_45">
      <!-- $\mathdefault{10^{-193}}$ -->
      <g transform="translate(644.051623 262.889817)scale(0.1 -0.1)">
       <use transform="translate(0 0.765625)" xlink:href="#DejaVuSans-49"/>
       <use transform="translate(63.623047 0.765625)" xlink:href="#DejaVuSans-48"/>
       <use transform="translate(128.203125 39.046875)scale(0.7)" xlink:href="#DejaVuSans-45"/>
       <use transform="translate(153.461914 39.046875)scale(0.7)" xlink:href="#DejaVuSans-49"/>
       <use transform="translate(197.998047 39.046875)scale(0.7)" xlink:href="#DejaVuSans-57"/>
       <use transform="translate(242.53418 39.046875)scale(0.7)" xlink:href="#DejaVuSans-51"/>
      </g>
     </g>
    </g>
    <g id="ytick_16">
     <g id="line2d_105">
      <path clip-path="url(#p6065c579d1)" d="M 676.551623 229.053224 
L 925.2 229.053224 
" style="fill:none;stroke:#b2b2b2;stroke-dasharray:1.85,0.8;stroke-dashoffset:0;stroke-width:0.5;"/>
     </g>
     <g id="line2d_106">
      <g>
       <use style="fill-opacity:0;stroke:#000000;stroke-width:0.8;" x="676.551623" xlink:href="#m0ecae97f50" y="229.053224"/>
      </g>
     </g>
     <g id="text_46">
      <!-- $\mathdefault{10^{-166}}$ -->
      <g transform="translate(644.051623 232.852442)scale(0.1 -0.1)">
       <use transform="translate(0 0.765625)" xlink:href="#DejaVuSans-49"/>
       <use transform="translate(63.623047 0.765625)" xlink:href="#DejaVuSans-48"/>
       <use transform="translate(128.203125 39.046875)scale(0.7)" xlink:href="#DejaVuSans-45"/>
       <use transform="translate(153.461914 39.046875)scale(0.7)" xlink:href="#DejaVuSans-49"/>
       <use transform="translate(197.998047 39.046875)scale(0.7)" xlink:href="#DejaVuSans-54"/>
       <use transform="translate(242.53418 39.046875)scale(0.7)" xlink:href="#DejaVuSans-54"/>
      </g>
     </g>
    </g>
    <g id="ytick_17">
     <g id="line2d_107">
      <path clip-path="url(#p6065c579d1)" d="M 676.551623 199.015849 
L 925.2 199.015849 
" style="fill:none;stroke:#b2b2b2;stroke-dasharray:1.85,0.8;stroke-dashoffset:0;stroke-width:0.5;"/>
     </g>
     <g id="line2d_108">
      <g>
       <use style="fill-opacity:0;stroke:#000000;stroke-width:0.8;" x="676.551623" xlink:href="#m0ecae97f50" y="199.015849"/>
      </g>
     </g>
     <g id="text_47">
      <!-- $\mathdefault{10^{-139}}$ -->
      <g transform="translate(644.051623 202.815068)scale(0.1 -0.1)">
       <use transform="translate(0 0.765625)" xlink:href="#DejaVuSans-49"/>
       <use transform="translate(63.623047 0.765625)" xlink:href="#DejaVuSans-48"/>
       <use transform="translate(128.203125 39.046875)scale(0.7)" xlink:href="#DejaVuSans-45"/>
       <use transform="translate(153.461914 39.046875)scale(0.7)" xlink:href="#DejaVuSans-49"/>
       <use transform="translate(197.998047 39.046875)scale(0.7)" xlink:href="#DejaVuSans-51"/>
       <use transform="translate(242.53418 39.046875)scale(0.7)" xlink:href="#DejaVuSans-57"/>
      </g>
     </g>
    </g>
    <g id="ytick_18">
     <g id="line2d_109">
      <path clip-path="url(#p6065c579d1)" d="M 676.551623 168.978475 
L 925.2 168.978475 
" style="fill:none;stroke:#b2b2b2;stroke-dasharray:1.85,0.8;stroke-dashoffset:0;stroke-width:0.5;"/>
     </g>
     <g id="line2d_110">
      <g>
       <use style="fill-opacity:0;stroke:#000000;stroke-width:0.8;" x="676.551623" xlink:href="#m0ecae97f50" y="168.978475"/>
      </g>
     </g>
     <g id="text_48">
      <!-- $\mathdefault{10^{-112}}$ -->
      <g transform="translate(644.051623 172.777694)scale(0.1 -0.1)">
       <use transform="translate(0 0.765625)" xlink:href="#DejaVuSans-49"/>
       <use transform="translate(63.623047 0.765625)" xlink:href="#DejaVuSans-48"/>
       <use transform="translate(128.203125 39.046875)scale(0.7)" xlink:href="#DejaVuSans-45"/>
       <use transform="translate(153.461914 39.046875)scale(0.7)" xlink:href="#DejaVuSans-49"/>
       <use transform="translate(197.998047 39.046875)scale(0.7)" xlink:href="#DejaVuSans-49"/>
       <use transform="translate(242.53418 39.046875)scale(0.7)" xlink:href="#DejaVuSans-50"/>
      </g>
     </g>
    </g>
    <g id="ytick_19">
     <g id="line2d_111">
      <path clip-path="url(#p6065c579d1)" d="M 676.551623 138.941101 
L 925.2 138.941101 
" style="fill:none;stroke:#b2b2b2;stroke-dasharray:1.85,0.8;stroke-dashoffset:0;stroke-width:0.5;"/>
     </g>
     <g id="line2d_112">
      <g>
       <use style="fill-opacity:0;stroke:#000000;stroke-width:0.8;" x="676.551623" xlink:href="#m0ecae97f50" y="138.941101"/>
      </g>
     </g>
     <g id="text_49">
      <!-- $\mathdefault{10^{-85}}$ -->
      <g transform="translate(648.451623 142.74032)scale(0.1 -0.1)">
       <use transform="translate(0 0.765625)" xlink:href="#DejaVuSans-49"/>
       <use transform="translate(63.623047 0.765625)" xlink:href="#DejaVuSans-48"/>
       <use transform="translate(128.203125 39.046875)scale(0.7)" xlink:href="#DejaVuSans-45"/>
       <use transform="translate(153.461914 39.046875)scale(0.7)" xlink:href="#DejaVuSans-56"/>
       <use transform="translate(197.998047 39.046875)scale(0.7)" xlink:href="#DejaVuSans-53"/>
      </g>
     </g>
    </g>
    <g id="ytick_20">
     <g id="line2d_113">
      <path clip-path="url(#p6065c579d1)" d="M 676.551623 108.903727 
L 925.2 108.903727 
" style="fill:none;stroke:#b2b2b2;stroke-dasharray:1.85,0.8;stroke-dashoffset:0;stroke-width:0.5;"/>
     </g>
     <g id="line2d_114">
      <g>
       <use style="fill-opacity:0;stroke:#000000;stroke-width:0.8;" x="676.551623" xlink:href="#m0ecae97f50" y="108.903727"/>
      </g>
     </g>
     <g id="text_50">
      <!-- $\mathdefault{10^{-58}}$ -->
      <g transform="translate(648.451623 112.702945)scale(0.1 -0.1)">
       <use transform="translate(0 0.765625)" xlink:href="#DejaVuSans-49"/>
       <use transform="translate(63.623047 0.765625)" xlink:href="#DejaVuSans-48"/>
       <use transform="translate(128.203125 39.046875)scale(0.7)" xlink:href="#DejaVuSans-45"/>
       <use transform="translate(153.461914 39.046875)scale(0.7)" xlink:href="#DejaVuSans-53"/>
       <use transform="translate(197.998047 39.046875)scale(0.7)" xlink:href="#DejaVuSans-56"/>
      </g>
     </g>
    </g>
    <g id="ytick_21">
     <g id="line2d_115">
      <path clip-path="url(#p6065c579d1)" d="M 676.551623 78.866352 
L 925.2 78.866352 
" style="fill:none;stroke:#b2b2b2;stroke-dasharray:1.85,0.8;stroke-dashoffset:0;stroke-width:0.5;"/>
     </g>
     <g id="line2d_116">
      <g>
       <use style="fill-opacity:0;stroke:#000000;stroke-width:0.8;" x="676.551623" xlink:href="#m0ecae97f50" y="78.866352"/>
      </g>
     </g>
     <g id="text_51">
      <!-- $\mathdefault{10^{-31}}$ -->
      <g transform="translate(648.451623 82.665571)scale(0.1 -0.1)">
       <use transform="translate(0 0.765625)" xlink:href="#DejaVuSans-49"/>
       <use transform="translate(63.623047 0.765625)" xlink:href="#DejaVuSans-48"/>
       <use transform="translate(128.203125 39.046875)scale(0.7)" xlink:href="#DejaVuSans-45"/>
       <use transform="translate(153.461914 39.046875)scale(0.7)" xlink:href="#DejaVuSans-51"/>
       <use transform="translate(197.998047 39.046875)scale(0.7)" xlink:href="#DejaVuSans-49"/>
      </g>
     </g>
    </g>
    <g id="ytick_22">
     <g id="line2d_117">
      <path clip-path="url(#p6065c579d1)" d="M 676.551623 48.828978 
L 925.2 48.828978 
" style="fill:none;stroke:#b2b2b2;stroke-dasharray:1.85,0.8;stroke-dashoffset:0;stroke-width:0.5;"/>
     </g>
     <g id="line2d_118">
      <g>
       <use style="fill-opacity:0;stroke:#000000;stroke-width:0.8;" x="676.551623" xlink:href="#m0ecae97f50" y="48.828978"/>
      </g>
     </g>
     <g id="text_52">
      <!-- $\mathdefault{10^{-4}}$ -->
      <g transform="translate(652.951623 52.628197)scale(0.1 -0.1)">
       <use transform="translate(0 0.684375)" xlink:href="#DejaVuSans-49"/>
       <use transform="translate(63.623047 0.684375)" xlink:href="#DejaVuSans-48"/>
       <use transform="translate(128.203125 38.965625)scale(0.7)" xlink:href="#DejaVuSans-45"/>
       <use transform="translate(153.461914 38.965625)scale(0.7)" xlink:href="#DejaVuSans-52"/>
      </g>
     </g>
    </g>
    <g id="text_53">
     <!-- Counts -->
     <g transform="translate(637.555998 179.3625)rotate(-90)scale(0.12 -0.12)">
      <use xlink:href="#DejaVuSans-67"/>
      <use x="69.824219" xlink:href="#DejaVuSans-111"/>
      <use x="131.005859" xlink:href="#DejaVuSans-117"/>
      <use x="194.384766" xlink:href="#DejaVuSans-110"/>
      <use x="257.763672" xlink:href="#DejaVuSans-116"/>
      <use x="296.972656" xlink:href="#DejaVuSans-115"/>
     </g>
    </g>
   </g>
   <g id="line2d_119">
    <path clip-path="url(#p6065c579d1)" d="M -1 268.405818 
L 569.464595 268.40696 
L 626.040903 268.880784 
L 652.347388 269.354609 
L 676.551623 270.065345 
L 692.951345 270.776081 
L 708.923695 271.723729 
L 721.097239 272.671378 
L 733.12793 273.855938 
L 742.87351 275.040499 
L 752.557819 276.461971 
L 755.419554 276.935795 
L 756.792914 40.260615 
L 764.342696 41.682088 
L 771.945651 43.340473 
L 778.569186 44.998857 
L 785.223328 46.894154 
L 791.115229 48.789451 
L 797.025936 50.921659 
L 802.884288 53.29078 
L 808.14375 55.659901 
L 813.369222 58.265934 
L 818.112973 60.871967 
L 822.833647 63.714912 
L 827.502164 66.79477 
L 831.782413 69.874627 
L 836.025822 73.191396 
L 840.214958 76.745078 
L 844.336995 80.535671 
L 848.382795 84.563177 
L 852.346133 88.827594 
L 856.223058 93.328924 
L 860.011381 98.067166 
L 863.710261 103.04232 
L 867.478089 108.491298 
L 871.136287 114.177188 
L 874.826425 120.336903 
L 878.397677 126.733529 
L 881.976221 133.60398 
L 885.545106 140.948255 
L 889.090684 148.766354 
L 892.602129 157.058277 
L 896.071002 165.824024 
L 899.575617 175.300508 
L 903.015552 185.250816 
L 906.4628 195.91186 
L 909.902051 207.28364 
L 913.320869 219.366157 
L 916.70929 232.15941 
L 920.116327 245.900311 
L 923.525122 260.588861 
L 925.148476 267.933136 
L 925.148476 267.933136 
" style="fill:none;stroke:#e24a33;stroke-linecap:square;stroke-width:2;"/>
   </g>
   <g id="line2d_120">
    <path clip-path="url(#p6065c579d1)" d="M -1 42.028661 
L 756.792914 42.047533 
L 758.130599 40.885035 
L 759.434415 40.674355 
L 763.158783 40.52237 
L 772.945643 40.573461 
L 925.148476 42.027696 
L 925.148476 42.027696 
" style="fill:none;stroke:#348abd;stroke-linecap:square;stroke-width:2;"/>
   </g>
   <g id="line2d_121">
    <path clip-path="url(#p6065c579d1)" d="M -1 42.028661 
L 756.792914 42.047533 
L 758.130599 40.885035 
L 759.434415 40.674355 
L 763.158783 40.52237 
L 772.945643 40.573461 
L 925.148476 42.027696 
L 925.148476 42.027696 
" style="fill:none;stroke:#988ed5;stroke-linecap:square;stroke-width:2;"/>
   </g>
   <g id="line2d_122">
    <path clip-path="url(#p6065c579d1)" d="M -1 123.274732 
L 605.160271 123.361575 
L 652.347388 123.620854 
L 688.043064 124.052987 
L 712.247299 124.571546 
L 730.936196 125.176532 
L 747.942974 125.95437 
L 755.419554 126.386503 
L 756.792914 40.260615 
L 761.94701 40.444646 
L 770.925856 41.087663 
L 782.003656 42.120741 
L 792.48859 43.330616 
L 801.764723 44.627012 
L 810.105815 46.009837 
L 818.112973 47.565514 
L 825.399914 49.207618 
L 832.097386 50.936149 
L 838.579964 52.837532 
L 844.583988 54.825342 
L 850.402583 56.986005 
L 855.828436 59.233095 
L 861.095589 61.653037 
L 866.19857 64.245833 
L 870.988939 66.925055 
L 875.641714 69.777131 
L 880.156315 72.802059 
L 884.534208 75.99984 
L 888.778258 79.370475 
L 892.988608 83.000389 
L 897.058788 86.803156 
L 901.078096 90.865202 
L 905.03534 95.186528 
L 908.922441 99.767134 
L 912.733805 104.607019 
L 916.4658 109.706184 
L 920.173137 115.151055 
L 923.843339 120.941632 
L 925.148476 123.102295 
L 925.148476 123.102295 
" style="fill:none;stroke:#8eba42;stroke-linecap:square;stroke-width:2;"/>
   </g>
   <g id="line2d_123">
    <path clip-path="url(#p6065c579d1)" d="M -1 40.318721 
L 758.130599 40.246971 
L 764.342696 40.016938 
L 774.889194 39.911743 
L 808.641319 39.926119 
L 892.505055 40.15185 
L 925.148476 40.318123 
L 925.148476 40.318123 
" style="fill:none;stroke:#fbc15e;stroke-linecap:square;stroke-width:2;"/>
   </g>
   <g id="line2d_124">
    <path clip-path="url(#p6065c579d1)" d="M -1 40.318721 
L 758.130599 40.246971 
L 764.342696 40.016938 
L 774.889194 39.911743 
L 808.641319 39.926119 
L 892.505055 40.15185 
L 925.148476 40.318123 
L 925.148476 40.318123 
" style="fill:none;stroke:#777777;stroke-linecap:square;stroke-width:2;"/>
   </g>
   <g id="patch_14">
    <path d="M 676.551623 288.7875 
L 676.551623 28.05 
" style="fill:none;stroke:#bcbcbc;stroke-linecap:square;stroke-linejoin:miter;stroke-width:0.8;"/>
   </g>
   <g id="patch_15">
    <path d="M 925.2 288.7875 
L 925.2 28.05 
" style="fill:none;stroke:#bcbcbc;stroke-linecap:square;stroke-linejoin:miter;stroke-width:0.8;"/>
   </g>
   <g id="patch_16">
    <path d="M 676.551623 288.7875 
L 925.2 288.7875 
" style="fill:none;stroke:#bcbcbc;stroke-linecap:square;stroke-linejoin:miter;stroke-width:0.8;"/>
   </g>
   <g id="patch_17">
    <path d="M 676.551623 28.05 
L 925.2 28.05 
" style="fill:none;stroke:#bcbcbc;stroke-linecap:square;stroke-linejoin:miter;stroke-width:0.8;"/>
   </g>
   <g id="text_54">
    <!-- log-log -->
    <g transform="translate(776.324936 22.05)scale(0.144 -0.144)">
     <use xlink:href="#DejaVuSans-108"/>
     <use x="27.783203" xlink:href="#DejaVuSans-111"/>
     <use x="88.964844" xlink:href="#DejaVuSans-103"/>
     <use x="152.441406" xlink:href="#DejaVuSans-45"/>
     <use x="188.525391" xlink:href="#DejaVuSans-108"/>
     <use x="216.308594" xlink:href="#DejaVuSans-111"/>
     <use x="277.490234" xlink:href="#DejaVuSans-103"/>
    </g>
   </g>
  </g>
 </g>
 <defs>
  <clipPath id="p251a8b9bdd">
   <rect height="260.7375" width="248.648377" x="61.8" y="28.05"/>
  </clipPath>
  <clipPath id="p676639112e">
   <rect height="260.7375" width="248.648377" x="369.175811" y="28.05"/>
  </clipPath>
  <clipPath id="p6065c579d1">
   <rect height="260.7375" width="248.648377" x="676.551623" y="28.05"/>
  </clipPath>
 </defs>
</svg>
